<?xml version="1.0" encoding="UTF-8"?>
<svg id="Layer_1" xmlns="http://www.w3.org/2000/svg" version="1.1" viewBox="0 0 800 415">
  <!-- Generator: Adobe Illustrator 29.6.0, SVG Export Plug-In . SVG Version: 2.1.1 Build 207)  -->
  <defs>
    <style>
      .st0 {
        fill: #fff;
      }
    </style>
  </defs>
  <path class="st0" d="M68.8,145.1c0,.9-.2,1.7-.9,2.5-.8,1.1-1.4,2-1.6,2.5,0,.1-.2,2-.7,5.6-.4,2.7-1.1,4.7-2.2,6-1.2.8-3.3,2.3-6.1,4.6-.5,1.1-1.2,2.3-2.2,3.8-.7.4-1.7.4-2.9.1-1.2-.3-3-1.2-5.3-2.5-2.4-1.4-3.8-2.2-4.4-2.3-1.9,0-3.9.1-5.8.2-3.9-.9-9.5-5.4-16.9-13.8-7.4-8.4-12.1-15.6-14.2-21.3-1.2-2.9-2-6.6-2.3-11.2,0-1.9,0-9.5.5-22.8.7-15.3,1.6-26.8,2.5-34.6.6-5.5,1.2-11,1.8-16.5,1.1-6.4,2.6-10.9,4.7-13.5.4-.6,1.9-1.2,4.7-2s4.6-1.8,5.6-2.9c.5-.5.7-2.4.8-5.4,0-3.1.6-5,1.7-5.8.7-.3,1.5-.4,2.3,0,1.2.4,2.4,1.4,3.5,3s1.8,3.3,1.9,5c0,.9-.8,2.6-2.6,5.2-1.9,2.6-2.7,4.3-2.6,5.2,0,1,1.4,3.7,4.2,8.2,2.8,4.5,4.2,7.1,4.2,7.9,0,.6-.2,1.1-.9,1.2-.7.2-1.1.5-1.3.9,0,0,.2.7.6,1.8.4,1,.6,2,.6,2.8,0,1.2-.7,3.5-2.1,6.8-1.4,3.3-2.2,5.9-2.4,7.6,2,2.6,5.9,5.4,11.6,8.1,7.8,3.9,12.2,5.8,13,6.3,1.6.8,3.3,1.6,5.1,2.5s2.6,1.8,2.3,2.7c-.5,1.2-2.3,1.8-5.4,1.9-4,0-6.3,0-6.9.3-6.9,2.7-15.1,5.1-24.8,6.7-.8,0-1.5,4.8-2,14.3-.5,8.6-.6,14.3-.4,16.9.6,6.7,2.3,12,5.1,15.6,2.8,3.6,7.1,6.3,12.7,7.8,2.5,1.2,6.2,2.7,11,4.3,1,.2,1.7,0,2.1-.7.4-.6,1.1-.8,2-.6s1.7-.3,2.5-1.3c.8-1.1,1.4-1.7,1.9-1.9,0-1.7-.2-2.7-.4-2.9,0-.2-1.1-1.3-2.9-3.4-4.7.8-7.8.9-9.2.5-1-.3-1.8-.7-2.5-1.1-2-1.3-3.1-2.9-3.1-4.7s0-.9.4-1.2c4.6-5.1,9.8-7.1,15.5-6.1,1.4.3,3.4,1.7,6,4.3,2.5,2.6,3.8,4.4,3.8,5.3h.4Z"/>
  <path class="st0" d="M157.2,136.7c0,.5-.5,2-1.4,4.5-1,2.5-1.4,4.2-1.4,5.2,0,1.7-1.1,3.5-3.3,5.5-2.9,2.9-4.5,4.6-4.9,5-1.8,3.9-4.8,9.8-9,17.7-3.3,4.4-7.5,11.3-12.8,20.6.2,1.1,0,2.7-.4,4.8-3.5,5.4-5.2,8.8-5.2,10.1,0,4.3.5,6.6,1.4,6.7.6,0,1.8.5,3.5,1.4,1.7.8,3.2,1.3,4.4,1.4,1.4.1,3-.7,4.8-2.5,1.7-1.8,2.6-3.2,2.6-4.3s-.7-1.6-2.1-3.1c-1.4-1.5-1.9-2.8-1.5-3.8.8-3.1,2.5-4.5,5.1-4.3,3,.2,4.9.6,5.8,1.3.8.6,1.3,2.3,1.3,4.9,0,5.7-2.2,10-6.6,12.8-4.4,2.8-9.5,3.9-15.3,3-1.6-.3-3.7-1.7-6.3-4.4-2.6-2.7-4-4.6-4-5.8s.7-4,2-7.7c.6-1.7,1.5-4.2,2.9-7.3.6-1.1,1-3,1.2-5.5s.5-4.1.7-4.8c.7-2.7,2.6-7.4,5.5-14.1,1.2-.8,2.5-2,3.9-3.6.5-1.4,1.9-3.9,4.3-7.6,2.1-3.1,3.2-5,3.2-5.7v-.7c1.8-2.5,2.6-5.1,2.5-7.6,0-1.6.7-3.7,2.2-6.5,1.4-2.8,2.2-4.5,2.2-5.1,0-4.2-1.9-7.1-5.6-8.7-2.2-.9-6-1.5-11.6-2-3.3-.3-6.9.6-11,2.6-.4.2-.8,1.1-1.2,2.8-.4,1.7-1.1,2.8-2.1,3.4-2.2,1.3-3.7,2.7-4.5,4.3-.5.9-.9,1.9-1.3,2.9-2.8,4.8-4.4,10.7-4.9,17.9-.4,3.9-1.5,7.1-3.4,9.4-2.7,3.2-5.1,4.6-7.2,4.2-2.4-.4-4.6-3-6.7-7.8-1.8-3.8-2.8-7.3-3.1-10.4-1.1-11.5-1.6-18.3-1.6-20.2,0-8.7,2-20.3,6.1-35.1.5-1.8,1.7-4.1,3.8-6.9,2.2-3.3,3.6-5.6,4.2-6.8.8-3.7,2.4-9.3,4.7-16.9.2-.8,0-3.8-1.1-9-.4-2.2.6-5.2,2.9-8.9s3.4-6.9,3.4-9.4-.2-2.7-.7-4.3c0-.5,0-1.4.4-2.8.4-1.4,1.2-1.9,2.4-1.4,3,1.3,4.8,4.5,5.4,9.8.4,4,.7,8.1.9,12.2.4.5.7,1.1,1.1,1.8.6,1.3.8,3.3.7,6.1-.6,2.7-1.2,7.7-1.8,15,0,1.4.5,3.7,1.6,6.6,1.1,3,1.6,4.9,1.6,5.7,0,1.8,0,3.6-.2,5.4.4,2.7,1.8,4.2,4.3,4.5.8,0,2.7,0,5.5-.4s4.7-.6,5.5-.5c2.9.2,6.4,1.4,10.5,3.3,4.7,2.3,7.6,4.8,8.9,7.5,1.7,3.6,3.6,8.5,5.6,14.7,2,6.2,3.1,9.9,3.1,11.1v-.2Z"/>
  <path class="st0" d="M273.2,107.3c0,3.6-1.1,7.8-3.4,12.4-2.5,5.2-5.2,8-8.1,8.4,1.7-.2-2.6-.2-13-.1-4.6.2-10.8.3-18.8,0-.5,0-1.8-.5-3.9-1.3-2.1-.8-3.7-1.1-4.8-1-3.6.3-5.8,1.9-6.7,4.7.1,2,.1,5.1,0,9.2-.2,2.1-1.1,5.3-2.6,9.7s-2.3,7-2.3,7.8c0,2.6,1.4,4.8,4.3,6.4,1.6.9,4.6,2,9.2,3.4,1.9-.3,4.9-.4,8.9-.5,1.6.6,3.6,1.1,6.1,1.5,1-.1,2-.2,3.1-.3.8-.9,1.6-1.7,2.3-2.6,2.4-.5,4.6-1.6,6.5-3.3,1.6-1.4,2.3-2.4,2.3-3,0-2.3-1.8-5-5.2-8-.7.9-1.9,3.7-3.6,8.2-1.1,2.9-3.4,4.4-6.9,4.6-1.3,0-2.5-1.1-3.5-3.2-1-2.2-1.5-4.2-1.5-6,0-3.9,2.8-7.1,8.3-9.9,4.6-2.4,8.2-3.5,10.8-3.3,1.3-.2,2.8.4,4.3,1.8,3.6,3.1,5.4,6.8,5.4,10.8,0,8.1-4.8,14.5-14.3,19.2-5.9,3-12.5,4.9-19.9,5.5-5.5.5-12.4-.8-20.6-4-2.4-.6-6.4-1.7-11.9-3.4-2.8-.8-6.1-4-10.1-9.6-3.9-5.1-7-10.6-9.6-16.5-1.9-4.2-2.8-11.7-2.7-22.4v-12.8c.2-2.5,1.1-6.4,2.7-11.6,1.7-3.5,4.9-7,9.8-10.6,4.8-3.6,8.9-5.9,12.3-6.7,1.4-.4,3.9-1.9,7.3-4.5,3.4-2.6,6-4.2,7.7-4.8,2.5-.2,6.1-.6,10.7-1.4,1.8-.4,3.6-1,5.2-1.8,1.7-.8,2.8-1.3,3.3-1.3,6-.6,13.6,2,22.6,7.8,7.7,4.9,12.6,9.1,14.6,12.8,1.3,2.2,2.6,5.8,4,10.6,1.1,4.4,1.6,7.5,1.6,9.2h0ZM230.3,97.5c-1.1-.7-2.3-1.2-3.6-1.4-1.3-.2-2.6-.4-3.8-.7-2.2-.5-4.3-.7-6.3-.6-7.8.6-11.7,3.1-11.7,7.9s1,3.2,2.9,3.1c2.2,0,5.6-.7,10.4-1.8,4.8-1.1,7.6-1.7,8.5-1.8.9,0,1.8-.6,2.7-1.5s1.4-1.8,1.4-2.5-.1-.5-.4-.7h0ZM219.1,78.6c.2-.6,1.4-1.2,3.4-1.7,3.6-.9,5.5-.8,5.8.4.1,1.1-.4,1.9-1.4,2.5-1.1.6-2.3.9-3.6.9-3.3.2-4.6-.5-4.2-2h0ZM247.9,85.8c.1-.3.7-.6,1.9-1,1.1-.4,1.7-.8,1.5-1-1.9-1-4.3-2.4-7.2-4.2-3-2.4-5.2-3.6-6.5-3.4-1.7.2-2.5.9-2.5,2.3s2.6,3.4,7.8,5.3c2.4,2.5,3.7,3.7,4,3.7.5,0,.8-.6,1.1-1.6h-.1ZM265,101.7c-.4-1.5-1.3-3-2.7-4.5-1.4-1.5-2.2-2.3-2.3-2.6-.4-.7-.8-1.2-1.4-1.4-.5-.3-.8-.5-.8-.6,0-.2.1-.5.4-.8-1.4.2-2.9.4-4.3.6-1,1.8-1.4,2.8-1.4,2.9.8.9,2.1,2.4,3.8,4.6.1,1.6.7,3.5,1.6,5.7,1.1,1.1,2.2,1.3,3.3.6,3-1.5,4.3-3,4-4.5h-.2Z"/>
  <path class="st0" d="M487.1,36.9c0,1.9-.5,3.8-1.6,5.7-1.2,2.4-3,3.8-5.2,4.2-.5,0-1.3,0-2.3-.6-1.6-.7-2.8-1-3.6-1.1-4.1-.8-8-.9-11.6-.3-2,.4-4.3,1.3-6.7,2.6-3.1,1.7-5.6,2.9-7.4,3.5-1,.3-2.5,2.1-4.5,5.5-.1,4.1-.2,8.2-.2,12.3-.2,4.7-.9,8.9-2,12.5-.8,2.5-2.9,6.7-6.1,12.7-2.8,5.2-4.2,8.3-4.2,9.6,0,2.7,1.5,6.3,4.5,11,3.4,5.3,6.6,7.7,9.6,7,.7,0,1.4,0,1.9.4s1.5.6,3,.6c2.5,0,6.6-.6,12.1-1.7,1-.2,2.9-1.4,5.9-3.7,2.9-2.3,5.3-3.7,7-4.2,3.1-1,4.7,1,4.7,6s-.7,3.1-2.2,4.5c-1.4,1.4-3,2.8-4.5,4-.7,1.3-2.1,3.2-4,5.5-1.2,1-3.3,1.6-6.1,1.9-5.2.7-7.2.9-6.1.7-.4,0-1.6.4-3.7,1s-3.8,1-5,1.3c-1.8.2-3.3.3-4.3.2-2.4-1.1-6-2.3-10.8-3.7-12.6-1.7-23.5-6.8-32.5-15.5-1.2-1.2-2.2-3.5-2.9-6.8-.8-4.4-1.6-7.3-2.2-8.6-.1-.5-1.4-2.5-3.8-6.2-1.7-2.8-2.5-4.8-2.5-6.1s1-3.3,3-7.2c2-4,3.1-7,3.3-9.1,1.7-13.3,9.5-24.6,23.5-34,10.2-6.8,22-11.6,35.2-14.3,21.7-4.4,32.5-.7,32.5,10.7l-.2-.3Z"/>
  <path class="st0" d="M577.8,21.9c.4,1.3.3,2.9-.3,4.8-.5,1.9-1.4,3.2-2.4,3.9-2.3,1.4-4.2,1.3-5.6-.4-.4-.3-.7-1.3-1.1-3,0-1-1.1-1.6-2.9-1.9-.8,0-1.3.7-1.4,2.1.5,2.6,1,6.9,1.4,13-.5,2.7-.8,6.5-1.1,11.5,1.3,3.4,2.8,8.4,4.3,15.1,0,3.8-1.1,11.1-3.8,21.9-2.8,11.1-4.2,19-4.2,23.6s.5,6.1,1.6,8.1c-.4.6-.5,2-.4,4.2.7,3.3,3.1,5.1,7.2,5.4,1.1.1,2-.2,2.7-1s.9-1.6.5-2.6c0-.2-.5-.9-1.4-1.9s-1.4-1.9-1.4-2.8c.2-2.3,1.8-3.9,4.7-4.8.8-.3,1.3-.2,1.4.5,0,.7.6.8,1.4.5,2.8-.8,4.2.6,4.2,4.2s0,2.1-.4,3.5c-.2.9-1,1.8-2.3,2.9-1.3,1.1-2.1,1.9-2.3,2.4-.6,1.5-1.2,3-1.9,4.6s-1.8,2.6-3.5,3.1c-.7.3-1.6.3-2.5-.1-1-.4-1.9-.5-2.7-.3-1.9.7-4.5-1.3-7.6-5.9-1.3-2.7-2.7-5.5-4.2-8.2-2.2-3.4-5.4-4.5-9.6-3.3-.7.2-1.8,0-3.1-.4-1.3-.5-2.4-.6-3.3-.2-2.8,1-5.8.7-9.2-.9-4.7-2.3-7.3-3.4-7.8-3.2-1,.4-2.5,0-4.7-1.4-2.2-1.3-3.9-2.9-5.1-4.6-3.6-4.7-5.8-7.9-6.5-9.6-.6-2.9-1.2-5.8-1.8-8.7-1-3.9-1.4-8.5-1.4-13.7s.6-11.8,1.8-21.6c.4-4.3.7-8.5,1.1-12.7,1-4.5,3.6-8.4,7.8-11.6-.2-.8-.4-1.6-.5-2.4-.4-1.6-1.7-2.8-3.9-3.6-2.2-.8-3.3-1.9-3.2-3.4.4-3.7,2.7-6.4,7-8.2,1.6-.6,3.4-1.1,5.4-1.4,6.5-1,10.4.3,11.7,3.8.2.6,0,1.3-.9,2.3-.7.8-1.4,1.5-2.2,2.3-2,3.3-2.7,6.5-2,9.5,0,.5,2.2,2.8,6.1,7,1.1,1.9,2.8,4.7,5.2,8.5,0,.9.6,2.3,1.4,4.1.8,1.8,1.2,3.3,1.2,4.4s0,1.3-.4,2c-.2.8,0,1.9.8,3.5s1.2,2.8,1.4,3.8c0,3.4-.5,6.7-2,10-1.1,1.5-2.7,4.3-4.7,8.6-2,6-2.8,10.3-2.2,13,.6,2.2,2.1,4.3,4.6,6.2,2.4,1.9,5.1,2.7,7.9,2.4,6.5-.8,11-8.4,13.6-22.8,0-.6-.3-2.5-1.3-5.6-.2-.7,0-2.2.4-4.6.6-2.8.9-4.9.9-6.3,0-2.2-.3-4.7-.8-7.5-.5-3.3-.9-5.9-1-7.7-.2-2.6-.4-5.3-.5-8.1,0-2.9.2-5.6.9-8.2.5-1.4,1.4-3.2,2.8-5.6,1.4-2.3,2.1-4,2.3-5.1.8-4.7,1.3-7.1,1.4-7.4,1.1-3,2.8-4.6,5.2-4.9,2.3-.2,4.7,1.3,7.2,4.5,1.9,2.6,3.1,4.5,3.4,5.8l.6.6Z"/>
  <path class="st0" d="M680.3,56.4c-.8,5.6-3.3,9.3-7.4,11.4-2.8,1.4-5.8,2.3-9,2.7-3.1.3-5.4-.8-6.7-3.3-.6-1.2-.6-2.7,0-4.3.7-1.8,1.7-2.6,2.9-2.5.8,0,2,1.5,3.4,4.4,2.9-.4,5.3-1.3,7.2-2.7.6-.3.6-1.2,0-2.7-1.9-2.1-3.5-5.5-4.7-10.3-.8-3.1-3-4.7-6.3-4.9-3.6-.2-6.3,0-8.1,1-1,.6-2,1.5-3.1,2.9s-1.9,2.2-2.3,2.4c-1.8.9-3.7,1.8-5.6,2.6-2.7,1.4-4.4,3-5.2,4.7s-1.8,6.5-2.9,14.4c-1.1,7.9-2.7,14-4.9,18.3-.4.8-1.2,1.7-2.5,2.5-1.7,1.1-2.8,2-3.3,2.6-1.8,2.7-4.5,6.6-8.1,11.9.8,1.1,1.7,2.9,2.5,5.5,0,1.9-1.2,3.7-3.5,5.2-2.3,1.6-4.7,2.4-7,2.5-2.4,0-3.6-1.4-3.6-4.5s.9-2.1,2.6-4.2c1.7-2.1,2.6-3.6,2.6-4.5s-.4-1.8-1.3-2.8c-.8-1-1.4-1.7-1.6-2.2-1.3-2.6-2.5-6.4-3.4-11.4-.7-4.2-1.1-7.2-1.1-9.2,0-10.2.4-21.8,1.1-34.6,0-2.9,1-6.3,2.5-10.2,2.3-5.6,3.6-9.1,3.8-10.3.7-.7,1.4-1.4,2.2-2.1-.6-.5-1.2-.9-1.8-1.4-4.1,2.9-7.6,4.5-10.5,4.7-1.3,0-2.6-.4-3.9-1.4-1.3-1-1.9-2.2-1.9-3.5,0-11.9,6.2-18.4,18.6-18.8,2.3,0,3.9,1.3,4.7,4,.8,2.8,1.6,5.5,2.3,8.3,1.4,2.9,4,4.3,7.6,4.2.8,0,3.6-.7,8.2-2.1,4.6-1.3,7.4-2,8.2-2s2,.4,3.6,1.1,2.6,1.1,3.3,1.1c1,0,2,0,3-.3s2-.4,2.8-.3c5.3.3,10.6,2.1,15.9,5.4,6,3.9,8.9,8.2,8.7,12.7,0,2.2,0,4.6-.4,7.2-.2,2.1-.4,3.6-.4,4.3,0,2.2.9,5,2.7,8.4h.1Z"/>
  <path class="st0" d="M796.8,82.8c0,3.6-1.1,7.1-3.4,10.5-2.5,3.8-5.2,5.1-8.1,3.9,1.7.7-2.6-1.8-13-6.7-4.6-2-10.8-4.8-18.8-8.1-.5-.3-1.8-1.2-3.9-2.8-2.1-1.6-3.7-2.5-4.8-2.8-3.6-1-5.8-.2-6.7,2.4,0,2.1,0,5.2,0,9.2-.2,2-1.1,4.9-2.6,8.8s-2.3,6.3-2.3,7.1c0,2.7,1.4,5.2,4.3,7.8,1.6,1.4,4.6,3.5,9.2,6.6,1.9.4,4.9,1.4,8.9,2.9,1.6,1.2,3.6,2.6,6.1,4.1,1,.3,2,.7,3.1,1,.8-.5,1.6-1,2.3-1.6,2.4.6,4.6.5,6.5-.3,1.6-.6,2.3-1.3,2.3-1.9,0-2.3-1.8-5.8-5.2-10.5-.7.6-1.9,2.8-3.6,6.5-1.1,2.4-3.4,2.9-6.9,1.5-1.3-.5-2.5-2.1-3.5-4.7s-1.5-4.8-1.5-6.6c0-3.8,2.8-6.1,8.3-6.4,4.6-.4,8.2.2,10.8,1.7,1.3.5,2.8,1.8,4.3,3.9,3.6,5,5.4,9.5,5.4,13.6,0,8.1-4.8,11.9-14.3,12.1-5.9.2-12.5-.8-19.9-2.9-5.5-1.6-12.4-5.3-20.6-10.9-2.4-1.3-6.4-3.5-11.9-6.5-2.8-1.5-6.1-5.5-10.1-11.8-3.9-5.8-7-11.9-9.6-18.2-1.9-4.5-2.8-12.1-2.7-22.8v-12.8c.2-2.5,1.1-6.2,2.7-11.2,1.7-3.2,4.9-6.2,9.8-8.9,4.8-2.7,8.9-4,12.3-4s3.9-.9,7.3-2.6c3.4-1.6,6-2.5,7.7-2.5,2.5.6,6.1,1.3,10.7,2.2,1.8.3,3.6.3,5.2.1,1.7-.2,2.8-.2,3.3,0,6,1.8,13.6,7.6,22.6,17.8,7.7,8.7,12.6,15.7,14.6,20.5,1.3,3,2.6,7.2,4,12.9,1.1,5,1.6,8.4,1.6,10.1v.3ZM754,52c-1.1-1.2-2.3-2.1-3.6-2.8s-2.6-1.4-3.8-2.1c-2.2-1.3-4.3-2.3-6.3-2.8-7.8-2-11.7-.5-11.7,4.2s1,3.5,2.9,3.9c2.2.5,5.6,1,10.4,1.5,4.8.5,7.6,1,8.5,1.3s1.8,0,2.7-.5,1.4-1.2,1.4-1.9,0-.5-.4-.8h-.1ZM742.8,28.9c.2-.5,1.4-.7,3.4-.5,3.6.4,5.5,1.3,5.8,2.6,0,1.1-.4,1.8-1.4,1.9-1.1.2-2.3,0-3.6-.5-3.3-1-4.6-2.2-4.2-3.5ZM771.5,47.9c0-.2.7-.2,1.9,0,1.1,0,1.7,0,1.5-.3-1.9-1.9-4.3-4.4-7.2-7.6-3-3.8-5.2-5.9-6.5-6.3-1.7-.5-2.5,0-2.5,1.2s2.6,4.4,7.8,8.7c2.4,3.6,3.7,5.4,4,5.5.5.2.8-.2,1.1-1.1h0ZM788.7,72.5c-.4-1.7-1.3-3.7-2.7-6s-2.2-3.5-2.3-3.8c-.4-.9-.8-1.6-1.4-2.2-.5-.6-.8-.9-.8-1,0-.2,0-.4.4-.6-1.4-.6-2.9-1.1-4.3-1.6-1,1.3-1.4,2.1-1.4,2.2.8,1.3,2.1,3.4,3.8,6.5,0,1.6.7,3.8,1.6,6.6,1.1,1.6,2.2,2.4,3.3,2.3,3,0,4.3-.7,4-2.4h-.2Z"/>
  <path class="st0" d="M142.6,255.6c-1.7,1.2-3.6,3.3-5.8,6.3-.2.8-.4,1.7-.4,2.5,0,2.3,1,5.3,3.1,9.1,2.8,5.1,4.6,9,5.4,11.5.6,1.6,1.2,5,1.8,10.2.5,4.4,1.1,7,1.8,8,.5.5,2.4,1.4,5.9,2.7,3.4,1.3,5.6,2.5,6.6,3.7.6.6.8,1.1.7,1.5-.2.4-.5.7-.7.9-.5,2.2-2,3.6-4.7,4.2-1.6-.3-3.9,0-6.9.8-.5.2-1.7,4.3-3.6,12.3-2.2,9.2-4.1,15.7-5.8,19.6-.8,1.3-1.7,2.6-2.5,3.8-1.4,2-2.2,3.9-2.3,5.8-.4,5.9.3,12.8,2,20.8,2,9.6,4.8,15.8,8.3,18.8,1.9,1.4,5,2.1,9.2,2,.5,0,1.1-.3,1.9-.9.8-.6,1.5-1,2.1-.9,1.8,0,2.7,1.3,2.7,3.9s-.5,3.7-1.6,4.7c-1.1.9-2.3,1.8-3.4,2.6-1,.8-2.3,1.2-4.2,1.1-3.3-.1-7.1-1.6-11.7-4.5-4.5-2.9-7.8-5.8-9.8-8.5-4-5.2-6.7-11.8-8.3-19.9-1.1-5.5-1.9-14.4-2.5-26.5,0-2.5-.5-8.9-1.6-19-.8-8.3-1.2-14.6-1.1-18.9-.7-.9-2.8-2.5-6.1-4.9-2.7-1.9-4-3.7-4-5.4s.8-3.4,2.5-3.6c2.3.5,5.1.7,8.5.3,1.7-1.1,2.3-5.7,1.8-13.7-.2-4.8.5-9.8,2.2-15,.4-1.1,2.5-3.4,6.5-7,.6-1,0-3.6-1.6-7.7-.5-.9-1-1.8-1.5-2.8s-.7-1.8-.5-2.7c.5-1.3,1.7-1.8,3.6-1.7,1.6.4,3.2.7,4.9,1s4.1,1.3,7.2,2.9c.7.9,1.3,1.8,2,2.6h0Z"/>
  <path class="st0" d="M258.6,330.1c-.8,5.8-3.3,10.1-7.4,13.1-2.8,2-5.8,3.5-9,4.5-3.1.8-5.4.1-6.7-2.2-.6-1.1-.6-2.6,0-4.3.7-1.9,1.7-2.9,2.9-3,.8,0,2,1.2,3.4,3.8,2.9-.9,5.3-2.3,7.2-4.1.6-.4.6-1.3,0-2.7-1.9-1.7-3.5-4.8-4.7-9.4-.8-2.9-3-4.2-6.3-3.8-3.6.4-6.3,1.1-8.1,2.3-1,.7-2,1.8-3.1,3.4-1.1,1.5-1.9,2.5-2.3,2.7-1.8,1.1-3.7,2.2-5.6,3.2-2.7,1.7-4.4,3.4-5.2,5.2-.8,1.8-1.8,6.7-2.9,14.7-1.1,8-2.7,14.2-4.9,18.7-.4.9-1.2,1.8-2.5,2.7-1.7,1.2-2.8,2.1-3.3,2.7-1.8,2.7-4.5,6.8-8.1,12.1.8,1.1,1.7,2.9,2.5,5.5,0,1.9-1.2,3.7-3.5,5.3-2.3,1.6-4.7,2.4-7,2.5-2.4,0-3.6-1.5-3.6-4.6s.9-2.1,2.6-4.1c1.7-2,2.6-3.5,2.6-4.5s-.4-1.8-1.3-2.8c-.8-1-1.4-1.7-1.6-2.2-1.3-2.6-2.5-6.5-3.4-11.5-.7-4.2-1.1-7.3-1.1-9.2,0-10.2.4-21.7,1.1-34.5.1-2.9,1-6.3,2.5-10.2,2.3-5.6,3.6-9,3.8-10.2.7-.7,1.4-1.4,2.2-2-.6-.5-1.2-.9-1.8-1.4-4.1,2.9-7.6,4.3-10.5,4.3s-2.6-.5-3.9-1.6c-1.3-1.1-1.9-2.3-1.9-3.6,0-11.9,6.2-17.8,18.6-18.2,2.3,0,3.9,1.3,4.7,4s1.6,5.5,2.3,8.2c1.4,2.8,4,4.2,7.6,4,.8,0,3.6-.9,8.2-2.6,4.6-1.7,7.4-2.6,8.2-2.7.8,0,2,.2,3.6.7s2.6.8,3.3.7c1,0,2-.3,3-.7,1-.4,2-.6,2.8-.7,5.3-.5,10.6.3,15.9,2.6,6,2.6,8.9,6.2,8.7,10.8,0,2.2-.1,4.6-.4,7.3-.2,2.2-.4,3.7-.4,4.4,0,2.2.9,4.8,2.7,7.8v-.4Z"/>
  <path class="st0" d="M308,232.9c-.1.7-.7,1.6-1.6,2.6-.8.3-2.2.3-4,.2-1.8-.2-3-.2-3.6,0-2.3.4-3.4,1.9-3.4,4.6s.4,2.2,1.1,3.3c2.5,4.3,5.5,6.6,8.9,6.9.4-.5.5-1.6.5-3.2-.1-1.9-.1-3,0-3.3.1-1.2.7-2,1.6-2.3,1-.3,2.1-.2,3.4.3,1.2,3.2,1.8,6.5,1.8,10.1,0,12.2-5.6,19.3-16.8,21.2-9.5,1.6-15.5.3-18.1-3.9-1.6-2.4-3.1-4.9-4.7-7.4-2.2-4-3.3-7.7-3.3-10.9s.1-2.3.4-3.3c.4-1.6,1.7-4,4.2-7,2.4-3.1,4.9-5.5,7.6-7.2,1-.8,4.2-1.7,9.8-2.9,6.6-1.5,11.3-1.9,13.9-1.1.8,1.1,1.6,2.2,2.3,3.4h0ZM319.7,314.8c-1.7,3-3.7,5.3-6,7.1-.8.5-2.2,1.1-4.2,1.8-1.9.6-3.3,1.3-4,1.9-6,4.3-9.9,14-11.6,28.9-.1,1,.6,3.8,2.2,8.5,1.7,5,2.5,8.7,2.5,10.9s-.4,2.4-1.1,4.2c-.7,1.8-1.4,3-2.2,3.4-2.4,1.7-4.8,3.5-7.2,5.2-.5,0-1.4-.7-2.7-1.9-.4-.7,0-4.6,1.3-11.9.2-1,.1-2.2-.4-3.6-.5-1-.9-2-1.2-3.1-3.1-11.9-5.7-20.9-7.8-27-.7-2.1-1.2-5.3-1.6-9.7-.7-6.8-1.1-10.2-1.1-10.3-.1-.9-1-2.3-2.6-4.1-1.6-1.8-2.4-3.7-2.4-5.8,0-5.3,1-8.6,2.9-10,1-.6,4.5-1.1,10.6-1.6.6-.8,1.4-3.4,2.5-7.6,1.7-1.2,3.3-1.6,4.8-1,2.4,1,4.8,2.9,7.2,5.5,1.1,1.1,1.9,3.4,2.3,6.6.2.9.7,1.6,1.3,1.9.6.4,3.3,1.1,8.1,2,3.2.7,5.1,1.5,5.6,2.2,1.6,2.5,3.1,5,4.7,7.4h.1ZM303.6,261.5c-.7.2-1.4.4-2.2.6-1.6.3-4.5.4-8.7.4s-6.3,0-7.8.4c-.6.2-1,.8-1.1,1.7-.1.9-.2,1.5-.4,1.8,3.1,1.4,7,1.8,11.6,1,2.3-.4,3.9-1,5-1.7,1-.7,1.8-1.6,2.3-2.6s.9-1.5,1.2-1.6h.1Z"/>
  <path class="st0" d="M337.9,364.6c1.3-3.4,3.1-5.3,5.4-5.8,3.6-.7,5.9,0,6.9,2.4.5,1.2.5,2.6,0,4.2-.4,1.2-1.8,2-4.3,2.5s-3.8,1.6-3.8,3.1.5,2.5,1.5,3.4,2.2,1.3,3.5,1c.2,0,2.4-2.6,6.5-7.7,3.3-4,5.1-6.6,5.5-7.7s.6-2.4.6-4.1c.1-1.2.1-2.6,0-4.2,0-.9-.1-1.8-.2-2.7,0-.7-.9-2.1-2.7-4.2-1.8-2.1-3-3.8-3.4-5.2-1.8-4.1-2.8-8.2-2.9-12.4.1-3.4.2-5.8.4-7.3,0-1.4-.5-3.2-1.5-5.2s-1.5-3.8-1.5-5.2.2-2.7.6-4.6c.4-1.8.6-3.2.6-4.2.4-4.5.4-9.1,0-13.7-.1-1.7-.7-4.1-1.8-7.2-1.1-3.1-1.6-5.9-1.6-8.2s.6-4.7,1.9-8.1c1.3-3.3,1.9-5.8,1.9-7.5,0-3.1-1.6-6.2-4.7-9.2s-4.7-4.8-4.7-5.3c0-1,.8-4.4,2.3-10.2.4-1.5,1.3-2.4,2.7-2.7.1,0,1.4-.4,4-1,1.7-.5,3.1-.7,4.3-.6,1.2,0,2.2.5,3.1,1.4,2.4,2.9,4.3,6.7,5.6,11.5,1.1,4,2.2,8,3.3,12,3,7.4,5.2,12.9,6.7,16.5,1.1,3.3,1.9,8.6,2.5,15.9.6,8.2,1.2,13.6,1.8,16.2.6,1,1.2,1.4,1.8,1.2,2.6-2.5,4.6-4.1,5.8-4.7.7-.4,2.5-.9,5.4-1.5,6.1-1.3,10.2-.9,12.3,1.3,3,3,6.1,7.7,9.3,14.4,3.2,6.6,4.7,11.3,4.6,14.1-.8,3.2-1.7,5.5-2.5,7-.1,1.4-.4,6.2-.9,14.7-.4,5.6-1.1,9.6-2.3,12.1-1.6,2.9-5.8,5-12.6,6.5-4,.9-8.8,1.1-14.5.8-1-.2-3.6-.7-7.8-1.8-3.5-.9-5.7-1.3-6.5-1.1-1.9,4.1-3.9,8.2-5.8,12.2-2.8,5.5-5.8,8.6-9.2,9.3-2.2.4-5.3-.2-9.4-2s-6.4-3.5-6.9-4.9c-.5-1.5-.7-3.3-.7-5.6s.5-5.4,1.4-7.9h0ZM388.9,346.5c5.5-1.2,8.3-5.8,8.3-13.7s-.7-8.5-2.2-9.8c-1.4-1.4-5-1.5-10.7-.2-1.2.3-2.7,1.9-4.6,4.8s-2.8,4.8-2.8,5.5c0,10.7,4,15.2,11.9,13.5h.1ZM384.6,309.6c.6.1,2.9-1.3,6.9-4.4v-2c-.7-.2-1.9-.1-3.4.2-3.4.7-5.2,1.9-5.4,3.5-.4,1.6.3,2.5,2,2.6h-.1Z"/>
  <path class="st0" d="M508.9,247.7c.4,1.3.3,2.9-.3,4.8-.5,2-1.4,3.3-2.4,4.1-2.3,1.6-4.2,1.6-5.6,0-.4-.3-.7-1.3-1.1-2.9-.1-.9-1.1-1.5-2.9-1.7-.8,0-1.3.8-1.4,2.2.5,2.6,1,6.9,1.4,12.9-.5,2.7-.8,6.6-1.1,11.6,1.3,3.3,2.8,8.2,4.3,14.8.1,3.8-1.1,11.2-3.8,22.2-2.8,11.3-4.2,19.3-4.2,23.9s.5,6,1.6,8c-.4.7-.5,2.1-.4,4.2.7,3.2,3.1,4.9,7.2,4.9s2-.3,2.7-1.2c.7-.8.9-1.7.5-2.6,0-.2-.5-.8-1.4-1.8-.9-.9-1.4-1.8-1.4-2.7.2-2.3,1.8-4.1,4.7-5.1.8-.4,1.3-.3,1.4.4.1.6.6.8,1.4.4,2.8-1.1,4.2.2,4.2,3.8s0,2.1-.4,3.5c-.2.9-1,1.9-2.3,3.1s-2.1,2-2.3,2.6c-.6,1.5-1.2,3.1-1.9,4.7-.7,1.6-1.8,2.8-3.5,3.4-.7.4-1.6.4-2.5,0-1-.3-1.9-.3-2.7,0-1.9.8-4.5-1-7.6-5.3-1.3-2.7-2.7-5.3-4.2-7.9-2.2-3.2-5.4-4.1-9.6-2.7-.7.3-1.8.2-3.1-.2-1.3-.4-2.4-.4-3.3,0-2.8,1.1-5.8,1-9.2-.3-4.7-2.1-7.3-3-7.8-2.8-1,.4-2.5,0-4.7-1.2s-3.9-2.7-5.1-4.4c-3.6-4.5-5.8-7.6-6.5-9.3-.6-2.9-1.2-5.8-1.8-8.7-1-3.9-1.4-8.4-1.4-13.6s.6-11.8,1.8-21.7c.4-4.3.7-8.5,1.1-12.7,1-4.5,3.6-8.5,7.8-11.9-.2-.8-.4-1.6-.5-2.4-.4-1.6-1.7-2.8-3.9-3.4-2.2-.7-3.3-1.7-3.2-3.2.4-3.7,2.7-6.5,7-8.5,1.6-.7,3.4-1.2,5.4-1.7,6.5-1.3,10.4-.3,11.7,3.2.2.6,0,1.3-.9,2.3-.7.8-1.4,1.6-2.2,2.4-2.1,3.4-2.7,6.6-2,9.6.1.5,2.2,2.7,6.1,6.7,1.1,1.8,2.8,4.6,5.2,8.2.1.9.6,2.3,1.4,4.1.8,1.8,1.2,3.2,1.2,4.3s-.1,1.3-.4,2.1c-.2.8,0,1.9.8,3.5.8,1.5,1.2,2.8,1.4,3.7.1,3.4-.5,6.7-2,10.1-1.1,1.5-2.7,4.5-4.7,8.9-2,6.1-2.8,10.4-2.2,13.1.6,2.2,2.1,4.2,4.6,6,2.4,1.8,5.1,2.4,7.9,1.9,6.5-1.2,11-9.1,13.6-23.7.1-.6-.3-2.5-1.3-5.5-.2-.7-.1-2.2.4-4.6.6-2.9.9-5,.9-6.3,0-2.2-.3-4.6-.8-7.4-.5-3.3-.9-5.8-1-7.6-.2-2.6-.4-5.3-.5-8-.1-2.9.2-5.6.9-8.3.5-1.4,1.4-3.3,2.8-5.8,1.4-2.4,2.1-4.2,2.3-5.3.8-4.7,1.3-7.2,1.4-7.5,1.1-3.1,2.8-4.8,5.2-5.3,2.3-.4,4.7.9,7.2,4,1.9,2.4,3.1,4.3,3.4,5.6h.6Z"/>
  <path class="st0" d="M558.4,194.8c-1.7,1.5-3.6,4-5.8,7.4-.2.9-.4,1.7-.4,2.6,0,2.3,1,5.1,3.1,8.5,2.8,4.6,4.6,8.2,5.4,10.6.6,1.5,1.2,4.8,1.8,9.9.5,4.3,1.1,6.9,1.8,7.8.5.4,2.4,1,5.9,1.9,3.4.8,5.6,1.8,6.6,2.9.6.6.8,1,.7,1.4-.2.4-.5.7-.7,1-.5,2.2-2.1,3.8-4.7,4.8-1.6,0-3.9.5-6.9,1.8-.5.3-1.7,4.6-3.6,12.9-2.2,9.5-4.1,16.4-5.8,20.5-.8,1.4-1.7,2.9-2.5,4.3-1.4,2.2-2.2,4.3-2.3,6.3-.4,6,.3,12.7,2,20.4,2,9.2,4.8,14.9,8.3,17.3,1.9,1.1,5,1.3,9.2.7.5,0,1.1-.4,1.9-1.2.8-.7,1.5-1.1,2.1-1.2,1.8-.2,2.7,1,2.7,3.6s-.5,3.8-1.6,4.8-2.3,2-3.4,3c-1,.9-2.3,1.5-4.2,1.7-3.3.3-7.1-.6-11.7-2.7-4.5-2.1-7.8-4.3-9.8-6.6-4-4.3-6.7-10.3-8.3-18.1-1.1-5.3-1.9-13.9-2.5-25.9,0-2.5-.5-8.7-1.6-18.6-.8-8.1-1.2-14.3-1.1-18.7-.7-.7-2.8-1.8-6.1-3.3-2.7-1.2-4-2.6-4-4.3s.8-3.6,2.5-4.4c2.3-.1,5.1-.8,8.5-2,1.7-1.6,2.3-6.3,1.8-14.2-.2-4.8.5-10,2.2-15.5.4-1.1,2.5-4,6.5-8.5.6-1.2,0-3.6-1.6-7.4-.5-.8-1-1.6-1.5-2.4-.5-.8-.7-1.7-.5-2.6.5-1.4,1.7-2.2,3.6-2.5h4.9c1.7,0,4.1.5,7.2,1.6.7.8,1.3,1.5,2,2.3h-.1Z"/>
  <path class="st0" d="M691.9,270.6c0,3.6-1.1,7.4-3.4,11.5-2.5,4.5-5.2,6.6-8.1,6.3,1.7.2-2.6-1-13-3-4.6-.7-10.8-1.8-18.8-3.1-.5-.1-1.8-.7-3.9-1.8-2.1-1-3.7-1.5-4.8-1.6-3.6,0-5.8,1.3-6.7,4.1,0,2,0,5.1,0,9.2-.2,2-1.1,5.2-2.6,9.5s-2.3,6.8-2.3,7.7c0,2.7,1.4,4.9,4.3,6.7,1.6,1,4.6,2.4,9.2,4.3,1.9,0,4.9.1,8.9.7,1.6.8,3.6,1.6,6.1,2.5,1,0,2,.1,3.1.2.8-.7,1.6-1.5,2.3-2.2,2.4,0,4.6-.8,6.5-2,1.6-1.1,2.4-1.9,2.3-2.5,0-2.3-1.8-5.3-5.2-9.1-.7.8-1.9,3.3-3.6,7.5-1.1,2.7-3.4,3.8-6.9,3.4-1.3-.2-2.5-1.4-3.5-3.8-1-2.3-1.5-4.4-1.5-6.2,0-3.8,2.8-6.8,8.3-8.6,4.6-1.7,8.2-2,10.8-1.2,1.3.1,2.8,1,4.3,2.7,3.6,4,5.4,8,5.4,12.1,0,8.1-4.8,13.3-14.3,16.1-5.9,1.9-12.5,2.6-19.9,2.4-5.5-.2-12.4-2.2-20.6-5.8-2.4-.7-6.4-2-11.9-3.7-2.8-.9-6.1-4.1-10.1-9.5-3.9-5-7-10.4-9.6-16.1-1.9-4.1-2.8-11.5-2.7-22.2v-12.8c.2-2.5,1.1-6.5,2.7-11.7,1.7-3.6,4.9-7.3,9.8-11,4.8-3.7,8.9-6,12.3-6.8,1.4-.4,3.9-1.8,7.3-4.3,3.4-2.5,6-3.9,7.7-4.4,2.5,0,6.1-.2,10.7-.4,1.8-.2,3.6-.6,5.2-1.2,1.7-.6,2.8-.9,3.3-.9,6,.2,13.6,4.1,22.6,11.7,7.7,6.6,12.6,12.1,14.6,16.3,1.3,2.6,2.6,6.5,4,11.7,1.1,4.7,1.6,7.9,1.6,9.6v-.3ZM649.1,251.9c-1.1-.9-2.3-1.5-3.6-1.8s-2.6-.7-3.8-1.1c-2.2-.8-4.3-1.2-6.3-1.2-7.8,0-11.7,2.3-11.7,7s1,3.2,2.9,3.2,5.6-.4,10.4-1c4.8-.6,7.6-.9,8.5-.9s1.8-.4,2.7-1.2,1.4-1.6,1.4-2.3,0-.5-.4-.7h-.1ZM637.9,231.7c.2-.6,1.4-1.1,3.4-1.4,3.6-.5,5.5-.1,5.8,1.1,0,1.1-.4,1.9-1.4,2.3-1.1.4-2.3.6-3.6.4-3.3-.2-4.6-1-4.2-2.4h0ZM666.6,243.1c0-.2.7-.5,1.9-.7,1.1-.2,1.7-.4,1.5-.7-1.9-1.4-4.3-3.2-7.2-5.6-3-3-5.2-4.5-6.5-4.6-1.7,0-2.5.5-2.5,1.9s2.6,3.7,7.8,6.6c2.4,2.9,3.7,4.4,4,4.4.5,0,.8-.4,1.1-1.4h0ZM683.8,262.8c-.4-1.6-1.3-3.3-2.7-5.2-1.4-1.8-2.2-2.9-2.3-3.1-.4-.8-.8-1.3-1.4-1.8-.5-.4-.8-.7-.8-.8,0-.2,0-.5.4-.7-1.4-.1-2.9-.3-4.3-.4-1,1.6-1.4,2.5-1.4,2.6.8,1,2.1,2.8,3.8,5.4,0,1.6.7,3.6,1.6,6.1,1.1,1.3,2.2,1.8,3.3,1.4,3-.8,4.3-1.9,4-3.5h-.2Z"/>
</svg>