<?xml version="1.0" encoding="UTF-8"?>
<svg id="Layer_1" xmlns="http://www.w3.org/2000/svg" version="1.1" viewBox="0 0 800 288">
  <!-- Generator: Adobe Illustrator 29.6.0, SVG Export Plug-In . SVG Version: 2.1.1 Build 207)  -->
  <defs>
    <style>
      .st0 {
        fill: #fff;
      }
    </style>
  </defs>
  <path class="st0" d="M43.3,124.8l-14.5,23.5v15.3c0,1.9.8,2.8,2.6,3.6v.8c-2-.1-5-.1-7-.1s-4.1,0-6,.1v-.8c1.7-.6,2.7-1.5,2.7-3.5v-14.8l-13.5-23.6c-1.7-2.9-2.8-4.4-4.5-5.3v-.6c1.6,0,4.7.1,6.1.1s5.5,0,7.2-.1l.2.6c-.8.3-1.3,1-1.3,1.7s.4,1.9,1.8,4.6l9.4,16.9,10.2-17.2c1.5-2.6,1.9-3.7,1.9-4.5s-.4-1-1.2-1.4l.3-.6c1.3,0,4.1.1,5.2.1s3.7,0,5-.1v.6c-1.6.7-3.1,2.4-4.5,4.7h-.1Z"/>
  <path class="st0" d="M72.5,168.7c-13.1,0-24-9.4-24-24.1s11.3-25.7,24.3-25.7,24,9.4,24,24.1-11.3,25.7-24.3,25.7ZM72.4,123.7c-9.6,0-15.8,8.6-15.8,20.3s7,19.8,16.3,19.8,15.8-8.6,15.8-20.3-7-19.8-16.3-19.8Z"/>
  <path class="st0" d="M141.6,124.4v25.5c0,12-7.3,18.5-17.9,18.5s-17.4-6-17.4-16.9v-25c0-3.3-.5-5.3-2.1-6.3v-.7c2.1.1,3.6.2,5.6.2s4.2,0,5.8-.1l.2.6c-1.4,1.2-1.8,2.5-1.8,5.7v25.1c0,8.2,3.9,12.7,10.7,12.7s11.6-5.1,11.6-13.2v-25.5c0-2.5-.7-3.8-2.3-4.7v-.6c1.1,0,3.3.1,4.3.1s4.5,0,5.4-.1v.5c-1.4.9-2.1,2.4-2.1,4.4v-.2Z"/>
  <path class="st0" d="M152.3,140.1l-1-1.4c2.6-2.8,3.8-4.8,3.8-7.1s-.9-3.9-3.5-6.9l5.5-5.7c3.3,2.7,4.5,4.8,4.5,7.9s-2.6,7.8-9.2,13.2h-.1Z"/>
  <path class="st0" d="M208.5,125l-18.4,44.1h-1.7l-18.1-43.7c-1.1-2.8-2.1-4.4-3.8-5.3v-.6c1.8,0,3.9.1,5.7.1s5.5,0,7.4-.1l.2.6c-1,.5-1.6,1.5-1.6,2.4s.4,2.6,1.1,4.3l11.3,29.2,11.8-30.1c.7-1.8.9-2.8.9-3.6s-.6-1.7-1.7-2.1l.2-.6c1.4,0,4.3.1,5.8.1s3.3,0,4.3-.1l.2.6c-1.5.8-2.5,2.1-3.6,4.9h0Z"/>
  <path class="st0" d="M247,168c-5.2-.1-7.6-.1-12.8-.1s-10.6,0-16.9.2l-.3-.6c1.4-1,2-2.4,2-5v-38c0-2.4-.4-3.7-2.1-4.5l.2-.7c6.2.3,8.4.3,14.6.3s11,0,16.7-.3c-.6,1.2-2.3,5-2.7,6.4-.7-.8-2.1-1.2-6.2-1.2h-12.8v13.5h4.7c4.6,0,7.2-.1,8.6-1l.4.3c-.7.9-2.3,5-2.8,6.4-1.1-.7-3.5-.8-6.9-.8h-4v20.1h11.2c8.2,0,10.6-1.5,13.1-4.2l.6.5c-1.6,2.1-3.8,6.8-4.5,8.8h-.1Z"/>
  <path class="st0" d="M314,159c-1.8,2.4-4,7.3-4.8,9.1h-28.7v-.5c.9-.8,1.8-2.6,1.8-4.6v-38.4c0-2.7-.5-3.7-2.1-4.4l.3-.8c1.1.1,3.5.1,5,.1s5.2,0,6.3-.1l.2.8c-1.5.8-2.1,1.9-2.1,3.9v38.7h12.6c6.2,0,7.9-1.3,10.8-4.4l.6.6h.1Z"/>
  <path class="st0" d="M339.5,168.7c-13.1,0-24-9.4-24-24.1s11.3-25.7,24.3-25.7,24,9.4,24,24.1-11.3,25.7-24.3,25.7ZM339.4,123.7c-9.6,0-15.8,8.6-15.8,20.3s7,19.8,16.3,19.8,15.8-8.6,15.8-20.3-7-19.8-16.3-19.8Z"/>
  <path class="st0" d="M386.2,168.4c-6.5,0-10.8-1.2-15.2-3.4l-.4-9.9,1-.2c2.7,5.4,7.6,8.6,15.6,8.6s10.8-2.9,10.8-8.2-2.5-7.2-10.9-9.3c-11-2.8-14.3-6.4-14.3-13.6s6-13.1,16-13.1,9.6.8,13.5,2.4l-.6,7.6h-.9c-2.5-3-6.5-5.1-13.2-5.1s-7.7,2.9-7.7,5.7,1.3,5.6,10.8,8c10.8,2.8,14.5,7.1,14.5,14.8s-8.3,15.8-18.8,15.8h-.2Z"/>
  <path class="st0" d="M445.5,126.3h-.6c-.4-1-1.1-2-5-2h-7.7v37.9c0,2.8.6,4.1,2.9,5v.8c-1.6-.1-4.8-.1-6.4-.1s-4.9,0-6.3.1v-.8c1.5-.8,2.2-2.1,2.2-4.6v-38.3h-6c-5.2,0-6.9.8-8.5,2.1l-.5-.4,2-6.6c6.6,0,10.4.1,17,.1s11.7,0,19-.1l-2,6.8h-.1Z"/>
  <path class="st0" d="M513.8,164.2c-4,2.5-9.1,4.2-14.8,4.2-12.1,0-22.5-8.2-22.5-23.9s10.9-25.3,23-25.3,10.1,1.6,13.6,3.9c0,1.9.3,6.5.5,8.3l-.8.3c-3.4-5-8.6-7.7-13.8-7.7-8.7,0-14.5,8.1-14.5,19.8s6.6,19.7,15.2,19.7,10.1-2.2,13.8-8l.8.3c-.3,1.8-.5,6.4-.5,8.3h0Z"/>
  <path class="st0" d="M544.9,168.7c-13.1,0-24-9.4-24-24.1s11.3-25.7,24.3-25.7,24,9.4,24,24.1-11.3,25.7-24.3,25.7ZM544.9,123.7c-9.6,0-15.8,8.6-15.8,20.3s7,19.8,16.3,19.8,15.8-8.6,15.8-20.3-7-19.8-16.3-19.8Z"/>
  <path class="st0" d="M613.5,124.4v43.8h-1.3c-1.2-2.1-3.5-5.3-6.7-9.5l-21.2-28.6v31.9c0,3,.9,4.4,3.1,5.5l-.2.6c-1.2,0-3.7-.1-5.1-.1s-3.5,0-4.8.1l-.2-.7c1.1-.7,2-1.9,2-3.9v-38.2c0-2.4-1.1-4.4-2.6-5l.2-.6c.9.1,2.6.1,4.3.1s4,0,5.7-.1c.5,1.2,2.2,4,5.8,8.9l15.8,21.4v-25.5c0-2.4-.8-3.5-2.2-4.1l.2-.6c1.4.1,3.8.1,5.2.1s3,0,4.1-.1l.2.6c-1.6.9-2.3,2-2.3,4.3v-.3Z"/>
  <path class="st0" d="M656.9,126.3h-.6c-.4-1-1.1-2-5-2h-7.7v37.9c0,2.8.6,4.1,2.9,5v.8c-1.6-.1-4.8-.1-6.4-.1s-4.9,0-6.3.1v-.8c1.5-.8,2.2-2.1,2.2-4.6v-38.3h-6c-5.2,0-6.9.8-8.5,2.1l-.5-.4,2-6.6c6.6,0,10.4.1,17,.1s11.7,0,19-.1l-2,6.8h-.1Z"/>
  <path class="st0" d="M703.7,168.3c-9.7,0-17.9-8.2-24.3-23h-5.1v17.1c0,2.8.8,4,2.7,4.9l-.3.8c-2-.2-4.6-.1-6.3-.1s-3.8,0-5.6.1l-.3-.6c1.5-.8,2.1-2.2,2.1-4.5v-38.4c0-1.5-.5-3.3-2.3-4.4l.2-.6c3.1.1,5.5.1,8.7.1h11.9c8.7,0,15,4.4,15,12s-5,11.6-12.2,13.1c3.1,8.4,10.4,21.6,16,22.5l-.2,1h0ZM682.1,124.3c-2.8,0-4.1,0-7.8.1v16.1h6.7c6.4,0,11.1-2.6,11.1-8.5s-3.8-7.8-10-7.8h0Z"/>
  <path class="st0" d="M730.9,168.7c-13.1,0-24-9.4-24-24.1s11.3-25.7,24.3-25.7,24,9.4,24,24.1-11.3,25.7-24.3,25.7ZM730.8,123.7c-9.6,0-15.8,8.6-15.8,20.3s7,19.8,16.3,19.8,15.8-8.6,15.8-20.3-7-19.8-16.3-19.8Z"/>
  <path class="st0" d="M796.8,159c-1.8,2.4-4,7.3-4.8,9.1h-28.7v-.5c.9-.8,1.8-2.6,1.8-4.6v-38.4c0-2.7-.5-3.7-2.1-4.4l.3-.8c1.1.1,3.5.1,5,.1s5.2,0,6.3-.1l.2.8c-1.5.8-2.1,1.9-2.1,3.9v38.7h12.6c6.2,0,7.9-1.3,10.8-4.4l.6.6h.1Z"/>
</svg>