<?xml version="1.0" encoding="UTF-8"?>
<svg id="outlines" xmlns="http://www.w3.org/2000/svg" version="1.1" viewBox="0 0 792 160">
  <!-- Generator: Adobe Illustrator 30.0.0, SVG Export Plug-In . SVG Version: 2.1.1 Build 123)  -->
  <defs>
    <style>
      .st0 {
        fill: #fff;
      }
    </style>
  </defs>
  <g>
    <path class="st0" d="M76.6,7.2h35.1v2.5h-11.9v19.8h-11.3V9.7h-11.9v-2.5Z"/>
    <path class="st0" d="M140.1,19.3h-14v10.2h-11.3V7.2h11.3v9.6h14V7.2h11.3v22.3h-11.3v-10.2Z"/>
    <path class="st0" d="M156.7,7.2h30.1v2.5h-18.7v7.2h16.5v2.5h-16.5v7.7h18.7v2.5h-30.1V7.2Z"/>
    <path class="st0" d="M201.6,7.2h30.1v2.5h-18.7v7.2h16.5v2.5h-16.5v7.7h18.7v2.5h-30.1V7.2Z"/>
    <path class="st0" d="M238.7,15.2v14.3h-2.9V7.2h9.5l20,13.4V7.2h2.9v22.3h-8.2l-21.4-14.3Z"/>
    <path class="st0" d="M272.5,18.3c0-7.9,6.6-11.4,20.3-11.4s9.5.4,13.7,1v2.2c-4.1-.3-8.7-.6-12.8-.6-6.8,0-9.5,2-9.5,8.8s2.7,8.8,9.5,8.8,2.4,0,3.6,0v-7.7h-5.2v-2.5h15.8v12c-4.7.7-9.7,1-14.4,1-11.3,0-21-2.1-21-11.4Z"/>
    <path class="st0" d="M312.9,7.2h11.3v19.8h17.3v2.5h-28.6V7.2Z"/>
    <path class="st0" d="M344.8,7.2h11.3v22.3h-11.3V7.2Z"/>
    <path class="st0" d="M360.5,28.8v-2.2c4.4.3,9.4.6,13.7.6,7.7,0,9.3-.7,9.3-2.4s-.3-1.1-1.1-1.4c-1.2-.5-3.2-.6-8.2-.9-6-.3-8.5-.8-10.4-1.9-1.9-1.1-3.2-2.6-3.2-5.4,0-6.4,5.5-8.2,17.2-8.2s9.5.4,13.6,1v2.2c-3.9-.3-8.2-.6-12.1-.6-7.2,0-8.5.7-8.5,2.4s.2,1,.8,1.3c1.1.6,2.7.7,7.8.9,6.3.3,8.9.8,11.1,1.9,2.3,1.1,3.2,2.8,3.2,5.4,0,6.4-5.9,8.4-18,8.4s-10.6-.5-15.2-1Z"/>
    <path class="st0" d="M423.4,19.3h-14v10.2h-11.3V7.2h11.3v9.6h14V7.2h11.3v22.3h-11.3v-10.2Z"/>
    <path class="st0" d="M449.8,18.3c0-8.6,7.8-11.5,20.7-11.5s7.9.4,11.5,1v2.2c-3.5-.4-7.1-.6-10.6-.6-6.8,0-9.9,1.9-9.9,8.8s3.1,8.9,9.9,8.9c3.5,0,7.1-.2,10.6-.6v2.2c-3.6.6-7.2,1-11.5,1-12.7,0-20.7-2.8-20.7-11.4Z"/>
    <path class="st0" d="M511.4,19.3h-14v10.2h-11.3V7.2h11.3v9.6h14V7.2h11.3v22.3h-11.3v-10.2Z"/>
    <path class="st0" d="M539.7,7.2h9.7l14.7,22.3h-12.4l-3.5-5.3h-16.3l-3.3,5.3h-3l14.1-22.3ZM533.5,21.7h13.1l-6.7-10.1-6.4,10.1Z"/>
    <path class="st0" d="M569.7,15.2v14.3h-2.9V7.2h9.5l20,13.4V7.2h2.9v22.3h-8.2l-21.4-14.3Z"/>
    <path class="st0" d="M607.4,15.2v14.3h-2.9V7.2h9.5l20,13.4V7.2h2.9v22.3h-8.2l-21.4-14.3Z"/>
    <path class="st0" d="M642.2,7.2h30.1v2.5h-18.7v7.2h16.5v2.5h-16.5v7.7h18.7v2.5h-30.1V7.2Z"/>
    <path class="st0" d="M676.3,7.2h11.3v19.8h17.3v2.5h-28.6V7.2Z"/>
    <path class="st0" d="M707.1,28.8v-2.2c4.4.3,9.4.6,13.7.6,7.7,0,9.3-.7,9.3-2.4s-.3-1.1-1.1-1.4c-1.2-.5-3.2-.6-8.2-.9-6-.3-8.5-.8-10.4-1.9-1.9-1.1-3.2-2.6-3.2-5.4,0-6.4,5.5-8.2,17.2-8.2s9.5.4,13.6,1v2.2c-3.9-.3-8.2-.6-12.1-.6-7.2,0-8.5.7-8.5,2.4s.2,1,.8,1.3c1.1.6,2.7.7,7.8.9,6.3.3,8.9.8,11.1,1.9,2.3,1.1,3.2,2.8,3.2,5.4,0,6.4-5.9,8.4-18,8.4s-10.6-.5-15.2-1Z"/>
  </g>
  <g>
    <path class="st0" d="M52.2,115.9c0,.4,0,.9-.5,1.3-.4.6-.7,1.1-.8,1.4,0,0-.1,1-.4,2.9-.2,1.4-.5,2.4-1.1,3.2-.6.5-1.6,1.4-3.1,2.8-.2.6-.6,1.3-1.1,2.1-.4.3-.8.4-1.5.3-.6,0-1.5-.3-2.7-.8-1.2-.5-1.9-.7-2.2-.7-1,.2-1.9.5-2.9.7-1.9,0-4.8-1.6-8.5-4.8-3.7-3.2-6.1-6.1-7.1-8.7-.6-1.3-1-3-1.2-5.2,0-.9,0-4.8.3-11.5.4-7.8.8-13.7,1.3-17.8.3-2.9.6-5.7.9-8.5.5-3.4,1.3-5.9,2.4-7.5.2-.3,1-.9,2.4-1.7,1.4-.8,2.3-1.5,2.8-2.2.2-.3.4-1.3.4-2.8,0-1.5.3-2.6.9-3.1.4-.3.8-.4,1.2-.3.6,0,1.2.4,1.8,1.1.6.7.9,1.4,1,2.3,0,.4-.4,1.4-1.3,2.9-.9,1.5-1.4,2.5-1.3,2.9,0,.5.7,1.7,2.1,3.6,1.4,1.9,2.1,3.1,2.1,3.5,0,.3,0,.6-.5.7-.4.2-.6.4-.6.6,0,0,.1.3.3.8.2.5.3.9.3,1.4,0,.6-.3,1.8-1,3.7-.7,1.8-1.1,3.2-1.2,4.1,1,1.1,3,2,5.8,2.8,3.9,1.1,6.1,1.8,6.5,1.9.8.3,1.6.5,2.5.8.9.3,1.3.7,1.2,1.2-.2.6-1.2,1.1-2.7,1.4-2,.4-3.1.6-3.5.8-3.5,2-7.6,4.1-12.4,6.1-.4.1-.8,2.6-1,7.5-.2,4.4-.3,7.3-.2,8.5.3,3.3,1.2,5.7,2.6,7.2,1.4,1.5,3.6,2.3,6.4,2.5,1.3.4,3.1.7,5.5,1.1.5,0,.8-.2,1-.5.2-.3.5-.5,1-.5.5,0,.9-.3,1.3-.9.4-.6.7-1,1-1.1,0-.9-.1-1.3-.2-1.4,0,0-.5-.6-1.5-1.5-2.4.8-3.9,1.2-4.6,1.1-.5,0-.9-.2-1.3-.3-1-.5-1.5-1.2-1.5-2.1,0-.2,0-.4.2-.6,2.3-3,4.9-4.5,7.8-4.5.7,0,1.7.6,3,1.7,1.3,1.1,1.9,1.9,1.9,2.4Z"/>
    <path class="st0" d="M96.6,109.3c0,.2-.2,1-.7,2.2-.5,1.2-.7,2.1-.7,2.6,0,.8-.5,1.8-1.6,2.7-1.5,1.4-2.3,2.3-2.5,2.5-.9,1.9-2.4,4.9-4.5,8.9-1.6,2.2-3.8,5.7-6.5,10.5.1.6,0,1.4-.2,2.4-1.8,2.8-2.6,4.5-2.6,5.2,0,2.2.2,3.3.7,3.3.3,0,.9.2,1.8.6.9.4,1.6.6,2.2.6.7,0,1.5-.4,2.4-1.3.9-.9,1.3-1.6,1.3-2.2,0-.3-.3-.8-1-1.6-.7-.7-1-1.4-.8-1.9.4-1.5,1.3-2.3,2.5-2.2,1.5,0,2.5.3,2.9.6.4.3.6,1.2.6,2.5,0,2.8-1.1,5-3.3,6.4-2.2,1.4-4.8,2-7.7,1.7-.8-.1-1.8-.8-3.2-2.1-1.3-1.3-2-2.2-2-2.8,0-.7.3-2,1-3.9.3-.9.8-2.1,1.4-3.7.3-.6.5-1.5.6-2.8.1-1.3.2-2.1.4-2.4.4-1.4,1.3-3.8,2.8-7.2.6-.4,1.3-1.1,2-1.9.2-.7,1-2,2.1-3.9,1.1-1.6,1.6-2.5,1.6-2.9v-.4c.9-1.3,1.3-2.6,1.3-3.8,0-.8.4-1.9,1.1-3.3.7-1.4,1.1-2.3,1.1-2.6,0-2.1-.9-3.6-2.8-4.4-1.1-.4-3-.7-5.8-.9-1.6-.1-3.5.4-5.5,1.5-.2.1-.4.6-.6,1.5-.2.9-.6,1.5-1,1.8-1.1.7-1.8,1.5-2.3,2.3-.2.5-.5,1-.6,1.5-1.4,2.5-2.2,5.6-2.5,9.2-.2,2-.8,3.6-1.7,4.9-1.3,1.7-2.5,2.5-3.6,2.4-1.2,0-2.3-1.3-3.4-3.5-.9-1.8-1.4-3.5-1.5-5-.5-5.7-.8-9.1-.8-10.1,0-4.4,1-10.4,3.1-18,.2-.9.9-2.2,1.9-3.7,1.1-1.8,1.8-3,2.1-3.6.4-1.9,1.2-4.8,2.4-8.7.1-.4,0-1.9-.5-4.5-.2-1.1.3-2.6,1.5-4.6,1.1-2,1.7-3.6,1.7-4.9,0-.7-.1-1.4-.4-2.1,0-.2,0-.7.2-1.4.2-.7.6-1,1.2-.8,1.5.5,2.4,2.1,2.7,4.7.2,2,.3,4.1.5,6.1.2.3.4.5.5.9.3.6.4,1.6.4,3-.3,1.4-.6,3.9-.9,7.6,0,.7.3,1.8.8,3.3.5,1.5.8,2.4.8,2.8,0,.9,0,1.8,0,2.7.2,1.3.9,2.1,2.2,2.2.4,0,1.3,0,2.8-.3,1.4-.2,2.3-.3,2.8-.3,1.5,0,3.2.6,5.3,1.6,2.4,1.2,3.8,2.4,4.5,3.8.8,1.8,1.8,4.3,2.8,7.4,1,3.1,1.5,5,1.5,5.6Z"/>
    <path class="st0" d="M154.9,100.6c0,1.8-.6,3.8-1.7,6-1.3,2.4-2.6,3.6-4.1,3.6.8,0-1.3-.3-6.5-1-2.3-.2-5.5-.6-9.4-1.2-.2,0-.9-.4-2-.9-1.1-.5-1.9-.8-2.4-.8-1.8,0-2.9.6-3.4,2,0,1,0,2.6,0,4.6-.1,1-.6,2.6-1.3,4.7-.8,2.1-1.1,3.4-1.1,3.8,0,1.3.7,2.5,2.2,3.4.8.5,2.3,1.3,4.6,2.2,1,0,2.5,0,4.5.3.8.4,1.8.8,3.1,1.2.5,0,1,0,1.5,0,.4-.4.8-.8,1.2-1.2,1.2,0,2.3-.5,3.3-1.2.8-.6,1.2-1,1.2-1.3,0-1.1-.9-2.6-2.6-4.4-.4.4-1,1.7-1.8,3.9-.5,1.4-1.7,2-3.5,1.8-.7,0-1.3-.7-1.8-1.9-.5-1.2-.8-2.2-.8-3.1,0-1.9,1.4-3.4,4.2-4.4,2.3-.9,4.1-1.2,5.5-.9.7,0,1.4.4,2.2,1.2,1.8,1.9,2.7,3.8,2.7,5.9,0,4.1-2.4,6.9-7.2,8.6-3,1.1-6.3,1.6-10,1.5-2.8,0-6.2-1.1-10.4-3.2-1.2-.4-3.2-1.1-6-2.2-1.4-.5-3.1-2.3-5.1-5.2-1.9-2.7-3.5-5.5-4.8-8.6-1-2.2-1.4-5.9-1.4-11.3v-6.5c.1-1.3.6-3.2,1.4-5.7.8-1.7,2.5-3.4,4.9-5,2.4-1.6,4.5-2.6,6.2-2.9.7-.2,2-.8,3.7-1.9,1.7-1.1,3-1.8,3.9-2,1.3,0,3.1,0,5.4-.1.9,0,1.8-.3,2.6-.6.8-.3,1.4-.5,1.6-.5,3,0,6.8,1.9,11.4,5.4,3.9,3,6.3,5.6,7.4,7.6.7,1.2,1.3,3.1,2,5.7.5,2.3.8,3.9.8,4.7ZM133.4,92.5c-.5-.4-1.2-.7-1.8-.9-.7-.2-1.3-.4-1.9-.6-1.1-.4-2.2-.6-3.2-.6-3.9-.1-5.9,1-5.9,3.3,0,1.1.5,1.7,1.5,1.7,1.1,0,2.8,0,5.2-.4,2.4-.3,3.8-.4,4.3-.4.5,0,.9-.2,1.4-.6.5-.4.7-.8.7-1.2,0-.1,0-.2-.2-.4ZM127.8,82.4c.1-.3.7-.5,1.7-.7,1.8-.2,2.8,0,2.9.5,0,.5-.2.9-.7,1.2-.5.2-1.2.3-1.8.2-1.6-.1-2.3-.5-2.1-1.2ZM142.2,87.8c0-.1.4-.2,1-.4.6-.1.8-.3.8-.4-1-.6-2.2-1.5-3.6-2.6-1.5-1.4-2.6-2.2-3.3-2.2-.8,0-1.3.3-1.3,1,0,.8,1.3,1.9,3.9,3.2,1.2,1.4,1.9,2.1,2,2.1.2,0,.4-.2.5-.7ZM150.8,97.1c-.2-.8-.6-1.6-1.4-2.5-.7-.9-1.1-1.4-1.2-1.5-.2-.4-.4-.6-.7-.8-.3-.2-.4-.3-.4-.4,0-.1,0-.2.2-.4-.7,0-1.5,0-2.2,0-.5.8-.7,1.3-.7,1.3.4.5,1.1,1.4,1.9,2.6,0,.8.3,1.8.8,3,.5.6,1.1.8,1.6.6,1.5-.5,2.2-1.2,2-2Z"/>
    <path class="st0" d="M262.5,84.9c0,1-.3,1.9-.8,2.8-.6,1.1-1.5,1.7-2.6,1.7-.2,0-.6-.2-1.2-.5-.8-.5-1.4-.7-1.8-.8-2.1-.7-4-1.1-5.8-1.1-1,0-2.2.3-3.4.7-1.6.6-2.8,1-3.7,1.1-.5,0-1.2.9-2.3,2.3,0,2.1,0,4.1,0,6.2-.1,2.4-.5,4.4-1,6.1-.4,1.2-1.5,3.1-3.1,5.8-1.4,2.3-2.1,3.8-2.1,4.4,0,1.3.8,3.3,2.3,5.9,1.7,3,3.3,4.4,4.8,4.4.4,0,.7.1,1,.4.3.3.8.4,1.5.5,1.3.2,3.3.3,6.1.2.5,0,1.5-.5,3-1.4,1.5-.9,2.6-1.4,3.5-1.6,1.6-.2,2.4.9,2.4,3.4,0,.8-.4,1.5-1.1,2.1-.7.6-1.5,1.2-2.3,1.7-.4.6-1,1.4-2,2.4-.6.4-1.6.5-3.1.5-2.6,0-3.6-.2-3.1-.2-.2,0-.8,0-1.9.2-1.1.1-1.9.2-2.5.2-.9,0-1.6-.1-2.2-.3-1.2-.8-3-1.7-5.5-2.8-6.4-2-11.8-5.6-16.4-10.9-.6-.7-1.1-1.9-1.5-3.7-.4-2.3-.8-3.8-1.1-4.5,0-.2-.7-1.4-1.9-3.5-.8-1.6-1.3-2.7-1.3-3.3,0-.4.5-1.5,1.5-3.4,1-1.8,1.6-3.2,1.7-4.3.8-6.5,4.8-11.4,11.8-14.8,5.1-2.4,11.1-3.8,17.7-4,10.9-.4,16.4,2.3,16.4,8Z"/>
    <path class="st0" d="M308.1,81.8c.2.7.1,1.5-.1,2.4-.3,1-.7,1.6-1.2,1.9-1.2.7-2.1.6-2.8-.3-.2-.2-.4-.7-.5-1.5,0-.5-.5-.8-1.5-1-.4,0-.7.3-.7,1,.2,1.3.5,3.5.7,6.6-.2,1.3-.4,3.3-.5,5.8.7,1.7,1.4,4.3,2.2,7.7,0,1.9-.6,5.6-1.9,10.9-1.4,5.5-2.1,9.4-2.1,11.7,0,1.7.3,3.1.8,4.1-.2.3-.2,1-.2,2.1.4,1.7,1.6,2.6,3.6,2.9.5,0,1,0,1.4-.4.4-.4.5-.8.3-1.3,0-.1-.2-.4-.7-1-.5-.5-.7-1-.7-1.4.1-1.2.9-1.9,2.4-2.3.4-.1.7,0,.7.3,0,.3.3.4.7.3,1.4-.4,2.1.3,2.1,2.2,0,.5,0,1.1-.2,1.7-.1.4-.5.9-1.2,1.4-.7.5-1.1.9-1.2,1.2-.3.7-.6,1.5-1,2.3-.3.8-.9,1.3-1.8,1.5-.4.1-.8,0-1.3-.1-.5-.2-.9-.3-1.4-.2-1,.3-2.2-.8-3.8-3.2-.7-1.4-1.4-2.8-2.1-4.3-1.1-1.8-2.7-2.4-4.8-2-.4,0-.9,0-1.5-.3-.7-.3-1.2-.4-1.6-.2-1.4.4-2.9,0-4.6-.9-2.4-1.4-3.7-2.1-3.9-2-.5.1-1.3-.2-2.4-1-1.1-.8-1.9-1.7-2.5-2.6-1.8-2.6-2.9-4.3-3.3-5.2-.3-1.5-.6-3-.9-4.5-.5-2-.7-4.4-.7-7,0-2.3.3-5.9.9-10.8.2-2.1.4-4.2.5-6.3.5-2.2,1.8-4,3.9-5.3,0-.4-.2-.8-.3-1.3-.2-.8-.8-1.5-2-2.1-1.1-.5-1.7-1.2-1.6-1.9.2-1.8,1.4-3.1,3.5-3.7.8-.2,1.7-.3,2.7-.4,3.3-.1,5.2.7,5.9,2.6.1.3,0,.7-.5,1.1-.4.3-.7.7-1.1,1-1,1.6-1.4,3.1-1,4.7,0,.2,1.1,1.5,3.1,3.9.5,1,1.4,2.5,2.6,4.5,0,.5.3,1.2.7,2.1.4,1,.6,1.7.6,2.2,0,.3,0,.6-.2,1-.1.4,0,1,.4,1.8.4.8.6,1.5.7,2,0,1.7-.3,3.3-1,5-.5.7-1.3,2.1-2.4,4.1-1,2.9-1.4,5-1.1,6.4.3,1.1,1.1,2.3,2.3,3.3,1.2,1.1,2.5,1.6,4,1.5,3.3-.2,5.5-3.8,6.8-11,0-.3-.2-1.3-.6-2.9-.1-.4,0-1.1.2-2.3.3-1.4.5-2.4.5-3.1,0-1.1-.1-2.4-.4-3.8-.3-1.7-.4-3-.5-3.9,0-1.3-.2-2.7-.3-4.1,0-1.5,0-2.8.5-4.1.2-.7.7-1.6,1.4-2.7.7-1.1,1.1-2,1.1-2.5.4-2.3.7-3.5.7-3.7.5-1.5,1.4-2.2,2.6-2.3,1.1,0,2.4.8,3.6,2.5,1,1.3,1.5,2.3,1.7,3Z"/>
    <path class="st0" d="M359.6,96.1c-.4,2.9-1.7,5-3.7,6.3-1.4.9-2.9,1.6-4.5,2-1.6.3-2.7,0-3.4-1.3-.3-.6-.3-1.3,0-2.2.4-.9.8-1.4,1.5-1.4.4,0,1,.6,1.7,2,1.5-.4,2.7-1,3.6-1.8.3-.2.3-.7,0-1.4-1-.9-1.8-2.5-2.4-4.9-.4-1.5-1.5-2.2-3.2-2.1-1.8.1-3.2.4-4.1,1-.5.3-1,.9-1.5,1.6-.5.8-.9,1.2-1.2,1.3-.9.5-1.8,1-2.8,1.5-1.3.8-2.2,1.7-2.6,2.6-.4.9-.9,3.4-1.5,7.3-.5,4-1.4,7.1-2.5,9.4-.2.4-.6.9-1.3,1.3-.8.6-1.4,1-1.6,1.4-.9,1.4-2.3,3.4-4.1,6.1.4.5.8,1.4,1.3,2.7,0,1-.6,1.9-1.8,2.7-1.2.8-2.3,1.3-3.5,1.3-1.2,0-1.8-.7-1.8-2.3,0-.4.4-1.1,1.3-2.1.9-1,1.3-1.8,1.3-2.3,0-.4-.2-.9-.6-1.4-.4-.5-.7-.9-.8-1.1-.7-1.3-1.2-3.2-1.7-5.7-.4-2.1-.5-3.6-.5-4.6,0-5.1.2-10.9.5-17.4,0-1.5.5-3.2,1.3-5.2,1.1-2.8,1.8-4.6,1.9-5.2.4-.4.7-.7,1.1-1.1-.3-.2-.6-.5-.9-.7-2.1,1.5-3.8,2.3-5.3,2.4-.7,0-1.3-.2-2-.7-.6-.5-1-1.1-1-1.8,0-6,3.1-9.2,9.4-9.5,1.2,0,1.9.6,2.4,2,.4,1.4.8,2.7,1.2,4.1.7,1.4,2,2.1,3.8,2,.4,0,1.8-.4,4.1-1.3,2.3-.8,3.7-1.3,4.1-1.3.4,0,1,.1,1.8.4.8.3,1.3.4,1.6.4.5,0,1-.1,1.5-.3.5-.2,1-.3,1.4-.3,2.7-.2,5.3.4,8,1.7,3,1.5,4.5,3.4,4.4,5.7,0,1.1,0,2.3-.2,3.6-.1,1.1-.2,1.8-.2,2.2,0,1.1.5,2.4,1.4,4Z"/>
    <path class="st0" d="M418.2,90.6c0,1.8-.6,3.8-1.7,6.1-1.3,2.5-2.6,3.8-4.1,3.9.8,0-1.3-.2-6.5-.5-2.3,0-5.5-.2-9.4-.4-.2,0-.9-.3-2-.7-1.1-.4-1.9-.6-2.4-.6-1.8.1-2.9.9-3.4,2.3,0,1,0,2.6,0,4.6-.1,1-.6,2.7-1.3,4.9-.8,2.2-1.1,3.5-1.1,3.9,0,1.3.7,2.4,2.2,3.2.8.4,2.3,1,4.6,1.8,1-.1,2.5-.1,4.5,0,.8.3,1.8.6,3.1.9.5,0,1,0,1.5,0,.4-.4.8-.8,1.2-1.3,1.2-.2,2.3-.7,3.3-1.5.8-.7,1.2-1.1,1.2-1.4,0-1.1-.9-2.6-2.6-4.2-.4.4-1,1.8-1.8,4-.5,1.4-1.7,2.1-3.5,2.1-.7,0-1.3-.6-1.8-1.7-.5-1.1-.8-2.1-.8-3,0-1.9,1.4-3.5,4.2-4.8,2.3-1.1,4.1-1.6,5.5-1.3.7,0,1.4.3,2.2,1.1,1.8,1.7,2.7,3.6,2.7,5.7,0,4.1-2.4,7.1-7.2,9.2-3,1.3-6.3,2.1-10,2.3-2.8.2-6.2-.6-10.4-2.2-1.2-.3-3.2-.8-6-1.6-1.4-.4-3.1-2-5.1-4.7-1.9-2.5-3.5-5.2-4.8-8.1-1-2.1-1.4-5.8-1.4-11.2v-6.5c.1-1.3.6-3.2,1.4-5.9.8-1.8,2.5-3.7,4.9-5.6,2.4-1.9,4.5-3.1,6.2-3.6.7-.2,2-1,3.7-2.3,1.7-1.3,3-2.1,3.9-2.4,1.3,0,3.1-.3,5.4-.6.9-.2,1.8-.5,2.6-.8.8-.4,1.4-.6,1.6-.6,3-.2,6.8,1.3,11.4,4.5,3.9,2.7,6.3,5.1,7.4,7,.7,1.2,1.3,3,2,5.5.5,2.3.8,3.8.8,4.7ZM396.7,84.3c-.5-.4-1.2-.6-1.8-.8-.7-.1-1.3-.2-1.9-.4-1.1-.3-2.2-.4-3.2-.4-3.9.2-5.9,1.5-5.9,3.9,0,1.1.5,1.6,1.5,1.5,1.1,0,2.8-.4,5.2-.9,2.4-.5,3.8-.8,4.3-.8.5,0,.9-.3,1.4-.7.5-.5.7-.9.7-1.2,0-.1,0-.2-.2-.4ZM391,74.6c.1-.3.7-.6,1.7-.8,1.8-.4,2.8-.3,2.9.3,0,.5-.2,1-.7,1.2-.5.3-1.2.4-1.8.4-1.6,0-2.3-.3-2.1-1.1ZM405.5,78.8c0-.1.4-.3,1-.5.6-.2.8-.3.8-.5-1-.5-2.2-1.3-3.6-2.3-1.5-1.3-2.6-1.9-3.3-1.9-.8,0-1.3.4-1.3,1.1,0,.8,1.3,1.7,3.9,2.9,1.2,1.3,1.9,2,2,2,.2,0,.4-.3.5-.8ZM414.1,87.4c-.2-.8-.6-1.6-1.4-2.4-.7-.8-1.1-1.3-1.2-1.4-.2-.4-.4-.6-.7-.8-.3-.2-.4-.3-.4-.3,0-.1,0-.2.2-.4-.7,0-1.5,0-2.2.1-.5.9-.7,1.3-.7,1.4.4.5,1.1,1.3,1.9,2.4,0,.8.3,1.8.8,2.9.5.6,1.1.7,1.6.4,1.5-.6,2.2-1.3,2-2.1Z"/>
    <path class="st0" d="M493.8,48.2c-.8.7-1.8,1.9-2.9,3.5-.1.4-.2.9-.2,1.3,0,1.2.5,2.6,1.5,4.4,1.4,2.4,2.3,4.3,2.7,5.5.3.8.6,2.5.9,5.1.2,2.2.5,3.5.9,4,.2.2,1.2.6,3,1.1,1.7.5,2.8,1,3.3,1.6.3.3.4.5.4.7-.1.2-.2.3-.4.5-.2,1.1-1,1.9-2.4,2.3-.8,0-1.9.2-3.5.7-.2.1-.8,2.3-1.8,6.4-1.1,4.7-2.1,8.1-2.9,10.1-.4.7-.8,1.4-1.3,2.1-.7,1.1-1.1,2.1-1.2,3.1-.2,3,.2,6.4,1,10.3,1,4.7,2.4,7.7,4.2,9,1,.6,2.5.8,4.6.6.2,0,.6-.2,1-.5.4-.4.7-.5,1-.5.9,0,1.4.6,1.4,1.8,0,1.1-.3,1.9-.8,2.4-.6.5-1.2,1-1.7,1.4-.5.4-1.2.7-2.1.7-1.6,0-3.6-.5-5.9-1.7-2.3-1.2-3.9-2.4-5-3.7-2-2.3-3.4-5.5-4.2-9.4-.5-2.7-1-7.1-1.3-13.1,0-1.3-.3-4.4-.8-9.4-.4-4.1-.6-7.2-.5-9.4-.4-.4-1.4-1.1-3.1-1.9-1.3-.7-2-1.5-2-2.4,0-1.1.4-1.8,1.3-2.1,1.2,0,2.6-.1,4.3-.6.8-.7,1.1-3.1.9-7.1-.1-2.4.2-5,1.1-7.7.2-.6,1.3-1.9,3.3-4,.3-.6,0-1.8-.8-3.8-.2-.4-.5-.8-.8-1.3-.3-.4-.3-.9-.2-1.3.2-.7.8-1,1.8-1.1.8,0,1.6.1,2.5.2.8,0,2.1.4,3.6,1.1.3.4.7.8,1,1.2Z"/>
    <path class="st0" d="M552.1,86.2c-.4,2.9-1.7,4.9-3.7,6.2-1.4.9-2.9,1.5-4.5,1.9-1.6.3-2.7-.2-3.4-1.3-.3-.6-.3-1.3,0-2.2.4-.9.8-1.4,1.5-1.4.4,0,1,.7,1.7,2,1.5-.3,2.7-.9,3.6-1.7.3-.2.3-.6,0-1.4-1-.9-1.8-2.6-2.4-4.9-.4-1.5-1.5-2.2-3.2-2.2-1.8,0-3.2.3-4.1.9-.5.3-1,.9-1.5,1.6-.5.7-.9,1.2-1.2,1.3-.9.5-1.8,1-2.8,1.5-1.3.8-2.2,1.6-2.6,2.5-.4.9-.9,3.3-1.5,7.3-.5,4-1.4,7.1-2.5,9.3-.2.4-.6.9-1.3,1.3-.8.6-1.4,1-1.6,1.3-.9,1.4-2.3,3.4-4.1,6.1.4.5.8,1.4,1.3,2.8,0,1-.6,1.9-1.8,2.7-1.2.8-2.3,1.2-3.5,1.3-1.2,0-1.8-.7-1.8-2.3,0-.4.4-1.1,1.3-2.1.9-1,1.3-1.8,1.3-2.3,0-.4-.2-.9-.6-1.4-.4-.5-.7-.9-.8-1.1-.7-1.3-1.2-3.2-1.7-5.7-.4-2.1-.5-3.6-.5-4.6,0-5.1.2-10.9.5-17.4,0-1.5.5-3.2,1.3-5.1,1.1-2.8,1.8-4.6,1.9-5.2.4-.3.7-.7,1.1-1-.3-.2-.6-.5-.9-.7-2.1,1.5-3.8,2.3-5.3,2.3-.7,0-1.3-.2-2-.7-.6-.5-1-1.1-1-1.8,0-6,3.1-9.1,9.4-9.4,1.1,0,1.9.6,2.4,2,.4,1.4.8,2.8,1.2,4.1.7,1.4,2,2.1,3.8,2,.4,0,1.8-.4,4.1-1.2,2.3-.8,3.7-1.2,4.1-1.2.4,0,1,.1,1.8.4.8.3,1.3.5,1.6.4.5,0,1-.1,1.5-.3.5-.2,1-.3,1.4-.3,2.7,0,5.3.6,8,1.9,3,1.6,4.5,3.6,4.4,5.9,0,1.1,0,2.3-.2,3.6-.1,1.1-.2,1.8-.2,2.2,0,1.1.5,2.4,1.4,4Z"/>
    <path class="st0" d="M576.9,40.6c0,.4-.3.8-.8,1.2-.4,0-1.1,0-2-.2-.9-.2-1.5-.3-1.8-.3-1.2,0-1.7.7-1.7,2,0,.5.2,1.1.5,1.7,1.3,2.3,2.8,3.7,4.5,4.2.2-.2.3-.8.3-1.5,0-1,0-1.5,0-1.6,0-.6.3-.9.8-1,.5,0,1.1,0,1.7.4.6,1.7.9,3.4.9,5.3,0,6.1-2.8,9.2-8.4,9.3-4.8,0-7.8-1-9.1-3.2-.8-1.3-1.6-2.7-2.4-4-1.1-2.2-1.6-4-1.6-5.7,0-.6,0-1.2.2-1.6.2-.8.9-1.9,2.1-3.3,1.2-1.4,2.5-2.4,3.8-3.1.5-.3,2.1-.6,4.9-.7,3.3-.3,5.7,0,7,.5.4.6.8,1.3,1.2,1.9ZM582.8,82.8c-.8,1.3-1.8,2.4-3,3-.4.2-1.1.4-2.1.5-1,.2-1.6.4-2,.6-3,1.7-5,6.2-5.8,13.7,0,.5.3,2,1.1,4.4.8,2.6,1.3,4.5,1.3,5.7,0,.5-.2,1.2-.5,2-.4.9-.7,1.4-1.1,1.6-1.2.7-2.4,1.4-3.6,2.1-.2,0-.7-.4-1.4-1.1-.2-.4,0-2.3.6-5.9.1-.5,0-1.1-.2-1.8-.2-.5-.4-1.1-.6-1.6-1.5-6.2-2.8-10.9-3.9-14.1-.4-1.1-.6-2.7-.8-5-.4-3.4-.5-5.2-.5-5.3,0-.5-.5-1.2-1.3-2.2-.8-1-1.2-2-1.2-3.1,0-2.7.5-4.3,1.4-4.9.5-.3,2.3-.3,5.3-.1.3-.4.7-1.6,1.3-3.7.8-.5,1.7-.6,2.4-.1,1.2.7,2.4,1.8,3.6,3.3.5.7.9,1.8,1.2,3.5.1.5.3.8.6,1.1.3.2,1.7.8,4.1,1.7,1.6.6,2.6,1.2,2.8,1.6.8,1.4,1.6,2.8,2.3,4.1ZM574.7,54.6c-.4,0-.7.1-1.1.1-.8,0-2.2-.1-4.4-.5-1.9-.3-3.2-.4-3.9-.4-.3,0-.5.3-.5.8,0,.5-.1.7-.2.9,1.6.9,3.5,1.4,5.8,1.3,1.2,0,2-.2,2.5-.5.5-.3.9-.7,1.2-1.1.3-.5.5-.7.6-.7Z"/>
    <path class="st0" d="M592,109.5c.7-1.6,1.6-2.4,2.7-2.4,1.8,0,3,.6,3.5,1.9.2.7.2,1.4,0,2.1-.2.5-.9.8-2.2.8-1.3,0-1.9.4-1.9,1.2,0,.7.3,1.3.8,1.9.5.6,1.1.9,1.8.8.1,0,1.2-1.1,3.3-3.2,1.6-1.7,2.6-2.8,2.8-3.3.2-.5.3-1.2.3-2,0-.6,0-1.3,0-2.1,0-.5,0-.9,0-1.4,0-.4-.5-1.2-1.4-2.4-.9-1.2-1.5-2.2-1.7-2.9-.9-2.2-1.4-4.4-1.5-6.5,0-1.7.1-2.9.2-3.6,0-.7-.3-1.6-.8-2.8-.5-1.1-.8-2-.8-2.8,0-.6.1-1.3.3-2.2.2-.9.3-1.6.3-2,.2-2.2.2-4.5,0-6.9,0-.8-.4-2.1-.9-3.8-.5-1.7-.8-3.1-.8-4.3,0-1,.3-2.3,1-3.9.6-1.5,1-2.7,1-3.6,0-1.6-.8-3.3-2.4-5.1-1.6-1.8-2.4-2.9-2.4-3.1,0-.5.4-2.1,1.2-4.9.2-.7.6-1.1,1.4-1.1,0,0,.7,0,2-.1.8,0,1.6,0,2.2.1.6.1,1.1.5,1.5,1,1.2,1.7,2.1,3.8,2.8,6.3.5,2.1,1.1,4.2,1.6,6.4,1.5,4.1,2.6,7.1,3.4,9,.5,1.8,1,4.5,1.3,8.3.3,4.2.6,7,.9,8.4.3.5.6.8.9.8,1.3-1,2.3-1.5,2.9-1.7.4-.1,1.3-.2,2.7-.2,3.1,0,5.1.7,6.2,2,1.5,1.8,3.1,4.6,4.7,8.3,1.6,3.7,2.4,6.2,2.3,7.6-.4,1.5-.8,2.6-1.3,3.3,0,.7-.2,3.1-.5,7.3-.2,2.8-.6,4.7-1.2,5.8-.8,1.3-2.9,1.9-6.4,1.9-2,0-4.4-.4-7.3-1.2-.5-.2-1.8-.8-3.9-1.7-1.8-.8-2.8-1.3-3.3-1.3-1,1.9-1.9,3.7-2.9,5.6-1.4,2.5-2.9,3.7-4.6,3.7-1.1,0-2.7-.6-4.7-2-2.1-1.3-3.2-2.4-3.5-3.1-.2-.8-.4-1.8-.4-2.9,0-1.4.2-2.7.7-3.8ZM617.6,105.6c2.8,0,4.2-2,4.2-6,0-2.6-.4-4.3-1.1-5.2-.7-.9-2.5-1.3-5.4-1.3-.6,0-1.4.6-2.3,1.9-.9,1.3-1.4,2.1-1.4,2.5,0,5.4,2,8.1,6,8.1ZM615.4,86.6c.3.1,1.5-.4,3.5-1.4v-1c-.4-.2-.9-.3-1.7-.3-1.7,0-2.6.4-2.7,1.2-.2.8.2,1.3,1,1.5Z"/>
    <path class="st0" d="M678,69.5c.2.7.1,1.5-.1,2.4-.3.9-.7,1.5-1.2,1.8-1.2.6-2.1.4-2.8-.6-.2-.2-.4-.7-.5-1.6,0-.5-.5-.9-1.5-1.1-.4,0-.7.2-.7,1,.2,1.3.5,3.6.7,6.7-.2,1.3-.4,3.2-.5,5.7.7,1.8,1.4,4.4,2.2,7.9,0,1.9-.6,5.5-1.9,10.7-1.4,5.4-2.1,9.2-2.1,11.6,0,1.7.3,3.1.8,4.2-.2.3-.2,1-.2,2.1.4,1.7,1.6,2.8,3.6,3.2.5.1,1,0,1.4-.3.4-.3.5-.8.3-1.3,0-.1-.2-.5-.7-1-.5-.6-.7-1.1-.7-1.5.1-1.1.9-1.8,2.4-2.1.4-.1.7,0,.7.3,0,.3.3.5.7.3,1.4-.2,2.1.5,2.1,2.4,0,.5,0,1.1-.2,1.7-.1.4-.5.9-1.2,1.3-.7.5-1.1.8-1.2,1-.3.7-.6,1.4-1,2.2-.3.7-.9,1.2-1.8,1.3-.4.1-.8,0-1.3-.2-.5-.3-.9-.4-1.4-.3-1,.2-2.2-1-3.8-3.5-.7-1.5-1.4-3-2.1-4.4-1.1-1.9-2.7-2.7-4.8-2.4-.4,0-.9-.1-1.5-.5-.7-.4-1.2-.5-1.6-.4-1.4.3-2.9-.1-4.6-1.2-2.4-1.6-3.7-2.3-3.9-2.3-.5.1-1.3-.3-2.4-1.1-1.1-.9-1.9-1.8-2.5-2.8-1.8-2.7-2.9-4.5-3.3-5.4-.3-1.5-.6-3-.9-4.6-.5-2.1-.7-4.4-.7-7,0-2.3.3-5.9.9-10.7.2-2.1.4-4.2.5-6.3.5-2.2,1.8-3.9,3.9-5.1,0-.4-.2-.9-.3-1.3-.2-.9-.8-1.6-2-2.2-1.1-.6-1.7-1.3-1.6-2,.2-1.8,1.4-3,3.5-3.5.8-.2,1.7-.2,2.7-.2,3.3,0,5.2,1.1,5.9,3,.1.3,0,.7-.5,1.1-.4.3-.7.6-1.1,1-1,1.5-1.4,3-1,4.6,0,.2,1.1,1.6,3.1,4.1.5,1,1.4,2.6,2.6,4.7,0,.5.3,1.2.7,2.2.4,1,.6,1.7.6,2.3,0,.3,0,.6-.2,1-.1.4,0,1,.4,1.8.4.9.6,1.5.7,2,0,1.7-.3,3.3-1,4.9-.5.7-1.3,2-2.4,3.9-1,2.8-1.4,4.9-1.1,6.3.3,1.2,1.1,2.3,2.3,3.5,1.2,1.2,2.5,1.8,4,1.8,3.3,0,5.5-3.4,6.8-10.4,0-.3-.2-1.3-.6-2.9-.1-.4,0-1.1.2-2.3.3-1.4.5-2.4.5-3.1,0-1.1-.1-2.4-.4-3.8-.3-1.7-.4-3-.5-3.9,0-1.3-.2-2.7-.3-4.1,0-1.5,0-2.8.5-4.1.2-.7.7-1.5,1.4-2.6.7-1.1,1.1-1.9,1.1-2.4.4-2.3.7-3.5.7-3.6.5-1.4,1.4-2.1,2.6-2.1,1.1,0,2.4,1,3.6,2.8,1,1.4,1.5,2.5,1.7,3.2Z"/>
    <path class="st0" d="M702.8,47.7c-.8.6-1.8,1.7-2.9,3.2-.1.4-.2.8-.2,1.3,0,1.2.5,2.7,1.5,4.6,1.4,2.6,2.3,4.5,2.7,5.8.3.8.6,2.5.9,5.2.2,2.2.5,3.6.9,4.1.2.3,1.2.7,3,1.4,1.7.7,2.8,1.4,3.3,2,.3.3.4.6.4.8-.1.2-.2.3-.4.4-.2,1.1-1,1.7-2.4,2-.8-.2-1.9,0-3.5.3-.2.1-.8,2.2-1.8,6.2-1.1,4.6-2.1,7.9-2.9,9.8-.4.6-.8,1.3-1.3,1.9-.7,1-1.1,2-1.2,2.9-.2,3,.2,6.4,1,10.4,1,4.8,2.4,7.9,4.2,9.4,1,.7,2.5,1.1,4.6,1.1.2,0,.6-.1,1-.4.4-.3.7-.4,1-.4.9,0,1.4.7,1.4,2,0,1.1-.3,1.9-.8,2.3-.6.4-1.2.8-1.7,1.2-.5.4-1.2.6-2.1.5-1.6-.1-3.6-.9-5.9-2.4-2.3-1.5-3.9-2.9-5-4.2-2-2.5-3.4-5.8-4.2-9.9-.5-2.8-1-7.2-1.3-13.3,0-1.3-.3-4.4-.8-9.5-.4-4.1-.6-7.3-.5-9.5-.4-.4-1.4-1.2-3.1-2.2-1.3-.9-2-1.7-2-2.6,0-1.1.4-1.7,1.3-1.9,1.2.2,2.6.1,4.3-.1.8-.6,1.1-2.9.9-7-.1-2.4.2-5,1.1-7.6.2-.5,1.3-1.8,3.3-3.6.3-.5,0-1.8-.8-3.9-.2-.4-.5-.9-.8-1.4-.3-.5-.3-.9-.2-1.3.2-.7.8-1,1.8-.9.8.2,1.6.3,2.5.5.8.1,2.1.6,3.6,1.4.3.4.7.9,1,1.3Z"/>
    <path class="st0" d="M770,92c0,1.8-.6,3.7-1.7,5.8-1.3,2.3-2.6,3.3-4.1,3.2.8.1-1.3-.5-6.5-1.6-2.3-.4-5.5-1.1-9.4-2-.2,0-.9-.4-2-1-1.1-.6-1.9-.9-2.4-1-1.8-.2-2.9.4-3.4,1.8,0,1,0,2.6,0,4.6-.1,1-.6,2.6-1.3,4.6-.8,2.1-1.1,3.3-1.1,3.8,0,1.3.7,2.5,2.2,3.6.8.6,2.3,1.4,4.6,2.5,1,0,2.5.2,4.5.6.8.4,1.8.9,3.1,1.4.5,0,1,.1,1.5.2.4-.4.8-.7,1.2-1.1,1.2,0,2.3-.3,3.3-.9.8-.5,1.2-.9,1.2-1.2,0-1.1-.9-2.7-2.6-4.6-.4.4-1,1.6-1.8,3.7-.5,1.3-1.7,1.8-3.5,1.5-.7-.1-1.3-.8-1.8-2-.5-1.2-.8-2.3-.8-3.2,0-1.9,1.4-3.3,4.2-4.1,2.3-.7,4.1-.9,5.5-.4.7,0,1.4.5,2.2,1.4,1.8,2,2.7,4.1,2.7,6.1,0,4.1-2.4,6.7-7.2,7.9-3,.8-6.3,1.1-10,.7-2.8-.3-6.2-1.5-10.4-3.8-1.2-.5-3.2-1.3-6-2.5-1.4-.6-3.1-2.4-5.1-5.4-1.9-2.8-3.5-5.7-4.8-8.7-1-2.2-1.4-6-1.4-11.4v-6.5c.1-1.3.6-3.2,1.4-5.7.8-1.7,2.5-3.3,4.9-4.9,2.4-1.6,4.5-2.4,6.2-2.7.7-.1,2-.7,3.7-1.8,1.7-1.1,3-1.7,3.9-1.8,1.3.1,3.1.2,5.4.2.9,0,1.8-.2,2.6-.4.8-.2,1.4-.4,1.6-.3,3,.3,6.8,2.4,11.4,6.4,3.9,3.4,6.3,6.2,7.4,8.3.7,1.3,1.3,3.2,2,5.9.5,2.4.8,4,.8,4.8ZM748.5,82c-.5-.5-1.2-.8-1.8-1-.7-.2-1.3-.4-1.9-.7-1.1-.5-2.2-.8-3.2-.9-3.9-.4-5.9.6-5.9,3,0,1.1.5,1.7,1.5,1.8,1.1,0,2.8,0,5.2,0,2.4-.1,3.8-.2,4.3-.1.5,0,.9-.1,1.4-.5.5-.4.7-.7.7-1.1,0-.1,0-.2-.2-.4ZM742.8,71.4c.1-.3.7-.5,1.7-.6,1.8-.1,2.8.1,2.9.7,0,.6-.2.9-.7,1.1-.5.2-1.2.2-1.8,0-1.6-.2-2.3-.7-2.1-1.4ZM757.3,78c0-.1.4-.2,1-.3.6,0,.8-.2.8-.3-1-.7-2.2-1.7-3.6-2.9-1.5-1.6-2.6-2.4-3.3-2.4-.8,0-1.3.2-1.3.9,0,.8,1.3,1.9,3.9,3.5,1.2,1.5,1.9,2.3,2,2.3.2,0,.4-.2.5-.7ZM765.9,88.1c-.2-.8-.6-1.7-1.4-2.6-.7-.9-1.1-1.5-1.2-1.6-.2-.4-.4-.7-.7-.9-.3-.2-.4-.3-.4-.4,0-.1,0-.2.2-.3-.7,0-1.5-.2-2.2-.2-.5.8-.7,1.2-.7,1.3.4.5,1.1,1.5,1.9,2.8,0,.8.3,1.8.8,3.1.5.7,1.1.9,1.6.7,1.5-.4,2.2-1,2-1.8Z"/>
  </g>
</svg>