<?xml version="1.0" encoding="UTF-8"?>
<svg id="Layer_1" xmlns="http://www.w3.org/2000/svg" version="1.1" viewBox="0 0 800 230">
  <!-- Generator: Adobe Illustrator 29.6.0, SVG Export Plug-In . SVG Version: 2.1.1 Build 207)  -->
  <defs>
    <style>
      .st0 {
        fill: #fff;
      }
    </style>
  </defs>
  <g>
    <path class="st0" d="M401.7,227.3c-9,0-17.7-1.8-25.9-5.2-7.9-3.4-15-8.2-21.2-14.3-6.1-6.1-10.9-13.2-14.3-21.2-3.5-8.2-5.2-16.9-5.2-25.9s1.8-17.7,5.2-25.9c3.4-7.9,8.2-15,14.3-21.2,6.1-6.1,13.2-10.9,21.2-14.3,8.2-3.5,16.9-5.2,25.9-5.2s17.7,1.8,25.9,5.2c7.9,3.4,15,8.2,21.2,14.3,6.1,6.1,10.9,13.2,14.3,21.2,3.5,8.2,5.2,16.9,5.2,25.9s-1.8,17.7-5.2,25.9c-3.4,7.9-8.2,15-14.3,21.2-6.1,6.1-13.2,10.9-21.2,14.3-8.2,3.5-16.9,5.2-25.9,5.2ZM401.7,110.7c-13.3,0-25.9,5.2-35.3,14.6-9.4,9.4-14.6,22-14.6,35.3s5.2,25.9,14.6,35.3c9.4,9.4,22,14.6,35.3,14.6s25.9-5.2,35.3-14.6c9.4-9.4,14.6-22,14.6-35.3s-5.2-25.9-14.6-35.3c-9.4-9.4-22-14.6-35.3-14.6Z"/>
    <path class="st0" d="M401.7,202.3c-5.6,0-11.1-1.1-16.2-3.3-5-2.1-9.4-5.1-13.2-8.9-3.8-3.8-6.8-8.3-8.9-13.2-2.2-5.1-3.3-10.6-3.3-16.2s1.1-11.1,3.3-16.2c2.1-5,5.1-9.4,8.9-13.2,3.8-3.8,8.3-6.8,13.2-8.9,5.1-2.2,10.6-3.3,16.2-3.3s11.1,1.1,16.2,3.3c5,2.1,9.4,5.1,13.2,8.9,3.8,3.8,6.8,8.3,8.9,13.2,2.2,5.1,3.3,10.6,3.3,16.2s-1.1,11.1-3.3,16.2c-2.1,5-5.1,9.4-8.9,13.2-3.8,3.8-8.3,6.8-13.2,8.9-5.1,2.2-10.6,3.3-16.2,3.3ZM401.7,129.5c-8.3,0-16.2,3.2-22.1,9.1-5.9,5.9-9.1,13.7-9.1,22.1s3.2,16.2,9.1,22.1c5.9,5.9,13.7,9.1,22.1,9.1s16.2-3.2,22.1-9.1c5.9-5.9,9.1-13.7,9.1-22.1s-3.2-16.2-9.1-22.1c-5.9-5.9-13.7-9.1-22.1-9.1Z"/>
  </g>
  <g>
    <path class="st0" d="M503,112.7h35.4v2.5h-12v20h-11.5v-20h-12v-2.5Z"/>
    <path class="st0" d="M567.1,124.9h-14.1v10.3h-11.5v-22.5h11.5v9.7h14.1v-9.7h11.5v22.5h-11.5v-10.3Z"/>
    <path class="st0" d="M583.9,112.7h30.4v2.5h-18.9v7.2h16.6v2.5h-16.6v7.8h18.9v2.5h-30.4v-22.5Z"/>
    <path class="st0" d="M505.1,149.3h30.4v2.5h-18.9v7.2h16.6v2.5h-16.6v7.8h18.9v2.5h-30.4v-22.5Z"/>
    <path class="st0" d="M542.5,157.3v14.4h-2.9v-22.5h9.6l20.2,13.5v-13.5h3v22.5h-8.3l-21.6-14.4Z"/>
    <path class="st0" d="M576.7,160.5c0-8,6.7-11.6,20.5-11.6s9.6.4,13.8,1v2.2c-4.2-.3-8.8-.6-12.9-.6-6.9,0-9.6,2-9.6,8.9s2.7,8.9,9.6,8.9,2.4,0,3.6,0v-7.8h-5.2v-2.5h16v12.1c-4.7.7-9.8,1-14.6,1-11.4,0-21.3-2.1-21.3-11.6Z"/>
    <path class="st0" d="M617.5,149.3h11.5v20h17.5v2.5h-28.9v-22.5Z"/>
    <path class="st0" d="M649.8,149.3h11.4v22.5h-11.4v-22.5Z"/>
    <path class="st0" d="M665.6,171.1v-2.2c4.4.3,9.5.6,13.9.6,7.8,0,9.4-.7,9.4-2.4s-.3-1.1-1.1-1.5c-1.3-.5-3.3-.6-8.3-.9-6.1-.3-8.6-.8-10.5-1.9-2-1.1-3.2-2.7-3.2-5.5,0-6.4,5.6-8.3,17.4-8.3s9.6.4,13.7,1v2.2c-3.9-.3-8.3-.6-12.2-.6-7.3,0-8.6.7-8.6,2.4s.2,1,.8,1.3c1.1.6,2.7.7,7.9.9,6.4.3,9,.8,11.2,1.9,2.3,1.1,3.2,2.8,3.2,5.5,0,6.4-5.9,8.5-18.1,8.5s-10.7-.5-15.4-1Z"/>
    <path class="st0" d="M729.2,161.5h-14.1v10.3h-11.5v-22.5h11.5v9.7h14.1v-9.7h11.5v22.5h-11.5v-10.3Z"/>
    <path class="st0" d="M504.1,197.1c0-8.7,7.9-11.6,20.9-11.6s8,.4,11.6,1v2.2c-3.5-.4-7.2-.6-10.7-.6-6.9,0-10,1.9-10,8.9s3.1,9,10,9c3.5,0,7.2-.2,10.7-.6v2.2c-3.6.6-7.3,1-11.6,1-12.9,0-20.9-2.9-20.9-11.6Z"/>
    <path class="st0" d="M566.4,198.1h-14.1v10.3h-11.5v-22.5h11.5v9.7h14.1v-9.7h11.5v22.5h-11.5v-10.3Z"/>
    <path class="st0" d="M594.9,185.8h9.8l14.8,22.5h-12.5l-3.5-5.3h-16.5l-3.3,5.3h-3.1l14.3-22.5ZM588.6,200.5h13.2l-6.8-10.2-6.5,10.2Z"/>
    <path class="st0" d="M625.3,193.9v14.4h-2.9v-22.5h9.6l20.2,13.5v-13.5h3v22.5h-8.3l-21.6-14.4Z"/>
    <path class="st0" d="M663.4,193.9v14.4h-2.9v-22.5h9.6l20.2,13.5v-13.5h3v22.5h-8.3l-21.6-14.4Z"/>
    <path class="st0" d="M698.5,185.8h30.4v2.5h-18.9v7.2h16.6v2.5h-16.6v7.8h18.9v2.5h-30.4v-22.5Z"/>
    <path class="st0" d="M733,185.8h11.5v20h17.5v2.5h-28.9v-22.5Z"/>
    <path class="st0" d="M764.1,207.7v-2.2c4.4.3,9.5.6,13.9.6,7.8,0,9.4-.7,9.4-2.4s-.3-1.1-1.1-1.5c-1.3-.5-3.3-.6-8.3-.9-6.1-.3-8.6-.8-10.5-1.9-2-1.1-3.2-2.7-3.2-5.5,0-6.4,5.6-8.3,17.4-8.3s9.6.4,13.7,1v2.2c-3.9-.3-8.3-.6-12.2-.6-7.3,0-8.6.7-8.6,2.4s.2,1,.8,1.3c1.1.6,2.7.7,7.9.9,6.4.3,9,.8,11.2,1.9,2.3,1.1,3.2,2.8,3.2,5.5,0,6.4-5.9,8.5-18.1,8.5s-10.7-.5-15.4-1Z"/>
  </g>
  <polygon class="st0" points="300.6 101.1 288.4 101.1 249.7 139.8 249.7 101.1 232.4 101.1 232.4 139.8 193.8 101.1 181.5 101.1 181.5 113.4 220.2 152 181.5 152 181.5 169.3 220.2 169.3 181.5 208 181.5 220.2 193.8 220.2 232.4 181.6 232.4 220.2 249.7 220.2 249.7 181.6 288.4 220.2 300.6 220.2 300.6 208 262 169.3 300.6 169.3 300.6 152 262 152 300.6 113.4 300.6 101.1"/>
  <g>
    <rect class="st0" x="34.8" y="5.1" width="8" height="3.4" transform="translate(7.5 30.8) rotate(-47.5)"/>
    <rect class="st0" x="124.4" y="183.2" width="4.7" height="4.8" transform="translate(-94.1 144) rotate(-45)"/>
    <rect class="st0" x="116.6" y="183.2" width="4.7" height="4.7" transform="translate(-96.3 138.5) rotate(-45)"/>
    <rect class="st0" x="120.5" y="187.1" width="4.7" height="4.8" transform="translate(-98 142.4) rotate(-45)"/>
    <rect class="st0" x="124.4" y="175.4" width="4.7" height="4.7" transform="translate(-88.5 141.6) rotate(-45)"/>
    <rect class="st0" x="124.4" y="167.6" width="4.7" height="4.7" transform="translate(-83 139.3) rotate(-45)"/>
    <rect class="st0" x="101" y="183.2" width="4.8" height="4.7" transform="translate(-100.9 127.5) rotate(-45)"/>
    <rect class="st0" x="124.4" y="159.7" width="4.7" height="4.8" transform="translate(-77.5 137.2) rotate(-45)"/>
    <rect class="st0" x="104.9" y="187.1" width="4.8" height="4.7" transform="translate(-102.6 131.4) rotate(-45)"/>
    <rect class="st0" x="108.8" y="183.2" width="4.7" height="4.7" transform="translate(-98.6 132.9) rotate(-45)"/>
    <rect class="st0" x="112.7" y="187.1" width="4.7" height="4.7" transform="translate(-100.2 136.8) rotate(-45)"/>
    <rect class="st0" x="116.6" y="151.9" width="4.7" height="4.8" transform="translate(-74.3 129.3) rotate(-45)"/>
    <rect class="st0" x="97.1" y="148" width="4.7" height="4.7" transform="translate(-77.2 114.4) rotate(-45)"/>
    <rect class="st0" x="124.4" y="151.9" width="4.7" height="4.7" transform="translate(-72 134.8) rotate(-45)"/>
    <rect class="st0" x="89.3" y="148" width="4.7" height="4.8" transform="translate(-79.5 108.8) rotate(-45)"/>
    <rect class="st0" x="101" y="151.9" width="4.7" height="4.8" transform="translate(-78.8 118.3) rotate(-45)"/>
    <rect class="st0" x="85.4" y="151.9" width="4.7" height="4.7" transform="translate(-83.4 107.2) rotate(-45)"/>
    <rect class="st0" x="93.2" y="151.9" width="4.7" height="4.7" transform="translate(-81.1 112.7) rotate(-45)"/>
    <rect class="st0" x="104.9" y="148" width="4.7" height="4.8" transform="translate(-74.9 119.9) rotate(-45)"/>
    <rect class="st0" x="97.1" y="187.1" width="4.7" height="4.7" transform="translate(-104.8 125.7) rotate(-45)"/>
    <rect class="st0" x="120.5" y="148" width="4.7" height="4.8" transform="translate(-70.3 130.9) rotate(-45)"/>
    <rect class="st0" x="112.7" y="148" width="4.7" height="4.7" transform="translate(-72.6 125.4) rotate(-45)"/>
    <rect class="st0" x="108.8" y="151.9" width="4.7" height="4.7" transform="translate(-76.5 123.8) rotate(-45)"/>
    <rect class="st0" x="26.8" y="187.1" width="4.7" height="4.7" transform="translate(-125.3 76) rotate(-45)"/>
    <rect class="st0" x="30.7" y="183.2" width="4.7" height="4.7" transform="translate(-121.6 77.8) rotate(-45)"/>
    <rect class="st0" x="34.6" y="187.1" width="4.7" height="4.7" transform="translate(-123.2 81.7) rotate(-45)"/>
    <rect class="st0" x="38.5" y="183.2" width="4.7" height="4.7" transform="translate(-119.2 83.2) rotate(-45)"/>
    <rect class="st0" x="50.2" y="187.1" width="4.7" height="4.7" transform="translate(-118.6 92.7) rotate(-45)"/>
    <rect class="st0" x="46.3" y="183.2" width="4.7" height="4.8" transform="translate(-117 88.8) rotate(-45)"/>
    <rect class="st0" x="42.4" y="187.1" width="4.7" height="4.8" transform="translate(-120.8 87.1) rotate(-45)"/>
    <rect class="st0" x="22.9" y="175.4" width="4.7" height="4.7" transform="translate(-118.3 69.9) rotate(-45)"/>
    <rect class="st0" x="22.8" y="167.5" width="4.8" height="4.7" transform="translate(-112.8 67.6) rotate(-45)"/>
    <rect class="st0" x="81.4" y="148" width="4.7" height="4.7" transform="translate(-81.8 103.3) rotate(-45)"/>
    <rect class="st0" x="22.9" y="183.2" width="4.8" height="4.7" transform="translate(-123.8 72.2) rotate(-45)"/>
    <rect class="st0" x="77.5" y="183.2" width="4.7" height="4.7" transform="translate(-107.8 110.8) rotate(-45)"/>
    <rect class="st0" x="81.5" y="187.1" width="4.7" height="4.7" transform="translate(-109.4 114.7) rotate(-45)"/>
    <rect class="st0" x="93.2" y="183.2" width="4.7" height="4.7" transform="translate(-103.2 121.8) rotate(-45)"/>
    <rect class="st0" x="85.3" y="183.2" width="4.7" height="4.7" transform="translate(-105.5 116.4) rotate(-45)"/>
    <rect class="st0" x="73.6" y="187.1" width="4.7" height="4.7" transform="translate(-111.7 109.3) rotate(-45)"/>
    <rect class="st0" x="89.3" y="187.1" width="4.7" height="4.7" transform="translate(-107.1 120.3) rotate(-45)"/>
    <rect class="st0" x="61.9" y="183.2" width="4.7" height="4.8" transform="translate(-112.4 99.9) rotate(-45)"/>
    <rect class="st0" x="58" y="187.1" width="4.7" height="4.8" transform="translate(-116.3 98.2) rotate(-45)"/>
    <rect class="st0" x="54.1" y="183.2" width="4.7" height="4.7" transform="translate(-114.7 94.3) rotate(-45)"/>
    <rect class="st0" x="69.7" y="183.2" width="4.7" height="4.7" transform="translate(-110.1 105.4) rotate(-45)"/>
    <rect class="st0" x="65.8" y="187.1" width="4.7" height="4.7" transform="translate(-114 103.8) rotate(-45)"/>
    <rect class="st0" x="89.3" y="194.9" width="4.7" height="4.7" transform="translate(-112.6 122.5) rotate(-45)"/>
    <rect class="st0" x="54.1" y="191" width="4.7" height="4.8" transform="translate(-120.2 96.6) rotate(-45)"/>
    <rect class="st0" x="58" y="194.9" width="4.7" height="4.7" transform="translate(-121.8 100.5) rotate(-45)"/>
    <rect class="st0" x="61.9" y="191" width="4.7" height="4.7" transform="translate(-117.9 102.2) rotate(-45)"/>
    <rect class="st0" x="65.8" y="194.9" width="4.7" height="4.7" transform="translate(-119.5 106.1) rotate(-45)"/>
    <rect class="st0" x="50.2" y="194.9" width="4.7" height="4.8" transform="translate(-124 94.9) rotate(-45)"/>
    <rect class="st0" x="22.9" y="191" width="4.7" height="4.7" transform="translate(-129.3 74.5) rotate(-45)"/>
    <rect class="st0" x="30.7" y="191" width="4.7" height="4.7" transform="translate(-127 79.9) rotate(-45)"/>
    <rect class="st0" x="26.8" y="194.9" width="4.7" height="4.7" transform="translate(-130.9 78.4) rotate(-45)"/>
    <rect class="st0" x="38.5" y="191" width="4.7" height="4.8" transform="translate(-124.8 85.6) rotate(-45)"/>
    <rect class="st0" x="46.3" y="191" width="4.7" height="4.7" transform="translate(-122.4 91) rotate(-45)"/>
    <rect class="st0" x="69.7" y="191" width="4.7" height="4.7" transform="translate(-115.6 107.7) rotate(-45)"/>
    <rect class="st0" x="42.4" y="194.9" width="4.7" height="4.7" transform="translate(-126.4 89.5) rotate(-45)"/>
    <rect class="st0" x="101" y="191" width="4.7" height="4.7" transform="translate(-106.4 129.6) rotate(-45)"/>
    <rect class="st0" x="73.6" y="194.9" width="4.7" height="4.7" transform="translate(-117.2 111.6) rotate(-45)"/>
    <rect class="st0" x="104.9" y="194.9" width="4.7" height="4.7" transform="translate(-108 133.5) rotate(-45)"/>
    <rect class="st0" x="108.8" y="191" width="4.8" height="4.7" transform="translate(-104.2 135.3) rotate(-45)"/>
    <rect class="st0" x="93.2" y="191" width="4.7" height="4.7" transform="translate(-108.7 124.2) rotate(-45)"/>
    <rect class="st0" x="97.1" y="194.9" width="4.7" height="4.7" transform="translate(-110.4 128.1) rotate(-45)"/>
    <rect class="st0" x="77.5" y="151.9" width="4.7" height="4.7" transform="translate(-85.7 101.7) rotate(-45)"/>
    <rect class="st0" x="77.5" y="191" width="4.7" height="4.7" transform="translate(-113.3 113.2) rotate(-45)"/>
    <rect class="st0" x="22.9" y="159.7" width="4.7" height="4.7" transform="translate(-107.2 65.3) rotate(-45)"/>
    <rect class="st0" x="85.4" y="191" width="4.7" height="4.7" transform="translate(-111 118.6) rotate(-45)"/>
    <rect class="st0" x="81.5" y="194.9" width="4.7" height="4.7" transform="translate(-115 117.1) rotate(-45)"/>
    <rect class="st0" x="58" y="148" width="4.8" height="4.7" transform="translate(-88.6 86.7) rotate(-45)"/>
    <rect class="st0" x="50.2" y="148" width="4.7" height="4.7" transform="translate(-90.9 81.2) rotate(-45)"/>
    <rect class="st0" x="54.1" y="151.9" width="4.7" height="4.7" transform="translate(-92.5 85.1) rotate(-45)"/>
    <rect class="st0" x="42.4" y="148" width="4.8" height="4.7" transform="translate(-93.3 75.7) rotate(-45)"/>
    <rect class="st0" x="46.3" y="151.9" width="4.8" height="4.7" transform="translate(-94.9 79.6) rotate(-45)"/>
    <rect class="st0" x="65.8" y="148" width="4.7" height="4.7" transform="translate(-86.3 92.2) rotate(-45)"/>
    <rect class="st0" x="18.9" y="194.9" width="4.8" height="4.7" transform="translate(-133.2 72.8) rotate(-45)"/>
    <rect class="st0" x="73.6" y="148" width="4.7" height="4.7" transform="translate(-84.1 97.8) rotate(-45)"/>
    <rect class="st0" x="61.9" y="151.9" width="4.7" height="4.7" transform="translate(-90.3 90.6) rotate(-45)"/>
    <rect class="st0" x="38.5" y="151.9" width="4.7" height="4.7" transform="translate(-97.2 74.1) rotate(-45)"/>
    <rect class="st0" x="69.7" y="151.9" width="4.7" height="4.7" transform="translate(-87.9 96.1) rotate(-45)"/>
    <rect class="st0" x="19" y="155.8" width="4.7" height="4.7" transform="translate(-105.6 61.4) rotate(-45)"/>
    <rect class="st0" x="18.9" y="163.6" width="4.8" height="4.7" transform="translate(-111.1 63.7) rotate(-45)"/>
    <rect class="st0" x="34.6" y="148" width="4.7" height="4.7" transform="translate(-95.6 70.2) rotate(-45)"/>
    <rect class="st0" x="19" y="187.1" width="4.7" height="4.7" transform="translate(-127.7 70.6) rotate(-45)"/>
    <rect class="st0" x="18.9" y="179.3" width="4.8" height="4.7" transform="translate(-122.2 68.3) rotate(-45)"/>
    <rect class="st0" x="19" y="171.4" width="4.7" height="4.7" transform="translate(-116.7 66) rotate(-45)"/>
    <rect class="st0" x="26.8" y="148" width="4.7" height="4.7" transform="translate(-97.8 64.7) rotate(-45)"/>
    <rect class="st0" x="30.7" y="151.9" width="4.7" height="4.7" transform="translate(-99.5 68.6) rotate(-45)"/>
    <rect class="st0" x="18.9" y="148" width="4.7" height="4.7" transform="translate(-100.1 59.2) rotate(-45)"/>
    <rect class="st0" x="22.8" y="151.9" width="4.7" height="4.7" transform="translate(-101.8 63.1) rotate(-45)"/>
    <rect class="st0" x="81.4" y="179.3" width="4.7" height="4.7" transform="translate(-103.9 112.5) rotate(-45)"/>
    <rect class="st0" x="50.2" y="163.6" width="4.7" height="4.7" transform="translate(-102 85.8) rotate(-45)"/>
    <rect class="st0" x="46.3" y="167.5" width="4.7" height="4.7" transform="translate(-105.9 84.2) rotate(-45)"/>
    <rect class="st0" x="42.4" y="171.5" width="4.7" height="4.7" transform="translate(-109.8 82.6) rotate(-45)"/>
    <rect class="st0" x="38.5" y="167.6" width="4.7" height="4.7" transform="translate(-108.2 78.7) rotate(-45)"/>
    <rect class="st0" x="34.6" y="171.4" width="4.7" height="4.7" transform="translate(-112.1 77) rotate(-45)"/>
    <rect class="st0" x="42.4" y="163.6" width="4.7" height="4.7" transform="translate(-104.3 80.3) rotate(-45)"/>
    <rect class="st0" x="61.9" y="167.5" width="4.7" height="4.7" transform="translate(-101.3 95.3) rotate(-45)"/>
    <rect class="st0" x="58" y="171.4" width="4.7" height="4.7" transform="translate(-105.3 93.7) rotate(-45)"/>
    <rect class="st0" x="50.2" y="171.5" width="4.7" height="4.7" transform="translate(-107.5 88.1) rotate(-45)"/>
    <rect class="st0" x="58" y="163.6" width="4.7" height="4.7" transform="translate(-99.7 91.4) rotate(-45)"/>
    <rect class="st0" x="54.1" y="167.5" width="4.7" height="4.7" transform="translate(-103.6 89.8) rotate(-45)"/>
    <rect class="st0" x="34.6" y="163.6" width="4.7" height="4.7" transform="translate(-106.6 74.8) rotate(-45)"/>
    <rect class="st0" x="30.7" y="175.4" width="4.8" height="4.7" transform="translate(-116 75.4) rotate(-45)"/>
    <rect class="st0" x="38.5" y="175.4" width="4.7" height="4.7" transform="translate(-113.7 81) rotate(-45)"/>
    <rect class="st0" x="34.6" y="179.3" width="4.8" height="4.7" transform="translate(-117.6 79.3) rotate(-45)"/>
    <rect class="st0" x="46.3" y="175.4" width="4.7" height="4.7" transform="translate(-111.5 86.5) rotate(-45)"/>
    <rect class="st0" x="42.4" y="179.3" width="4.7" height="4.7" transform="translate(-115.4 84.9) rotate(-45)"/>
    <rect class="st0" x="30.7" y="167.5" width="4.7" height="4.7" transform="translate(-110.4 73.1) rotate(-45)"/>
    <rect class="st0" x="26.8" y="163.6" width="4.7" height="4.7" transform="translate(-108.8 69.2) rotate(-45)"/>
    <rect class="st0" x="65.8" y="163.6" width="4.7" height="4.7" transform="translate(-97.4 96.8) rotate(-45)"/>
    <rect class="st0" x="50.2" y="179.3" width="4.7" height="4.8" transform="translate(-113.1 90.4) rotate(-45)"/>
    <rect class="st0" x="26.8" y="179.3" width="4.7" height="4.7" transform="translate(-119.9 73.8) rotate(-45)"/>
    <rect class="st0" x="26.8" y="171.4" width="4.8" height="4.7" transform="translate(-114.4 71.5) rotate(-45)"/>
    <rect class="st0" x="104.9" y="171.5" width="4.7" height="4.7" transform="translate(-91.5 126.7) rotate(-45)"/>
    <rect class="st0" x="104.9" y="163.6" width="4.7" height="4.8" transform="translate(-86 124.5) rotate(-45)"/>
    <rect class="st0" x="97.1" y="171.4" width="4.7" height="4.7" transform="translate(-93.8 121.3) rotate(-45)"/>
    <rect class="st0" x="108.8" y="167.6" width="4.7" height="4.7" transform="translate(-87.6 128.4) rotate(-45)"/>
    <rect class="st0" x="26.8" y="155.8" width="4.7" height="4.7" transform="translate(-103.4 67) rotate(-45)"/>
    <rect class="st0" x="116.6" y="167.5" width="4.7" height="4.8" transform="translate(-85.3 133.9) rotate(-45)"/>
    <path class="st0" d="M135.5,141.1c-1.2-1.1-2.5-2.1-3.9-2.9l-.4.4,3.4,3.4.9-.9Z"/>
    <rect class="st0" x="112.7" y="163.6" width="4.7" height="4.7" transform="translate(-83.7 130) rotate(-45)"/>
    <rect class="st0" x="97.1" y="163.6" width="4.7" height="4.7" transform="translate(-88.3 118.9) rotate(-45)"/>
    <rect class="st0" x="112.7" y="171.4" width="4.7" height="4.8" transform="translate(-89.2 132.3) rotate(-45)"/>
    <rect class="st0" x="81.4" y="163.6" width="4.7" height="4.7" transform="translate(-92.8 107.8) rotate(-45)"/>
    <rect class="st0" x="73.6" y="171.4" width="4.7" height="4.7" transform="translate(-100.6 104.6) rotate(-45)"/>
    <rect class="st0" x="77.5" y="167.5" width="4.7" height="4.7" transform="translate(-96.7 106.3) rotate(-45)"/>
    <rect class="st0" x="69.7" y="167.5" width="4.7" height="4.7" transform="translate(-99 100.7) rotate(-45)"/>
    <rect class="st0" x="73.6" y="163.6" width="4.7" height="4.7" transform="translate(-95.1 102.4) rotate(-45)"/>
    <rect class="st0" x="65.8" y="171.5" width="4.7" height="4.7" transform="translate(-103 99.2) rotate(-45)"/>
    <rect class="st0" x="89.3" y="163.6" width="4.7" height="4.7" transform="translate(-90.6 113.5) rotate(-45)"/>
    <rect class="st0" x="89.2" y="171.5" width="4.7" height="4.7" transform="translate(-96 115.6) rotate(-45)"/>
    <rect class="st0" x="81.4" y="171.4" width="4.7" height="4.7" transform="translate(-98.4 110.2) rotate(-45)"/>
    <rect class="st0" x="93.2" y="167.5" width="4.7" height="4.7" transform="translate(-92.2 117.4) rotate(-45)"/>
    <rect class="st0" x="85.3" y="167.5" width="4.7" height="4.7" transform="translate(-94.4 111.7) rotate(-45)"/>
    <rect class="st0" x="101" y="167.5" width="4.7" height="4.8" transform="translate(-89.9 122.8) rotate(-45)"/>
    <rect class="st0" x="85.3" y="159.7" width="4.7" height="4.7" transform="translate(-88.9 109.6) rotate(-45)"/>
    <rect class="st0" x="81.4" y="155.8" width="4.7" height="4.7" transform="translate(-87.3 105.7) rotate(-45)"/>
    <rect class="st0" x="73.6" y="155.8" width="4.7" height="4.7" transform="translate(-89.6 100) rotate(-45)"/>
    <rect class="st0" x="54.1" y="175.4" width="4.7" height="4.7" transform="translate(-109.2 92) rotate(-45)"/>
    <rect class="st0" x="89.3" y="155.8" width="4.7" height="4.7" transform="translate(-85 111.1) rotate(-45)"/>
    <rect class="st0" x="101" y="159.7" width="4.7" height="4.7" transform="translate(-84.4 120.5) rotate(-45)"/>
    <rect class="st0" x="108.8" y="159.7" width="4.7" height="4.8" transform="translate(-82.1 126.1) rotate(-45)"/>
    <rect class="st0" x="104.9" y="155.8" width="4.7" height="4.7" transform="translate(-80.4 122.2) rotate(-45)"/>
    <rect class="st0" x="97.1" y="155.8" width="4.7" height="4.8" transform="translate(-82.7 116.6) rotate(-45)"/>
    <rect class="st0" x="69.7" y="159.7" width="4.7" height="4.7" transform="translate(-93.5 98.5) rotate(-45)"/>
    <rect class="st0" x="112.7" y="155.8" width="4.7" height="4.8" transform="translate(-78.2 127.7) rotate(-45)"/>
    <rect class="st0" x="93.2" y="159.7" width="4.7" height="4.7" transform="translate(-86.6 115) rotate(-45)"/>
    <rect class="st0" x="42.4" y="155.8" width="4.7" height="4.7" transform="translate(-98.8 78) rotate(-45)"/>
    <rect class="st0" x="46.3" y="159.7" width="4.7" height="4.7" transform="translate(-100.4 81.9) rotate(-45)"/>
    <rect class="st0" x="38.5" y="159.7" width="4.7" height="4.7" transform="translate(-102.7 76.4) rotate(-45)"/>
    <rect class="st0" x="34.6" y="155.8" width="4.7" height="4.7" transform="translate(-101.1 72.5) rotate(-45)"/>
    <rect class="st0" x="30.7" y="159.7" width="4.7" height="4.7" transform="translate(-105 70.9) rotate(-45)"/>
    <rect class="st0" x="50.2" y="155.8" width="4.8" height="4.7" transform="translate(-96.5 83.6) rotate(-45)"/>
    <rect class="st0" x="65.8" y="155.8" width="4.7" height="4.7" transform="translate(-91.9 94.6) rotate(-45)"/>
    <rect class="st0" x="61.9" y="159.7" width="4.7" height="4.7" transform="translate(-95.8 92.9) rotate(-45)"/>
    <rect class="st0" x="58" y="155.8" width="4.7" height="4.7" transform="translate(-94.1 89) rotate(-45)"/>
    <rect class="st0" x="54.1" y="159.7" width="4.8" height="4.7" transform="translate(-98.1 87.5) rotate(-45)"/>
    <rect class="st0" x="77.5" y="159.7" width="4.7" height="4.7" transform="translate(-91.2 103.9) rotate(-45)"/>
    <rect class="st0" x="77.5" y="175.4" width="4.7" height="4.7" transform="translate(-102.3 108.6) rotate(-45)"/>
    <rect class="st0" x="112.7" y="194.9" width="4.8" height="4.7" transform="translate(-105.8 139.2) rotate(-45)"/>
    <rect class="st0" x="73.6" y="179.3" width="4.7" height="4.7" transform="translate(-106.1 106.9) rotate(-45)"/>
    <rect class="st0" x="85.4" y="175.4" width="4.7" height="4.7" transform="translate(-99.9 113.9) rotate(-45)"/>
    <rect class="st0" x="89.3" y="179.3" width="4.7" height="4.7" transform="translate(-101.6 117.9) rotate(-45)"/>
    <rect class="st0" x="93.2" y="175.4" width="4.8" height="4.7" transform="translate(-97.7 119.7) rotate(-45)"/>
    <rect class="st0" x="61.9" y="175.4" width="4.7" height="4.7" transform="translate(-106.9 97.6) rotate(-45)"/>
    <rect class="st0" x="69.7" y="175.4" width="4.7" height="4.7" transform="translate(-104.5 103) rotate(-45)"/>
    <rect class="st0" x="58" y="179.3" width="4.7" height="4.7" transform="translate(-110.8 96) rotate(-45)"/>
    <rect class="st0" x="65.8" y="179.3" width="4.7" height="4.7" transform="translate(-108.5 101.5) rotate(-45)"/>
    <rect class="st0" x="112.7" y="179.3" width="4.7" height="4.7" transform="translate(-94.7 134.6) rotate(-45)"/>
    <rect class="st0" x="120.5" y="171.5" width="4.7" height="4.7" transform="translate(-86.9 137.7) rotate(-45)"/>
    <rect class="st0" x="120.5" y="179.3" width="4.7" height="4.7" transform="translate(-92.4 140.1) rotate(-45)"/>
    <rect class="st0" x="120.5" y="163.6" width="4.7" height="4.8" transform="translate(-81.4 135.6) rotate(-45)"/>
    <rect class="st0" x="116.6" y="175.4" width="4.7" height="4.7" transform="translate(-90.8 136.2) rotate(-45)"/>
    <rect class="st0" x="120.5" y="155.8" width="4.7" height="4.7" transform="translate(-75.9 133.1) rotate(-45)"/>
    <rect class="st0" x="108.8" y="175.3" width="4.7" height="4.8" transform="translate(-93.1 130.7) rotate(-45)"/>
    <rect class="st0" x="116.6" y="159.7" width="4.7" height="4.7" transform="translate(-79.8 131.6) rotate(-45)"/>
    <rect class="st0" x="101" y="175.4" width="4.7" height="4.7" transform="translate(-95.4 125.1) rotate(-45)"/>
    <rect class="st0" x="104.9" y="179.3" width="4.7" height="4.7" transform="translate(-97 129) rotate(-45)"/>
    <rect class="st0" x="97.1" y="179.3" width="4.8" height="4.7" transform="translate(-99.3 123.6) rotate(-45)"/>
    <rect class="st0" x="34.6" y="194.9" width="4.7" height="4.8" transform="translate(-128.6 83.8) rotate(-45)"/>
    <polygon class="st0" points="11.4 168.3 11.4 171.5 13 169.9 11.4 168.3"/>
    <polygon class="st0" points="33.1 205.6 29.7 209 32.2 211.4 33.9 211.4 36.4 209 33.1 205.6"/>
    <polygon class="st0" points="11.4 176.1 11.4 179.3 12.9 177.7 11.4 176.1"/>
    <polygon class="st0" points="11.4 160.5 11.4 163.7 12.9 162.1 11.4 160.5"/>
    <polygon class="st0" points="16.9 173.8 13.5 170.4 11.4 172.6 11.4 175 13.5 177.2 16.9 173.8"/>
    <path class="st0" d="M12.9,146.4c0,0,0,.2-.1.3l.2-.2h0Z"/>
    <path class="st0" d="M16.8,142.6l-.9-.9c-1.1,1.2-2,2.5-2.8,3.9l.3.3,3.3-3.3Z"/>
    <polygon class="st0" points="16.9 181.6 13.5 178.3 11.4 180.4 11.4 182.8 13.5 185 16.9 181.6"/>
    <path class="st0" d="M11.4,152.7c0,.3,0,.5,0,.8v2.5l1.6-1.6-1.6-1.6Z"/>
    <polygon class="st0" points="16.9 158.2 13.5 154.8 11.4 157 11.4 159.4 13.5 161.6 16.9 158.2"/>
    <path class="st0" d="M16.8,150.4l-3.3-3.3-1.4,1.4c-.3,1-.5,2.1-.6,3.2l2.1,2.1,3.3-3.3Z"/>
    <polygon class="st0" points="16.8 166 13.5 162.7 11.4 164.8 11.4 167.1 13.5 169.3 16.8 166"/>
    <path class="st0" d="M16.5,206.5c1.1,1.1,2.4,2.1,3.8,2.8l.4-.4-3.3-3.3-.9.9Z"/>
    <polygon class="st0" points="109.2 136.2 105.3 136.2 107.3 138.1 109.2 136.2"/>
    <path class="st0" d="M21.1,209.7c.2.1.5.2.7.3l-.5-.5-.2.2Z"/>
    <path class="st0" d="M27.3,211.4c.4,0,.8,0,1.3,0h2.4l-1.9-1.9-1.8,1.8Z"/>
    <path class="st0" d="M25.2,205.6l-3.3,3.3,1.7,1.7c.9.3,1.8.5,2.7.6l2.3-2.3-3.4-3.4Z"/>
    <path class="st0" d="M13.5,201.7l-.3.3c.7,1.4,1.7,2.8,2.8,3.9l.9-.9-3.3-3.3Z"/>
    <path class="st0" d="M11.4,191.8v2.4c0,.2,0,.5,0,.7l1.6-1.6-1.6-1.6Z"/>
    <path class="st0" d="M12.9,201.2h0c0,0-.2-.3-.2-.3,0,0,0,.2.1.3Z"/>
    <polygon class="st0" points="16.9 189.4 13.5 186.1 11.4 188.2 11.4 190.6 13.5 192.8 16.9 189.4"/>
    <path class="st0" d="M16.8,197.3l-3.3-3.3-2.1,2.1c.1,1.1.3,2.2.7,3.2l1.4,1.4,3.3-3.3Z"/>
    <path class="st0" d="M20.7,138.7l-.4-.4c-1.4.8-2.7,1.7-3.8,2.9l.9.9,3.3-3.3Z"/>
    <polygon class="st0" points="64.3 142 67.6 138.7 65.2 136.2 63.4 136.2 60.9 138.7 64.3 142"/>
    <polygon class="st0" points="79.9 142 83.3 138.7 80.8 136.2 79 136.2 76.6 138.7 79.9 142"/>
    <polygon class="st0" points="72.1 142 75.4 138.7 73 136.2 71.2 136.2 68.7 138.7 72.1 142"/>
    <polygon class="st0" points="85.7 136.2 81.9 136.2 83.8 138.1 85.7 136.2"/>
    <polygon class="st0" points="70.1 136.2 66.3 136.2 68.2 138.1 70.1 136.2"/>
    <polygon class="st0" points="77.9 136.2 74.1 136.2 76 138.1 77.9 136.2"/>
    <polygon class="st0" points="101.3 136.2 97.5 136.2 99.4 138.1 101.3 136.2"/>
    <polygon class="st0" points="87.7 142 91.1 138.7 88.6 136.2 86.8 136.2 84.4 138.7 87.7 142"/>
    <polygon class="st0" points="103.4 142 106.7 138.7 104.2 136.2 102.4 136.2 100 138.7 103.4 142"/>
    <polygon class="st0" points="95.5 142 98.9 138.7 96.4 136.2 94.7 136.2 92.2 138.7 95.5 142"/>
    <polygon class="st0" points="93.5 136.2 89.7 136.2 91.6 138.1 93.5 136.2"/>
    <polygon class="st0" points="56.5 142 59.8 138.7 57.3 136.2 55.6 136.2 53.1 138.6 56.5 142"/>
    <polygon class="st0" points="38.8 136.2 35.1 136.2 37 138.1 38.8 136.2"/>
    <polygon class="st0" points="33 142 36.4 138.7 34 136.2 32.2 136.2 29.7 138.7 33 142"/>
    <path class="st0" d="M28.6,138.7l-2.3-2.3c-.9.1-1.8.3-2.6.6l-1.7,1.7,3.3,3.3,3.3-3.3Z"/>
    <path class="st0" d="M31,136.2h-2.5c-.4,0-.9,0-1.3,0l1.9,1.9,1.9-1.9Z"/>
    <polygon class="st0" points="40.9 142 44.2 138.7 41.7 136.2 40 136.2 37.5 138.7 40.9 142"/>
    <path class="st0" d="M21.9,137.6c-.3.1-.5.2-.8.3l.2.2.6-.6Z"/>
    <polygon class="st0" points="46.7 136.2 42.9 136.2 44.8 138.1 46.7 136.2"/>
    <polygon class="st0" points="62.3 136.2 58.5 136.2 60.4 138.1 62.3 136.2"/>
    <polygon class="st0" points="54.5 136.2 50.7 136.2 52.6 138.1 54.5 136.2"/>
    <polygon class="st0" points="48.7 142 52 138.6 49.6 136.2 47.8 136.2 45.3 138.7 48.7 142"/>
    <polygon class="st0" points="11.4 183.9 11.4 187.1 13 185.5 11.4 183.9"/>
    <path class="st0" d="M121,211.4h2.5c.4,0,.8,0,1.2,0l-1.8-1.8-1.9,1.9Z"/>
    <path class="st0" d="M140.6,194.9c0-.2,0-.5,0-.7v-2.5l-1.6,1.6,1.6,1.6Z"/>
    <polygon class="st0" points="140.7 179.3 140.7 176.1 139.1 177.7 140.7 179.3"/>
    <polygon class="st0" points="140.7 187.1 140.7 183.9 139 185.5 140.7 187.1"/>
    <polygon class="st0" points="135.2 181.6 138.5 185 140.7 182.8 140.7 180.4 138.5 178.3 135.2 181.6"/>
    <path class="st0" d="M135.1,197.3l3.3,3.3,1.4-1.4c.3-1,.5-2.1.6-3.2l-2.1-2.1-3.3,3.3Z"/>
    <path class="st0" d="M130.1,210.1c.3-.1.5-.2.8-.4l-.2-.2-.6.6Z"/>
    <path class="st0" d="M139.1,201.2c0-.1.1-.2.2-.3l-.2.2h0Z"/>
    <path class="st0" d="M126.8,205.6l-3.4,3.4,2.3,2.3c.9-.1,1.8-.3,2.7-.6l1.7-1.7-3.3-3.3Z"/>
    <path class="st0" d="M131.3,209l.4.4c1.4-.8,2.7-1.7,3.8-2.8l-.9-.9-3.3,3.3Z"/>
    <path class="st0" d="M135.1,205.1l.9.9c1.1-1.2,2-2.5,2.8-3.9l-.3-.3-3.3,3.3Z"/>
    <polygon class="st0" points="135.1 189.4 138.5 192.8 140.7 190.6 140.7 188.2 138.5 186.1 135.1 189.4"/>
    <path class="st0" d="M135.1,150.4l3.4,3.4,2.1-2.1c-.1-1.1-.3-2.2-.6-3.2l-1.4-1.4-3.3,3.3Z"/>
    <polygon class="st0" points="135.1 173.8 138.5 177.2 140.7 175 140.7 172.6 138.5 170.5 135.1 173.8"/>
    <path class="st0" d="M145.6,101.1l-63.1-57.9-.8.9L41.1,6.9l-2,2.2,40.6,37.2-.8.9,58.8,53.9H2.4v119.1h146.9v-119.1h-3.7ZM133.6,109.1c4.4,0,7.9,3.6,7.9,7.9s-3.6,7.9-7.9,7.9-7.9-3.6-7.9-7.9,3.6-7.9,7.9-7.9ZM10.5,116.6c0-4.2,3.4-7.6,7.6-7.6h96.2c4.2,0,7.6,3.4,7.6,7.6v.7c0,4.2-3.4,7.6-7.6,7.6H18.1c-4.2,0-7.6-3.4-7.6-7.6v-.7ZM142.4,194.2c0,10.4-8.5,18.9-18.9,18.9H28.6c-10.4,0-18.9-8.5-18.9-18.9v-40.8c0-10.4,8.5-18.9,18.9-18.9h94.8c10.4,0,18.9,8.5,18.9,18.9v40.8Z"/>
    <path class="st0" d="M135.2,142.6l3.3,3.3.3-.3c-.7-1.4-1.7-2.7-2.7-3.9l-.9.9Z"/>
    <path class="st0" d="M140.7,155.9v-2.5c0-.2,0-.5,0-.7l-1.6,1.6,1.6,1.6Z"/>
    <path class="st0" d="M139.1,146.4h0c0,0,.2.3.2.3,0-.1-.1-.2-.2-.3Z"/>
    <polygon class="st0" points="135.2 166 138.5 169.3 140.7 167.2 140.7 164.8 138.5 162.7 135.2 166"/>
    <polygon class="st0" points="135.2 158.2 138.5 161.6 140.7 159.4 140.7 157 138.5 154.9 135.2 158.2"/>
    <polygon class="st0" points="140.7 171.5 140.7 168.3 139 169.9 140.7 171.5"/>
    <polygon class="st0" points="140.7 163.7 140.7 160.5 139.1 162.1 140.7 163.7"/>
    <polygon class="st0" points="95.5 205.6 92.2 209 94.7 211.4 96.4 211.4 98.9 209 95.5 205.6"/>
    <polygon class="st0" points="56.5 205.6 53.1 209 55.6 211.4 57.4 211.4 59.8 209 56.5 205.6"/>
    <polygon class="st0" points="64.3 205.6 60.9 209 63.4 211.4 65.2 211.4 67.6 209 64.3 205.6"/>
    <polygon class="st0" points="58.5 211.4 62.3 211.4 60.4 209.5 58.5 211.4"/>
    <rect class="st0" x="116.6" y="191" width="4.7" height="4.7" transform="translate(-101.9 140.8) rotate(-45)"/>
    <polygon class="st0" points="72.1 205.6 68.7 209 71.2 211.4 73 211.4 75.5 209 72.1 205.6"/>
    <polygon class="st0" points="74.1 211.4 77.9 211.4 76 209.5 74.1 211.4"/>
    <polygon class="st0" points="42.9 211.4 46.7 211.4 44.8 209.6 42.9 211.4"/>
    <polygon class="st0" points="40.8 205.6 37.5 209 40 211.4 41.8 211.4 44.2 209 40.8 205.6"/>
    <polygon class="st0" points="48.7 205.6 45.3 209 47.8 211.4 49.5 211.4 52 209 48.7 205.6"/>
    <polygon class="st0" points="50.7 211.4 54.5 211.4 52.6 209.5 50.7 211.4"/>
    <polygon class="st0" points="118.9 205.6 115.6 209 118.1 211.4 119.9 211.4 122.3 209 118.9 205.6"/>
    <polygon class="st0" points="103.3 205.6 100 209 102.5 211.4 104.2 211.4 106.7 209 103.3 205.6"/>
    <polygon class="st0" points="97.5 211.4 101.4 211.4 99.4 209.5 97.5 211.4"/>
    <polygon class="st0" points="105.3 211.4 109.1 211.4 107.2 209.5 105.3 211.4"/>
    <polygon class="st0" points="113.2 211.4 117 211.4 115.1 209.5 113.2 211.4"/>
    <polygon class="st0" points="111.2 205.6 107.8 209 110.2 211.4 112 211.4 114.5 209 111.2 205.6"/>
    <polygon class="st0" points="89.7 211.4 93.5 211.4 91.6 209.5 89.7 211.4"/>
    <polygon class="st0" points="81.9 211.4 85.7 211.4 83.8 209.5 81.9 211.4"/>
    <polygon class="st0" points="87.7 205.6 84.4 209 86.9 211.4 88.6 211.4 91.1 209 87.7 205.6"/>
    <polygon class="st0" points="35 211.4 38.8 211.4 36.9 209.5 35 211.4"/>
    <polygon class="st0" points="79.9 205.6 76.6 209 79 211.4 80.8 211.4 83.3 209 79.9 205.6"/>
    <polygon class="st0" points="66.3 211.4 70.1 211.4 68.2 209.5 66.3 211.4"/>
    <polygon class="st0" points="111.1 142 114.5 138.6 112 136.2 110.3 136.2 107.8 138.7 111.1 142"/>
    <rect class="st0" x="50.2" y="140.2" width="4.8" height="4.7" transform="translate(-85.4 78.9) rotate(-45)"/>
    <rect class="st0" x="46.3" y="144.1" width="4.7" height="4.7" transform="translate(-89.3 77.3) rotate(-45)"/>
    <rect class="st0" x="42.4" y="140.2" width="4.7" height="4.7" transform="translate(-87.7 73.4) rotate(-45)"/>
    <rect class="st0" x="58" y="140.2" width="4.7" height="4.7" transform="translate(-83.1 84.4) rotate(-45)"/>
    <rect class="st0" x="73.6" y="140.2" width="4.7" height="4.7" transform="translate(-78.6 95.5) rotate(-45)"/>
    <rect class="st0" x="61.9" y="144.1" width="4.7" height="4.7" transform="translate(-84.7 88.3) rotate(-45)"/>
    <rect class="st0" x="77.5" y="144.1" width="4.7" height="4.7" transform="translate(-80.2 99.4) rotate(-45)"/>
    <rect class="st0" x="38.5" y="144.1" width="4.8" height="4.7" transform="translate(-91.6 71.8) rotate(-45)"/>
    <rect class="st0" x="69.7" y="144.1" width="4.7" height="4.7" transform="translate(-82.5 93.9) rotate(-45)"/>
    <rect class="st0" x="65.8" y="140.2" width="4.7" height="4.7" transform="translate(-80.9 90) rotate(-45)"/>
    <rect class="st0" x="18.9" y="140.2" width="4.7" height="4.7" transform="translate(-94.6 56.9) rotate(-45)"/>
    <rect class="st0" x="15.1" y="151.9" width="4.7" height="4.7" transform="translate(-104 57.5) rotate(-45)"/>
    <rect class="st0" x="15" y="159.7" width="4.8" height="4.7" transform="translate(-109.5 59.8) rotate(-45)"/>
    <rect class="st0" x="15.1" y="167.5" width="4.7" height="4.7" transform="translate(-115 62.1) rotate(-45)"/>
    <rect class="st0" x="15" y="144.1" width="4.7" height="4.7" transform="translate(-98.5 55.2) rotate(-45)"/>
    <rect class="st0" x="15.1" y="183.2" width="4.7" height="4.7" transform="translate(-126.1 66.7) rotate(-45)"/>
    <rect class="st0" x="81.4" y="140.2" width="4.7" height="4.7" transform="translate(-76.3 101) rotate(-45)"/>
    <rect class="st0" x="26.8" y="140.2" width="4.7" height="4.7" transform="translate(-92.3 62.4) rotate(-45)"/>
    <rect class="st0" x="30.7" y="144.1" width="4.7" height="4.7" transform="translate(-93.9 66.3) rotate(-45)"/>
    <rect class="st0" x="34.6" y="140.2" width="4.8" height="4.7" transform="translate(-90 67.9) rotate(-45)"/>
    <rect class="st0" x="22.8" y="144.1" width="4.7" height="4.7" transform="translate(-96.2 60.8) rotate(-45)"/>
    <rect class="st0" x="15" y="175.3" width="4.8" height="4.7" transform="translate(-120.6 64.4) rotate(-45)"/>
    <rect class="st0" x="128.3" y="171.5" width="4.7" height="4.7" transform="translate(-84.6 143.2) rotate(-45)"/>
    <rect class="st0" x="128.3" y="179.2" width="4.7" height="4.8" transform="translate(-90.2 145.7) rotate(-45)"/>
    <rect class="st0" x="128.3" y="163.6" width="4.7" height="4.7" transform="translate(-79.1 141) rotate(-45)"/>
    <rect class="st0" x="128.3" y="155.8" width="4.7" height="4.8" transform="translate(-73.6 138.8) rotate(-45)"/>
    <rect class="st0" x="128.3" y="148" width="4.7" height="4.7" transform="translate(-68.1 136.4) rotate(-45)"/>
    <rect class="st0" x="124.4" y="191" width="4.7" height="4.7" transform="translate(-99.6 146.3) rotate(-45)"/>
    <rect class="st0" x="128.3" y="140.2" width="4.7" height="4.8" transform="translate(-62.5 134.2) rotate(-45)"/>
    <rect class="st0" x="128.3" y="187.1" width="4.7" height="4.7" transform="translate(-95.7 147.8) rotate(-45)"/>
    <rect class="st0" x="120.5" y="194.9" width="4.7" height="4.7" transform="translate(-103.5 144.7) rotate(-45)"/>
    <rect class="st0" x="128.3" y="194.9" width="4.7" height="4.7" transform="translate(-101.2 150.2) rotate(-45)"/>
    <rect class="st0" x="116.6" y="144.1" width="4.7" height="4.7" transform="translate(-68.7 127) rotate(-45)"/>
    <rect class="st0" x="101" y="144.1" width="4.7" height="4.7" transform="translate(-73.3 116) rotate(-45)"/>
    <rect class="st0" x="97.1" y="140.2" width="4.7" height="4.8" transform="translate(-71.7 112.1) rotate(-45)"/>
    <rect class="st0" x="93.2" y="144.1" width="4.7" height="4.8" transform="translate(-75.6 110.5) rotate(-45)"/>
    <rect class="st0" x="89.3" y="140.2" width="4.7" height="4.7" transform="translate(-74 106.5) rotate(-45)"/>
    <rect class="st0" x="124.4" y="144.1" width="4.7" height="4.8" transform="translate(-66.4 132.5) rotate(-45)"/>
    <rect class="st0" x="104.9" y="140.2" width="4.7" height="4.7" transform="translate(-69.4 117.6) rotate(-45)"/>
    <rect class="st0" x="120.5" y="140.2" width="4.7" height="4.7" transform="translate(-64.8 128.6) rotate(-45)"/>
    <rect class="st0" x="85.4" y="144.1" width="4.7" height="4.7" transform="translate(-77.9 104.9) rotate(-45)"/>
    <rect class="st0" x="112.7" y="140.2" width="4.7" height="4.8" transform="translate(-67.1 123.1) rotate(-45)"/>
    <rect class="st0" x="108.8" y="144.1" width="4.7" height="4.8" transform="translate(-71 121.5) rotate(-45)"/>
    <rect class="st0" x="54.1" y="144.1" width="4.8" height="4.7" transform="translate(-87 82.8) rotate(-45)"/>
    <rect class="st0" x="124.4" y="198.8" width="4.7" height="4.7" transform="translate(-105.1 148.6) rotate(-45)"/>
    <rect class="st0" x="128.3" y="202.7" width="4.7" height="4.7" transform="translate(-106.7 152.5) rotate(-45)"/>
    <rect class="st0" x="120.5" y="202.7" width="4.8" height="4.7" transform="translate(-109 147) rotate(-45)"/>
    <rect class="st0" x="97.1" y="202.7" width="4.7" height="4.7" transform="translate(-115.9 130.3) rotate(-45)"/>
    <rect class="st0" x="132.2" y="198.8" width="4.7" height="4.7" transform="translate(-102.8 154.1) rotate(-45)"/>
    <rect class="st0" x="101" y="198.8" width="4.7" height="4.7" transform="translate(-112 132) rotate(-45)"/>
    <rect class="st0" x="132.2" y="183.2" width="4.7" height="4.7" transform="translate(-91.8 149.4) rotate(-45)"/>
    <rect class="st0" x="104.9" y="202.7" width="4.7" height="4.7" transform="translate(-113.6 135.9) rotate(-45)"/>
    <rect class="st0" x="112.7" y="202.7" width="4.7" height="4.7" transform="translate(-111.3 141.3) rotate(-45)"/>
    <rect class="st0" x="116.6" y="198.8" width="4.8" height="4.7" transform="translate(-107.4 143.1) rotate(-45)"/>
    <rect class="st0" x="108.8" y="198.8" width="4.7" height="4.7" transform="translate(-109.7 137.4) rotate(-45)"/>
    <rect class="st0" x="132.2" y="191" width="4.7" height="4.8" transform="translate(-97.3 152) rotate(-45)"/>
    <path class="st0" d="M126.8,142l3.3-3.3-1.7-1.7c-.9-.3-1.8-.5-2.7-.6l-2.3,2.3,3.3,3.3Z"/>
    <path class="st0" d="M124.7,136.3c-.4,0-.9,0-1.3,0h-2.5l1.9,1.9,1.9-1.9Z"/>
    <path class="st0" d="M130.9,137.9c-.2-.1-.5-.2-.7-.3l.5.5.2-.2Z"/>
    <polygon class="st0" points="116.9 136.2 113.2 136.2 115 138.1 116.9 136.2"/>
    <rect class="st0" x="15" y="191" width="4.8" height="4.7" transform="translate(-131.6 68.9) rotate(-45)"/>
    <rect class="st0" x="132.2" y="151.9" width="4.7" height="4.8" transform="translate(-69.7 140.4) rotate(-45)"/>
    <rect class="st0" x="132.2" y="144.1" width="4.7" height="4.7" transform="translate(-64.2 138) rotate(-45)"/>
    <rect class="st0" x="132.2" y="167.6" width="4.7" height="4.7" transform="translate(-80.7 144.9) rotate(-45)"/>
    <rect class="st0" x="132.2" y="159.7" width="4.7" height="4.7" transform="translate(-75.2 142.6) rotate(-45)"/>
    <rect class="st0" x="132.2" y="175.3" width="4.7" height="4.8" transform="translate(-86.3 147.3) rotate(-45)"/>
    <polygon class="st0" points="119 142 122.3 138.7 119.8 136.2 118 136.2 115.6 138.6 119 142"/>
    <rect class="st0" x="34.6" y="202.7" width="4.7" height="4.7" transform="translate(-134.2 86.2) rotate(-45)"/>
    <rect class="st0" x="30.7" y="198.8" width="4.7" height="4.8" transform="translate(-132.6 82.3) rotate(-45)"/>
    <rect class="st0" x="38.5" y="198.8" width="4.7" height="4.7" transform="translate(-130.2 87.7) rotate(-45)"/>
    <rect class="st0" x="42.4" y="202.7" width="4.7" height="4.8" transform="translate(-131.8 91.6) rotate(-45)"/>
    <rect class="st0" x="46.3" y="198.8" width="4.7" height="4.8" transform="translate(-128 93.4) rotate(-45)"/>
    <rect class="st0" x="50.2" y="202.7" width="4.7" height="4.7" transform="translate(-129.6 97.3) rotate(-45)"/>
    <rect class="st0" x="26.8" y="202.7" width="4.7" height="4.8" transform="translate(-136.4 80.6) rotate(-45)"/>
    <rect class="st0" x="18.9" y="202.7" width="4.7" height="4.7" transform="translate(-138.8 75.2) rotate(-45)"/>
    <rect class="st0" x="15" y="198.8" width="4.7" height="4.7" transform="translate(-137.1 71.2) rotate(-45)"/>
    <rect class="st0" x="93.2" y="198.8" width="4.7" height="4.7" transform="translate(-114.2 126.4) rotate(-45)"/>
    <rect class="st0" x="22.8" y="198.8" width="4.7" height="4.7" transform="translate(-134.8 76.7) rotate(-45)"/>
    <rect class="st0" x="81.5" y="202.7" width="4.7" height="4.7" transform="translate(-120.5 119.4) rotate(-45)"/>
    <rect class="st0" x="77.5" y="198.8" width="4.7" height="4.7" transform="translate(-118.9 115.5) rotate(-45)"/>
    <rect class="st0" x="73.6" y="202.7" width="4.7" height="4.8" transform="translate(-122.8 113.9) rotate(-45)"/>
    <rect class="st0" x="89.3" y="202.7" width="4.7" height="4.7" transform="translate(-118.2 124.9) rotate(-45)"/>
    <rect class="st0" x="85.4" y="198.8" width="4.7" height="4.7" transform="translate(-116.6 121) rotate(-45)"/>
    <rect class="st0" x="65.8" y="202.7" width="4.7" height="4.7" transform="translate(-125.1 108.3) rotate(-45)"/>
    <rect class="st0" x="58" y="202.7" width="4.7" height="4.7" transform="translate(-127.3 102.7) rotate(-45)"/>
    <rect class="st0" x="61.9" y="198.8" width="4.7" height="4.7" transform="translate(-123.4 104.4) rotate(-45)"/>
    <rect class="st0" x="54.1" y="198.8" width="4.7" height="4.7" transform="translate(-125.7 98.8) rotate(-45)"/>
    <rect class="st0" x="69.7" y="198.8" width="4.7" height="4.7" transform="translate(-121.2 110) rotate(-45)"/>
  </g>
</svg>