<?xml version="1.0" encoding="UTF-8"?>
<svg id="Layer_1" xmlns="http://www.w3.org/2000/svg" version="1.1" viewBox="0 0 800 288">
  <!-- Generator: Adobe Illustrator 30.3.0, SVG Export Plug-In . SVG Version: 2.1.3 Build 182)  -->
  <defs>
    <style>
      .st0 {
        fill: #fff;
      }
    </style>
  </defs>
  <path class="st0" d="M56.81,167.1c-2.76,3.68-6.13,11.19-7.36,13.95H5.46v-.77c1.38-1.23,2.76-3.99,2.76-7.05v-58.86c0-4.14-.77-5.67-3.22-6.74l.46-1.23c1.69.15,5.36.15,7.66.15s7.97,0,9.66-.15l.31,1.23c-2.3,1.23-3.22,2.91-3.22,5.98v59.32h19.31c9.5,0,12.11-1.99,16.55-6.74l.92.92h.15Z"/>
  <path class="st0" d="M95.89,181.96c-20.08,0-36.79-14.41-36.79-36.94s17.32-39.39,37.24-39.39,36.79,14.41,36.79,36.94-17.32,39.39-37.24,39.39ZM95.74,112.99c-14.71,0-24.22,13.18-24.22,31.11s10.73,30.35,24.98,30.35,24.22-13.18,24.22-31.11-10.73-30.35-24.98-30.35Z"/>
  <path class="st0" d="M167.47,181.5c-9.96,0-16.55-1.84-23.3-5.21l-.61-15.17,1.53-.31c4.14,8.28,11.65,13.18,23.91,13.18s16.55-4.44,16.55-12.57-3.83-11.04-16.71-14.25c-16.86-4.29-21.92-9.81-21.92-20.84s9.2-20.08,24.52-20.08,14.71,1.23,20.69,3.68l-.92,11.65h-1.38c-3.83-4.6-9.96-7.82-20.23-7.82s-11.8,4.44-11.8,8.74,1.99,8.58,16.55,12.26c16.55,4.29,22.22,10.88,22.22,22.68s-12.72,24.22-28.82,24.22h-.31v-.15Z"/>
  <path class="st0" d="M258.36,116.98h-.92c-.61-1.53-1.69-3.07-7.66-3.07h-11.8v58.09c0,4.29.92,6.28,4.44,7.66v1.23c-2.45-.15-7.36-.15-9.81-.15s-7.51,0-9.66.15v-1.23c2.3-1.23,3.37-3.22,3.37-7.05v-58.7h-9.2c-7.97,0-10.58,1.23-13.03,3.22l-.77-.61,3.07-10.12c10.12,0,15.94.15,26.06.15s17.93,0,29.12-.15l-3.07,10.42h-.15v.15Z"/>
  <path class="st0" d="M363.04,175.07c-6.13,3.83-13.95,6.44-22.68,6.44-18.55,0-34.49-12.57-34.49-36.63s16.71-38.78,35.25-38.78,15.48,2.45,20.84,5.98c0,2.91.46,9.96.77,12.72l-1.23.46c-5.21-7.66-13.18-11.8-21.15-11.8-13.33,0-22.22,12.41-22.22,30.35s10.12,30.19,23.3,30.19,15.48-3.37,21.15-12.26l1.23.46c-.46,2.76-.77,9.81-.77,12.72h0v.15Z"/>
  <path class="st0" d="M410.71,181.96c-20.08,0-36.79-14.41-36.79-36.94s17.32-39.39,37.24-39.39,36.79,14.41,36.79,36.94-17.32,39.39-37.24,39.39ZM410.71,112.99c-14.71,0-24.22,13.18-24.22,31.11s10.73,30.35,24.98,30.35,24.22-13.18,24.22-31.11-10.73-30.35-24.98-30.35Z"/>
  <path class="st0" d="M515.85,114.07v67.13h-1.99c-1.84-3.22-5.36-8.12-10.27-14.56l-32.49-43.84v48.89c0,4.6,1.38,6.74,4.75,8.43l-.31.92c-1.84,0-5.67-.15-7.82-.15s-5.36,0-7.36.15l-.31-1.07c1.69-1.07,3.07-2.91,3.07-5.98v-58.55c0-3.68-1.69-6.74-3.99-7.66l.31-.92c1.38.15,3.99.15,6.59.15s6.13,0,8.74-.15c.77,1.84,3.37,6.13,8.89,13.64l24.22,32.8v-39.08c0-3.68-1.23-5.36-3.37-6.28l.31-.92c2.15.15,5.82.15,7.97.15s4.6,0,6.28-.15l.31.92c-2.45,1.38-3.53,3.07-3.53,6.59v-.46Z"/>
  <path class="st0" d="M582.37,116.98h-.92c-.61-1.53-1.69-3.07-7.66-3.07h-11.8v58.09c0,4.29.92,6.28,4.44,7.66v1.23c-2.45-.15-7.36-.15-9.81-.15s-7.51,0-9.66.15v-1.23c2.3-1.23,3.37-3.22,3.37-7.05v-58.7h-9.2c-7.97,0-10.58,1.23-13.03,3.22l-.77-.61,3.07-10.12c10.12,0,15.94.15,26.06.15s17.93,0,29.12-.15l-3.07,10.42h-.15v.15Z"/>
  <path class="st0" d="M654.1,181.35c-14.87,0-27.44-12.57-37.24-35.25h-7.82v26.21c0,4.29,1.23,6.13,4.14,7.51l-.46,1.23c-3.07-.31-7.05-.15-9.66-.15s-5.82,0-8.58.15l-.46-.92c2.3-1.23,3.22-3.37,3.22-6.9v-58.86c0-2.3-.77-5.06-3.53-6.74l.31-.92c4.75.15,8.43.15,13.33.15h18.24c13.33,0,22.99,6.74,22.99,18.39s-7.66,17.78-18.7,20.08c4.75,12.87,15.94,33.11,24.52,34.49l-.31,1.53h0ZM621,113.91c-4.29,0-6.28,0-11.96.15v24.68h10.27c9.81,0,17.01-3.99,17.01-13.03s-5.82-11.96-15.33-11.96h0v.15Z"/>
  <path class="st0" d="M695.79,181.96c-20.08,0-36.79-14.41-36.79-36.94s17.32-39.39,37.24-39.39,36.79,14.41,36.79,36.94-17.32,39.39-37.24,39.39ZM695.64,112.99c-14.71,0-24.22,13.18-24.22,31.11s10.73,30.35,24.98,30.35,24.22-13.18,24.22-31.11-10.73-30.35-24.98-30.35Z"/>
  <path class="st0" d="M796.8,167.1c-2.76,3.68-6.13,11.19-7.36,13.95h-43.99v-.77c1.38-1.23,2.76-3.99,2.76-7.05v-58.86c0-4.14-.77-5.67-3.22-6.74l.46-1.23c1.69.15,5.36.15,7.66.15s7.97,0,9.66-.15l.31,1.23c-2.3,1.23-3.22,2.91-3.22,5.98v59.32h19.31c9.5,0,12.11-1.99,16.55-6.74l.92.92h.15Z"/>
</svg>