<?xml version="1.0" encoding="UTF-8"?>
<svg id="Layer_1" xmlns="http://www.w3.org/2000/svg" version="1.1" viewBox="0 0 1600 415">
  <!-- Generator: Adobe Illustrator 30.0.0, SVG Export Plug-In . SVG Version: 2.1.1 Build 123)  -->
  <defs>
    <style>
      .st0 {
        fill: #fff;
      }
    </style>
  </defs>
  <g>
    <path class="st0" d="M81.9,121.1l-29.2,47.3v30.8c0,3.8,1.6,5.6,5.2,7.2v1.6c-4-.2-10.1-.2-14.1-.2s-8.3,0-12.1.2v-1.6c3.4-1.2,5.4-3,5.4-7v-29.8l-27.2-47.5c-3.4-5.8-5.6-8.9-9.1-10.7v-1.2h26.8l.4,1.2c-1.6.6-2.6,2-2.6,3.4s.8,3.8,3.6,9.3l18.9,34,20.5-34.6c3-5.2,3.8-7.5,3.8-9.1s-.8-2-2.4-2.8l.6-1.2h20.5v1.2c-3.2,1.4-6.2,4.8-9.1,9.5,0,0-.2,0-.2,0Z"/>
    <path class="st0" d="M140.7,209.4c-26.4,0-48.3-18.9-48.3-48.5s22.8-51.7,48.9-51.7,48.3,18.9,48.3,48.5-22.8,51.7-48.9,51.7ZM140.5,118.8c-19.3,0-31.8,17.3-31.8,40.9s14.1,39.9,32.8,39.9,31.8-17.3,31.8-40.9-14.1-39.9-32.8-39.9Z"/>
    <path class="st0" d="M279.9,120.2v51.3c0,24.2-14.7,37.3-36,37.3s-35-12.1-35-34v-50.3c0-6.6-1-10.7-4.2-12.7v-1.4c4.2,0,7.2.4,11.3.4h11.7l.4,1.2c-2.8,2.4-3.6,5-3.6,11.5v50.5c0,16.5,7.9,25.6,21.5,25.6s23.4-10.3,23.4-26.6v-51.3c0-5-1.4-7.7-4.6-9.5v-1.2h19.5v1c-2.8,1.8-4.2,4.8-4.2,8.9v-.4h0v-.2Z"/>
    <path class="st0" d="M301.4,151.9l-2-2.8c5.2-5.6,7.7-9.7,7.7-14.3s-1.8-7.9-7-13.9l11.1-11.5c6.6,5.4,9.1,9.7,9.1,15.9s-5.2,15.7-18.5,26.6h-.2Z"/>
    <path class="st0" d="M414.6,121.5l-37.1,88.8h-3.4l-36.4-88c-2.2-5.6-4.2-8.9-7.7-10.7v-1.2h26.4l.4,1.2c-2,1-3.2,3-3.2,4.8s.8,5.2,2.2,8.7l22.8,58.8,23.8-60.6c1.4-3.6,1.8-5.6,1.8-7.2s-1.2-3.4-3.4-4.2l.4-1.2h20.3l.4,1.2c-3,1.6-5,4.2-7.2,9.9h0v-.2Z"/>
    <path class="st0" d="M492.1,208c-10.5-.2-15.3-.2-25.8-.2s-21.3,0-34,.4l-.6-1.2c2.8-2,4-4.8,4-10.1v-76.5c0-4.8-.8-7.5-4.2-9.1l.4-1.4c12.5.6,16.9.6,29.4.6s22.1,0,33.6-.6c-1.2,2.4-4.6,10.1-5.4,12.9-1.4-1.6-4.2-2.4-12.5-2.4h-25.8v27.2h9.5c9.3,0,14.5,0,17.3-2l.8.6c-1.4,1.8-4.6,10.1-5.6,12.9-2.2-1.4-7-1.6-13.9-1.6h-8.1v40.5h22.6c16.5,0,21.3-3,26.4-8.5l1.2,1c-3.2,4.2-7.7,13.7-9.1,17.7h-.2v-.2Z"/>
    <path class="st0" d="M627,189.9c-3.6,4.8-8.1,14.7-9.7,18.3h-57.8v-1c1.8-1.6,3.6-5.2,3.6-9.3v-77.3c0-5.4-1-7.5-4.2-8.9l.6-1.6h22.8l.4,1.6c-3,1.6-4.2,3.8-4.2,7.9v77.9h25.4c12.5,0,15.9-2.6,21.7-8.9l1.2,1.2h.2Z"/>
    <path class="st0" d="M678.4,209.4c-26.4,0-48.3-18.9-48.3-48.5s22.8-51.7,48.9-51.7,48.3,18.9,48.3,48.5-22.8,51.7-48.9,51.7ZM678,118.8c-19.3,0-31.8,17.3-31.8,40.9s14.1,39.9,32.8,39.9,31.8-17.3,31.8-40.9-14.1-39.9-32.8-39.9Z"/>
    <path class="st0" d="M772.4,208.8c-13.1,0-21.7-2.4-30.6-6.8l-.8-19.9,2-.4c5.4,10.9,15.3,17.3,31.4,17.3s21.7-5.8,21.7-16.5-5-14.5-21.9-18.7c-22.1-5.6-28.8-12.9-28.8-27.4s12.1-26.4,32.2-26.4,19.3,1.6,27.2,4.8l-1.2,15.3h-1.8c-5-6-13.1-10.3-26.6-10.3s-15.5,5.8-15.5,11.5,2.6,11.3,21.7,16.1c21.7,5.6,29.2,14.3,29.2,29.8s-16.7,31.8-37.9,31.8h-.4v-.2Z"/>
    <path class="st0" d="M891.8,124.1h-1.2c-.8-2-2.2-4-10.1-4h-15.5v76.3c0,5.6,1.2,8.3,5.8,10.1v1.6c-3.2-.2-9.7-.2-12.9-.2s-9.9,0-12.7.2v-1.6c3-1.6,4.4-4.2,4.4-9.3v-77.1h-12.1c-10.5,0-13.9,1.6-17.1,4.2l-1-.8,4-13.3h72.5l-4,13.7h-.2v.2Z"/>
    <path class="st0" d="M1029.1,200.4c-8.1,5-18.3,8.5-29.8,8.5-24.4,0-45.3-16.5-45.3-48.1s21.9-50.9,46.3-50.9,20.3,3.2,27.4,7.9c0,3.8.6,13.1,1,16.7l-1.6.6c-6.8-10.1-17.3-15.5-27.8-15.5-17.5,0-29.2,16.3-29.2,39.9s13.3,39.7,30.6,39.7,20.3-4.4,27.8-16.1l1.6.6c-.6,3.6-1,12.9-1,16.7h0v.2Z"/>
    <path class="st0" d="M1092,209.4c-26.4,0-48.3-18.9-48.3-48.5s22.8-51.7,48.9-51.7,48.3,18.9,48.3,48.5-22.8,51.7-48.9,51.7ZM1092,118.8c-19.3,0-31.8,17.3-31.8,40.9s14.1,39.9,32.8,39.9,31.8-17.3,31.8-40.9-14.1-39.9-32.8-39.9Z"/>
    <path class="st0" d="M1230.1,120.2v88.2h-2.6c-2.4-4.2-7-10.7-13.5-19.1l-42.7-57.6v64.2c0,6,1.8,8.9,6.2,11.1l-.4,1.2c-2.4,0-7.5-.2-10.3-.2s-7,0-9.7.2l-.4-1.4c2.2-1.4,4-3.8,4-7.9v-76.9c0-4.8-2.2-8.9-5.2-10.1l.4-1.2h20.1c1,2.4,4.4,8.1,11.7,17.9l31.8,43.1v-51.3c0-4.8-1.6-7-4.4-8.3l.4-1.2h18.7l.4,1.2c-3.2,1.8-4.6,4-4.6,8.7v-.6h0Z"/>
    <path class="st0" d="M1317.5,124.1h-1.2c-.8-2-2.2-4-10.1-4h-15.5v76.3c0,5.6,1.2,8.3,5.8,10.1v1.6c-3.2-.2-9.7-.2-12.9-.2s-9.9,0-12.7.2v-1.6c3-1.6,4.4-4.2,4.4-9.3v-77.1h-12.1c-10.5,0-13.9,1.6-17.1,4.2l-1-.8,4-13.3h72.5l-4,13.7h-.2v.2Z"/>
    <path class="st0" d="M1411.7,208.6c-19.5,0-36-16.5-48.9-46.3h-10.3v34.4c0,5.6,1.6,8.1,5.4,9.9l-.6,1.6c-4-.4-9.3-.2-12.7-.2s-7.7,0-11.3.2l-.6-1.2c3-1.6,4.2-4.4,4.2-9.1v-77.3c0-3-1-6.6-4.6-8.9l.4-1.2h41.5c17.5,0,30.2,8.9,30.2,24.2s-10.1,23.4-24.6,26.4c6.2,16.9,20.9,43.5,32.2,45.3l-.4,2h0v.2ZM1368,120h-15.7v32.4h13.5c12.9,0,22.4-5.2,22.4-17.1s-7.7-15.7-20.1-15.7h0v.4Z"/>
    <path class="st0" d="M1466.5,209.4c-26.4,0-48.3-18.9-48.3-48.5s22.8-51.7,48.9-51.7,48.3,18.9,48.3,48.5-22.8,51.7-48.9,51.7ZM1466.1,118.8c-19.3,0-31.8,17.3-31.8,40.9s14.1,39.9,32.8,39.9,31.8-17.3,31.8-40.9-14.1-39.9-32.8-39.9Z"/>
    <path class="st0" d="M1599,189.9c-3.6,4.8-8.1,14.7-9.7,18.3h-57.8v-1c1.8-1.6,3.6-5.2,3.6-9.3v-77.3c0-5.4-1-7.5-4.2-8.9l.6-1.6h22.8l.4,1.6c-3,1.6-4.2,3.8-4.2,7.9v77.9h25.4c12.5,0,15.9-2.6,21.7-8.9l1.2,1.2h.2Z"/>
  </g>
  <g>
    <path class="st0" d="M222.5,256.8v35.6c0,9.1-4.6,13.7-13.1,17.3l-.4-1c4.2-2.8,6.2-5.8,6.2-14.9v-36.4c0-2.8-.8-3.8-2.6-4.6v-.6h12.1v.6c-1.4.6-2,1.8-2,4h-.2Z"/>
    <path class="st0" d="M254.9,299.5c-12.5,0-23-9.1-23-23.2s10.9-24.6,23.4-24.6,23,9.1,23,23.2-10.9,24.6-23.4,24.6h0ZM254.7,256.2c-9.3,0-15.1,8.3-15.1,19.5s6.8,19.1,15.7,19.1,15.1-8.3,15.1-19.5-6.8-19.1-15.7-19.1Z"/>
    <path class="st0" d="M318.1,257.2l-13.9,22.6v14.7c0,1.8.8,2.6,2.6,3.4v.8h-12.7v-.8c1.6-.6,2.6-1.4,2.6-3.4v-14.3l-12.9-22.8c-1.6-2.8-2.6-4.2-4.2-5v-.6h12.7v.6c-.6.4-1,1-1,1.6s.4,1.8,1.8,4.4l9.1,16.3,9.9-16.5c1.4-2.4,1.8-3.6,1.8-4.2s-.4-1-1.2-1.4v-.6h10.1v.6c-1.6.6-3,2.2-4.4,4.4h0l-.2.2Z"/>
    <path class="st0" d="M366.9,298.9h-16.7v-.6c1-.8,1.6-2,1.6-4.4v-37.1c0-2.2-.6-3.4-2-4v-.6h17.3c13.9,0,24.4,8.9,24.4,23s-10.5,23.8-24.6,23.8h0ZM365.5,256.8h-6.2v37.1c2.8,0,4.6.2,7.2.2,10.7,0,17.3-6,17.3-19.1s-7.7-18.3-18.3-18.3h0v.2Z"/>
    <path class="st0" d="M411.4,298.9h-12.3v-.6c1.6-.8,2.4-1.8,2.4-4v-36.8c0-2.6-.8-3.6-2.2-4.4v-.6h11.9v.6c-1.2.6-2.2,1.8-2.2,4v37.3c0,2.4.8,3.4,2.6,4.2v.6h0l-.2-.2Z"/>
    <path class="st0" d="M456.7,257.4l-17.7,42.5h-1.6l-17.3-42.1c-1-2.6-2-4.2-3.6-5v-.6h12.5v.6c-.8.4-1.4,1.4-1.4,2.2s.4,2.4,1,4l10.9,28,11.3-29c.6-1.8.8-2.6.8-3.4s-.6-1.6-1.6-2v-.6h9.9v.6c-1.2.8-2.2,2-3.2,4.6h.2v.2Z"/>
    <path class="st0" d="M477,298.9h-12.3v-.6c1.6-.8,2.4-1.8,2.4-4v-36.8c0-2.6-.8-3.6-2.2-4.4v-.6h11.9v.6c-1.2.6-2.2,1.8-2.2,4v37.3c0,2.4.8,3.4,2.6,4.2v.6h0l-.2-.2Z"/>
    <path class="st0" d="M499.2,299.1c-6.2,0-10.5-1.2-14.7-3.2l-.4-9.5h1c2.6,5,7.2,8.1,14.9,8.1s10.5-2.8,10.5-7.9-2.4-6.8-10.5-9.1c-10.5-2.6-13.7-6-13.7-13.1s5.8-12.7,15.3-12.7,9.3.8,12.9,2.2l-.6,7.2h-1c-2.4-2.8-6.2-4.8-12.7-4.8s-7.5,2.8-7.5,5.4,1.2,5.4,10.5,7.7c10.5,2.6,13.9,6.8,13.9,14.3s-8.1,15.1-18.1,15.1h0l.2.2Z"/>
    <path class="st0" d="M537,298.9h-12.3v-.6c1.6-.8,2.4-1.8,2.4-4v-36.8c0-2.6-.8-3.6-2.2-4.4v-.6h11.9v.6c-1.2.6-2.2,1.8-2.2,4v37.3c0,2.4.8,3.4,2.6,4.2v.6h0l-.2-.2Z"/>
    <path class="st0" d="M567.8,299.5c-12.5,0-23-9.1-23-23.2s10.9-24.6,23.4-24.6,23,9.1,23,23.2-10.9,24.6-23.4,24.6ZM567.8,256.2c-9.3,0-15.1,8.3-15.1,19.5s6.8,19.1,15.7,19.1,15.1-8.3,15.1-19.5-6.8-19.1-15.7-19.1Z"/>
    <path class="st0" d="M633.7,256.8v42.1h-1.2c-1.2-2-3.4-5-6.4-9.3l-20.3-27.6v30.6c0,2.8.8,4.2,3,5.2v.6h-9.7v-.6c.8-.6,1.8-1.8,1.8-3.8v-36.8c0-2.4-1-4.2-2.6-4.8v-.6h9.7c.4,1.2,2.2,3.8,5.6,8.5l15.3,20.5v-24.6c0-2.2-.8-3.4-2-4v-.6h9.1v.6c-1.4.8-2,2-2,4v.6h-.2Z"/>
    <path class="st0" d="M669.1,299.1h-4.6l21.5-47.1h4.6l-21.5,47.1Z"/>
    <path class="st0" d="M754.9,256.8v42.1h-1.2c-1.2-2-3.4-5-6.4-9.3l-20.3-27.6v30.6c0,2.8.8,4.2,3,5.2v.6h-9.7v-.6c.8-.6,1.8-1.8,1.8-3.8v-36.8c0-2.4-1-4.2-2.6-4.8v-.6h9.7c.4,1.2,2.2,3.8,5.6,8.5l15.3,20.5v-24.6c0-2.2-.8-3.4-2-4v-.6h9.1v.6c-1.4.8-2,2-2,4v.6h-.2Z"/>
    <path class="st0" d="M793.4,298.9h-28.6v-.6c1.2-1,1.6-2.4,1.6-4.8v-36.6c0-2.2-.4-3.6-2-4.2v-.6c6,.4,8.3.2,14.1.2s10.5,0,15.9-.4c-.6,1.2-2.2,4.8-2.6,6.2-.6-.8-2-1.2-5.8-1.2h-12.3v12.9h4.4c4.4,0,6.8,0,8.3-1l.4.4c-.6.8-2.2,4.8-2.6,6.2-1-.6-3.4-.8-6.6-.8h-3.8v19.3h10.7c7.9,0,10.3-1.4,12.5-4l.6.4c-1.6,2-3.6,6.6-4.4,8.5h.4v.2Z"/>
    <path class="st0" d="M851.5,258.2l-15.1,41.7h-1.6l-8.3-24.2-9.3,24.2h-1.6l-13.3-42.3c-1-2.8-1.6-4-3-4.8v-.6h11.7v.6c-.8.6-1.4,1.2-1.4,2s0,1.8.4,2.8l8.1,27.2,8.9-24h1.6l8.5,24.2,9.5-26.8c.4-1.2.8-2.6.8-3.6s-.4-1.6-1.6-2v-.6h9.1v.6c-1.4.8-2.4,2.2-3.6,5.4h.4v.2Z"/>
    <path class="st0" d="M905.3,299.5c-12.5,0-23-9.1-23-23.2s10.9-24.6,23.4-24.6,23,9.1,23,23.2-10.9,24.6-23.4,24.6ZM905.3,256.2c-9.3,0-15.1,8.3-15.1,19.5s6.8,19.1,15.7,19.1,15.1-8.3,15.1-19.5-6.8-19.1-15.7-19.1Z"/>
    <path class="st0" d="M974,299.1c-9.3,0-17.1-7.9-23.4-22.1h-4.8v16.5c0,2.8.8,3.8,2.6,4.6l-.4.8h-11.5v-.6c1.2-.8,1.8-2.2,1.8-4.2v-37.1c0-1.4-.4-3.2-2.2-4.2v-.6h19.9c8.3,0,14.5,4.2,14.5,11.5s-4.8,11.1-11.7,12.7c3,8.1,10.1,20.7,15.3,21.7v1h-.2,0ZM953,256.8h-7.5v15.5h6.4c6.2,0,10.7-2.4,10.7-8.3s-3.6-7.5-9.7-7.5h0v.2Z"/>
    <path class="st0" d="M995.5,298.9h-16.7v-.6c1-.8,1.6-2,1.6-4.4v-37.1c0-2.2-.6-3.4-2-4v-.6h17.3c13.9,0,24.4,8.9,24.4,23s-10.5,23.8-24.6,23.8h0ZM994.1,256.8h-6.2v37.1c2.8,0,4.6.2,7.2.2,10.7,0,17.3-6,17.3-19.1s-7.7-18.3-18.3-18.3h0v.2Z"/>
    <path class="st0" d="M1056.5,298.9h-28.6v-.6c1.2-1,1.6-2.4,1.6-4.8v-36.6c0-2.2-.4-3.6-2-4.2v-.6c6,.4,8.3.2,14.1.2s10.5,0,15.9-.4c-.6,1.2-2.2,4.8-2.6,6.2-.6-.8-2-1.2-5.8-1.2h-12.3v12.9h4.4c4.4,0,6.8,0,8.3-1l.4.4c-.6.8-2.2,4.8-2.6,6.2-1-.6-3.4-.8-6.6-.8h-3.8v19.3h10.7c7.9,0,10.3-1.4,12.5-4l.6.4c-1.6,2-3.6,6.6-4.4,8.5h.4v.2Z"/>
    <path class="st0" d="M1103.2,299.1c-9.3,0-17.1-7.9-23.4-22.1h-4.8v16.5c0,2.8.8,3.8,2.6,4.6l-.4.8h-11.5v-.6c1.2-.8,1.8-2.2,1.8-4.2v-37.1c0-1.4-.4-3.2-2.2-4.2v-.6h19.9c8.3,0,14.5,4.2,14.5,11.5s-4.8,11.1-11.7,12.7c3,8.1,10.1,20.7,15.3,21.7v1h-.2ZM1082.5,256.8h-7.5v15.5h6.4c6.2,0,10.7-2.4,10.7-8.3s-3.6-7.5-9.7-7.5h0v.2Z"/>
    <path class="st0" d="M1162.7,258.8h-.6c-.4-1-1-2-4.8-2h-7.5v36.4c0,2.6.6,3.8,2.8,4.8v.8h-12.3v-.8c1.4-.8,2-2,2-4.4v-36.8h-5.6c-5,0-6.6.8-8.3,2l-.4-.4,2-6.2h34.6l-2,6.6h0Z"/>
    <path class="st0" d="M1207.8,299.1c-9.3,0-17.1-7.9-23.4-22.1h-4.8v16.5c0,2.8.8,3.8,2.6,4.6l-.4.8h-11.5v-.6c1.2-.8,1.8-2.2,1.8-4.2v-37.1c0-1.4-.4-3.2-2.2-4.2v-.6h19.9c8.3,0,14.5,4.2,14.5,11.5s-4.8,11.1-11.7,12.7c3,8.1,10.1,20.7,15.3,21.7v1h-.2ZM1187,256.8h-7.5v15.5h6.4c6.2,0,10.7-2.4,10.7-8.3s-3.6-7.5-9.7-7.5h0v.2Z"/>
    <path class="st0" d="M1224.5,298.9h-12.3v-.6c1.6-.8,2.4-1.8,2.4-4v-36.8c0-2.6-.8-3.6-2.2-4.4v-.6h11.9v.6c-1.2.6-2.2,1.8-2.2,4v37.3c0,2.4.8,3.4,2.6,4.2v.6h-.2v-.2Z"/>
    <path class="st0" d="M1249.4,298.9h-16.3v-.6c1.4-1,1.8-2.6,1.8-4v-37.9c0-1.6-.8-2.8-2-3.4l.4-.8h14.5c8.7,0,15.3,3.4,15.3,10.5s-3.8,8.5-7.9,10.1h0c6.8,1.8,11.7,5.4,11.7,12.7s-8.1,13.5-17.1,13.5c0,0-.4,0-.4,0ZM1246.2,256.4h-4.2v14.7h3.8c6.2,0,9.7-2.4,9.7-7.7s-3.6-7-9.3-7h0ZM1247.4,275.5h-5.4v18.7c2,0,4.2.2,6.8.2,6.2,0,10.5-3,10.5-9.3s-4.4-9.9-11.7-9.9h-.2v.2Z"/>
    <path class="st0" d="M1308.8,256.8v24.6c0,11.5-7,17.7-17.1,17.7s-16.7-5.8-16.7-16.3v-24c0-3.2-.4-5-2-6v-.6h11.1v.6c-1.2,1.2-1.6,2.4-1.6,5.4v24.2c0,7.9,3.8,12.1,10.3,12.1s11.1-4.8,11.1-12.7v-24.6c0-2.4-.6-3.6-2.2-4.4v-.6h9.3v.4c-1.4.8-2,2.2-2,4.2Z"/>
    <path class="st0" d="M1350.5,258.8h-.6c-.4-1-1-2-4.8-2h-7.5v36.4c0,2.6.6,3.8,2.8,4.8v.8h-12.3v-.8c1.4-.8,2-2,2-4.4v-36.8h-5.6c-5,0-6.6.8-8.3,2l-.4-.4,2-6.2h34.6l-2,6.6h0Z"/>
    <path class="st0" d="M1386.8,298.9h-28.6v-.6c1.2-1,1.6-2.4,1.6-4.8v-36.6c0-2.2-.4-3.6-2-4.2v-.6c6,.4,8.3.2,14.1.2s10.5,0,15.9-.4c-.6,1.2-2.2,4.8-2.6,6.2-.6-.8-2-1.2-5.8-1.2h-12.3v12.9h4.4c4.4,0,6.8,0,8.3-1l.4.4c-.6.8-2.2,4.8-2.6,6.2-1-.6-3.4-.8-6.6-.8h-3.8v19.3h10.7c7.9,0,10.3-1.4,12.5-4l.6.4c-1.6,2-3.6,6.6-4.4,8.5h.4v.2Z"/>
  </g>
</svg>