<?xml version="1.0" encoding="UTF-8"?>
<svg id="Layer_1" xmlns="http://www.w3.org/2000/svg" version="1.1" viewBox="0 0 521.99 55">
  <!-- Generator: Adobe Illustrator 30.3.0, SVG Export Plug-In . SVG Version: 2.1.3 Build 182)  -->
  <defs>
    <style>
      .st0 {
        fill: #fff;
      }
    </style>
  </defs>
  <path class="st0" d="M35.99,42.5c-1.8,2.4-4,7.3-4.8,9.1H2.49v-.5c.9-.8,1.8-2.6,1.8-4.6V8.1c0-2.7-.5-3.7-2.1-4.4l.3-.8c1.1.1,3.5.1,5,.1s5.2,0,6.3-.1l.2.8c-1.5.8-2.1,1.9-2.1,3.9v38.7h12.6c6.2,0,7.9-1.3,10.8-4.4l.6.6h.1Z"/>
  <path class="st0" d="M61.49,52.2c-13.1,0-24-9.4-24-24.1S48.79,2.4,61.79,2.4s24,9.4,24,24.1-11.3,25.7-24.3,25.7ZM61.39,7.2c-9.6,0-15.8,8.6-15.8,20.3s7,19.8,16.3,19.8,15.8-8.6,15.8-20.3-7-19.8-16.3-19.8Z"/>
  <path class="st0" d="M108.19,51.9c-6.5,0-10.8-1.2-15.2-3.4l-.4-9.9,1-.2c2.7,5.4,7.6,8.6,15.6,8.6s10.8-2.9,10.8-8.2-2.5-7.2-10.9-9.3c-11-2.8-14.3-6.4-14.3-13.6s6-13.1,16-13.1,9.6.8,13.5,2.4l-.6,7.6h-.9c-2.5-3-6.5-5.1-13.2-5.1s-7.7,2.9-7.7,5.7,1.3,5.6,10.8,8c10.8,2.8,14.5,7.1,14.5,14.8s-8.3,15.8-18.8,15.8l-.2-.1Z"/>
  <path class="st0" d="M167.49,9.8h-.6c-.4-1-1.1-2-5-2h-7.7v37.9c0,2.8.6,4.1,2.9,5v.8c-1.6-.1-4.8-.1-6.4-.1s-4.9,0-6.3.1v-.8c1.5-.8,2.2-2.1,2.2-4.6V7.8h-6c-5.2,0-6.9.8-8.5,2.1l-.5-.4,2-6.6c6.6,0,10.4.1,17,.1s11.7,0,19-.1l-2,6.8-.1.1Z"/>
  <path class="st0" d="M235.79,47.7c-4,2.5-9.1,4.2-14.8,4.2-12.1,0-22.5-8.2-22.5-23.9s10.9-25.3,23-25.3,10.1,1.6,13.6,3.9c0,1.9.3,6.5.5,8.3l-.8.3c-3.4-5-8.6-7.7-13.8-7.7-8.7,0-14.5,8.1-14.5,19.8s6.6,19.7,15.2,19.7,10.1-2.2,13.8-8l.8.3c-.3,1.8-.5,6.4-.5,8.3v.1Z"/>
  <path class="st0" d="M266.89,52.2c-13.1,0-24-9.4-24-24.1s11.3-25.7,24.3-25.7,24,9.4,24,24.1-11.3,25.7-24.3,25.7ZM266.89,7.2c-9.6,0-15.8,8.6-15.8,20.3s7,19.8,16.3,19.8,15.8-8.6,15.8-20.3-7-19.8-16.3-19.8Z"/>
  <path class="st0" d="M335.49,7.9v43.8h-1.3c-1.2-2.1-3.5-5.3-6.7-9.5l-21.2-28.6v31.9c0,3,.9,4.4,3.1,5.5l-.2.6c-1.2,0-3.7-.1-5.1-.1s-3.5,0-4.8.1l-.2-.7c1.1-.7,2-1.9,2-3.9V8.7c0-2.4-1.1-4.4-2.6-5l.2-.6c.9.1,2.6.1,4.3.1s4,0,5.7-.1c.5,1.2,2.2,4,5.8,8.9l15.8,21.4V7.8c0-2.4-.8-3.5-2.2-4.1l.2-.6c1.4.1,3.8.1,5.2.1s3,0,4.1-.1l.2.6c-1.6.9-2.3,2-2.3,4.3v-.1Z"/>
  <path class="st0" d="M378.89,9.8h-.6c-.4-1-1.1-2-5-2h-7.7v37.9c0,2.8.6,4.1,2.9,5v.8c-1.6-.1-4.8-.1-6.4-.1s-4.9,0-6.3.1v-.8c1.5-.8,2.2-2.1,2.2-4.6V7.8h-6c-5.2,0-6.9.8-8.5,2.1l-.5-.4,2-6.6c6.6,0,10.4.1,17,.1s11.7,0,19-.1l-2,6.8-.1.1Z"/>
  <path class="st0" d="M425.69,51.8c-9.7,0-17.9-8.2-24.3-23h-5.1v17.1c0,2.8.8,4,2.7,4.9l-.3.8c-2-.2-4.6-.1-6.3-.1s-3.8,0-5.6.1l-.3-.6c1.5-.8,2.1-2.2,2.1-4.5V8c0-1.5-.5-3.3-2.3-4.4l.2-.6c3.1.1,5.5.1,8.7.1h11.9c8.7,0,15,4.4,15,12s-5,11.6-12.2,13.1c3.1,8.4,10.4,21.6,16,22.5l-.2,1v.1ZM404.09,7.8c-2.8,0-4.1,0-7.8.1v16.1h6.7c6.4,0,11.1-2.6,11.1-8.5s-3.8-7.8-10-7.8v.1Z"/>
  <path class="st0" d="M452.89,52.2c-13.1,0-24-9.4-24-24.1s11.3-25.7,24.3-25.7,24,9.4,24,24.1-11.3,25.7-24.3,25.7ZM452.79,7.2c-9.6,0-15.8,8.6-15.8,20.3s7,19.8,16.3,19.8,15.8-8.6,15.8-20.3-7-19.8-16.3-19.8Z"/>
  <path class="st0" d="M518.79,42.5c-1.8,2.4-4,7.3-4.8,9.1h-28.7v-.5c.9-.8,1.8-2.6,1.8-4.6V8.1c0-2.7-.5-3.7-2.1-4.4l.3-.8c1.1.1,3.5.1,5,.1s5.2,0,6.3-.1l.2.8c-1.5.8-2.1,1.9-2.1,3.9v38.7h12.6c6.2,0,7.9-1.3,10.8-4.4l.6.6h.1Z"/>
</svg>