<?xml version="1.0" encoding="UTF-8"?>
<svg id="Layer_1" xmlns="http://www.w3.org/2000/svg" version="1.1" viewBox="0 0 800 218.7">
  <!-- Generator: Adobe Illustrator 29.6.0, SVG Export Plug-In . SVG Version: 2.1.1 Build 207)  -->
  <defs>
    <style>
      .st0 {
        fill: #fff;
      }
    </style>
  </defs>
  <g>
    <path class="st0" d="M151.4,4.9h77.4v5.5h-26.2v43.7h-25V10.3h-26.2v-5.5Z"/>
    <path class="st0" d="M291.6,31.6h-30.8v22.5h-25V4.9h25v21.3h30.8V4.9h25v49.2h-25v-22.5Z"/>
    <path class="st0" d="M328.2,4.9h66.4v5.5h-41.4v15.8h36.4v5.5h-36.4v17h41.4v5.5h-66.4V4.9Z"/>
    <path class="st0" d="M156,84.8h66.4v5.5h-41.4v15.8h36.4v5.5h-36.4v17h41.4v5.5h-66.4v-49.2Z"/>
    <path class="st0" d="M237.7,102.5v31.5h-6.4v-49.2h21.1l44.1,29.6v-29.6h6.5v49.2h-18.1l-47.2-31.5Z"/>
    <path class="st0" d="M312.4,109.5c0-17.4,14.6-25.2,44.8-25.2s21,.8,30.2,2.1v4.9c-9.1-.7-19.1-1.3-28.2-1.3-15,0-21,4.4-21,19.4s6,19.4,21,19.4,5.3,0,7.9-.2v-17h-11.5v-5.5h35v26.4c-10.3,1.6-21.4,2.3-31.8,2.3-24.8,0-46.4-4.6-46.4-25.2Z"/>
    <path class="st0" d="M401.5,84.8h25v43.7h38.2v5.5h-63.2v-49.2Z"/>
    <path class="st0" d="M472.1,84.8h24.9v49.2h-24.9v-49.2Z"/>
    <path class="st0" d="M506.6,132.5v-4.9c9.7.7,20.7,1.3,30.3,1.3,17,0,20.5-1.5,20.5-5.3s-.6-2.5-2.3-3.2c-2.7-1.2-7.1-1.4-18.1-2-13.3-.7-18.8-1.8-23-4.2-4.3-2.4-7-5.8-7-12,0-14.1,12.2-18.1,38-18.1s20.9.9,30,2.1v4.9c-8.5-.7-18.1-1.3-26.6-1.3-15.9,0-18.8,1.5-18.8,5.2s.4,2.3,1.7,2.9c2.3,1.3,6,1.5,17.2,2.1,13.9.7,19.7,1.7,24.4,4.1,5,2.5,7,6.1,7,12,0,14.1-12.9,18.5-39.6,18.5s-23.4-1-33.6-2.2Z"/>
    <path class="st0" d="M645.5,111.5h-30.8v22.5h-25v-49.2h25v21.3h30.8v-21.3h25v49.2h-25v-22.5Z"/>
    <path class="st0" d="M153.9,189.4c0-19.1,17.3-25.3,45.7-25.3s17.5.9,25.4,2.2v4.9c-7.7-.8-15.7-1.3-23.4-1.3-15.1,0-21.9,4.1-21.9,19.5s6.9,19.6,21.9,19.7c7.7,0,15.7-.5,23.4-1.3v4.9c-7.9,1.4-15.9,2.2-25.4,2.2-28.1,0-45.7-6.3-45.7-25.2Z"/>
    <path class="st0" d="M289.8,191.5h-30.8v22.5h-25v-49.2h25v21.3h30.8v-21.3h25v49.2h-25v-22.5Z"/>
    <path class="st0" d="M352.2,164.7h21.3l32.4,49.2h-27.3l-7.7-11.6h-36l-7.3,11.6h-6.7l31.2-49.2ZM338.5,196.8h28.9l-14.8-22.4-14.1,22.4Z"/>
    <path class="st0" d="M418.6,182.4v31.5h-6.4v-49.2h21.1l44.1,29.6v-29.6h6.5v49.2h-18.1l-47.2-31.5Z"/>
    <path class="st0" d="M501.8,182.4v31.5h-6.4v-49.2h21.1l44.1,29.6v-29.6h6.5v49.2h-18.1l-47.2-31.5Z"/>
    <path class="st0" d="M578.6,164.7h66.4v5.5h-41.4v15.8h36.4v5.5h-36.4v17h41.4v5.5h-66.4v-49.2Z"/>
    <path class="st0" d="M653.9,164.7h25v43.7h38.2v5.5h-63.2v-49.2Z"/>
    <path class="st0" d="M721.7,212.4v-4.9c9.7.7,20.7,1.3,30.3,1.3,17,0,20.5-1.5,20.5-5.3s-.6-2.5-2.3-3.2c-2.7-1.2-7.1-1.4-18.1-2-13.3-.7-18.8-1.8-23-4.2-4.3-2.4-7-5.8-7-12,0-14.1,12.2-18.1,38-18.1s20.9.9,30,2.1v4.9c-8.5-.7-18.1-1.3-26.6-1.3-15.9,0-18.8,1.5-18.8,5.2s.4,2.3,1.7,2.9c2.3,1.3,6,1.5,17.2,2.1,13.9.7,19.7,1.7,24.4,4.1,5,2.5,7,6.1,7,12,0,14.1-12.9,18.5-39.6,18.5s-23.4-1-33.6-2.2Z"/>
  </g>
  <polygon class="st0" points="113.7 55.6 102.6 55.6 67.4 90.7 67.4 55.6 51.6 55.6 51.6 90.7 16.5 55.6 5.3 55.6 5.3 66.7 40.5 101.9 5.3 101.9 5.3 117.6 40.5 117.6 5.3 152.8 5.3 163.9 16.5 163.9 51.6 128.8 51.6 163.9 67.4 163.9 67.4 128.8 102.6 163.9 113.7 163.9 113.7 152.8 78.6 117.6 113.7 117.6 113.7 101.9 78.6 101.9 113.7 66.7 113.7 55.6"/>
</svg>