<?xml version="1.0" encoding="UTF-8"?>
<svg id="Layer_1" xmlns="http://www.w3.org/2000/svg" version="1.1" viewBox="0 0 800 99.3">
  <!-- Generator: Adobe Illustrator 29.7.1, SVG Export Plug-In . SVG Version: 2.1.1 Build 8)  -->
  <defs>
    <style>
      .st0 {
        fill: #fff;
      }
    </style>
  </defs>
  <g>
    <path class="st0" d="M43.4,7.7l-14.5,23.5v15.3c0,1.9.8,2.8,2.6,3.6v.8c-2-.1-5-.1-7-.1s-4.1,0-6,.1v-.8c1.7-.6,2.7-1.5,2.7-3.5v-14.8L7.7,8.2c-1.7-2.9-2.8-4.4-4.5-5.3v-.6h13.3l.2.6c-.8.3-1.3,1-1.3,1.7s.4,1.9,1.8,4.6l9.4,16.9,10.2-17.2c1.5-2.6,1.9-3.7,1.9-4.5s-.4-1-1.2-1.4l.3-.6h10.2v.6c-1.6.7-3.1,2.4-4.5,4.7h-.1Z"/>
    <path class="st0" d="M72.6,51.6c-13.1,0-24-9.4-24-24.1S59.9,1.8,72.9,1.8s24,9.4,24,24.1-11.3,25.7-24.3,25.7ZM72.5,6.6c-9.6,0-15.8,8.6-15.8,20.3s7,19.8,16.3,19.8,15.8-8.6,15.8-20.3-7-19.8-16.3-19.8Z"/>
    <path class="st0" d="M141.7,7.3v25.5c0,12-7.3,18.5-17.9,18.5s-17.4-6-17.4-16.9V9.4c0-3.3-.5-5.3-2.1-6.3v-.7c2.1,0,3.6.2,5.6.2h5.8l.2.6c-1.4,1.2-1.8,2.5-1.8,5.7v25.1c0,8.2,3.9,12.7,10.7,12.7s11.6-5.1,11.6-13.2V8c0-2.5-.7-3.8-2.3-4.7v-.6h9.7v.5c-1.4.9-2.1,2.4-2.1,4.4v-.2h0Z"/>
    <path class="st0" d="M152.4,23l-1-1.4c2.6-2.8,3.8-4.8,3.8-7.1s-.9-3.9-3.5-6.9l5.5-5.7c3.3,2.7,4.5,4.8,4.5,7.9s-2.6,7.8-9.2,13.2h-.1Z"/>
    <path class="st0" d="M208.6,7.9l-18.4,44.1h-1.7l-18.1-43.7c-1.1-2.8-2.1-4.4-3.8-5.3v-.6h13.1l.2.6c-1,.5-1.6,1.5-1.6,2.4s.4,2.6,1.1,4.3l11.3,29.2,11.8-30.1c.7-1.8.9-2.8.9-3.6s-.6-1.7-1.7-2.1l.2-.6h10.1l.2.6c-1.5.8-2.5,2.1-3.6,4.9h0Z"/>
    <path class="st0" d="M247.1,50.9c-5.2-.1-7.6-.1-12.8-.1s-10.6,0-16.9.2l-.3-.6c1.4-1,2-2.4,2-5V7.4c0-2.4-.4-3.7-2.1-4.5l.2-.7c6.2.3,8.4.3,14.6.3s11,0,16.7-.3c-.6,1.2-2.3,5-2.7,6.4-.7-.8-2.1-1.2-6.2-1.2h-12.8v13.5h4.7c4.6,0,7.2,0,8.6-1l.4.3c-.7.9-2.3,5-2.8,6.4-1.1-.7-3.5-.8-6.9-.8h-4v20.1h11.2c8.2,0,10.6-1.5,13.1-4.2l.6.5c-1.6,2.1-3.8,6.8-4.5,8.8h-.1Z"/>
    <path class="st0" d="M314.1,41.9c-1.8,2.4-4,7.3-4.8,9.1h-28.7v-.5c.9-.8,1.8-2.6,1.8-4.6V7.5c0-2.7-.5-3.7-2.1-4.4l.3-.8h11.3l.2.8c-1.5.8-2.1,1.9-2.1,3.9v38.7h12.6c6.2,0,7.9-1.3,10.8-4.4l.6.6h.1Z"/>
    <path class="st0" d="M339.6,51.6c-13.1,0-24-9.4-24-24.1s11.3-25.7,24.3-25.7,24,9.4,24,24.1-11.3,25.7-24.3,25.7ZM339.4,6.6c-9.6,0-15.8,8.6-15.8,20.3s7,19.8,16.3,19.8,15.8-8.6,15.8-20.3-7-19.8-16.3-19.8Z"/>
    <path class="st0" d="M386.3,51.3c-6.5,0-10.8-1.2-15.2-3.4l-.4-9.9,1-.2c2.7,5.4,7.6,8.6,15.6,8.6s10.8-2.9,10.8-8.2-2.5-7.2-10.9-9.3c-11-2.8-14.3-6.4-14.3-13.6s6-13.1,16-13.1,9.6.8,13.5,2.4l-.6,7.6h-.9c-2.5-3-6.5-5.1-13.2-5.1s-7.7,2.9-7.7,5.7,1.3,5.6,10.8,8c10.8,2.8,14.5,7.1,14.5,14.8s-8.3,15.8-18.8,15.8h-.2,0Z"/>
    <path class="st0" d="M445.6,9.2h-.6c-.4-1-1.1-2-5-2h-7.7v37.9c0,2.8.6,4.1,2.9,5v.8c-1.6-.1-4.8-.1-6.4-.1s-4.9,0-6.3.1v-.8c1.5-.8,2.2-2.1,2.2-4.6V7.2h-6c-5.2,0-6.9.8-8.5,2.1l-.5-.4,2-6.6h36l-2,6.8h-.1Z"/>
    <path class="st0" d="M513.8,47.1c-4,2.5-9.1,4.2-14.8,4.2-12.1,0-22.5-8.2-22.5-23.9s10.9-25.3,23-25.3,10.1,1.6,13.6,3.9c0,1.9.3,6.5.5,8.3l-.8.3c-3.4-5-8.6-7.7-13.8-7.7-8.7,0-14.5,8.1-14.5,19.8s6.6,19.7,15.2,19.7,10.1-2.2,13.8-8l.8.3c-.3,1.8-.5,6.4-.5,8.3h0Z"/>
    <path class="st0" d="M545,51.6c-13.1,0-24-9.4-24-24.1s11.3-25.7,24.3-25.7,24,9.4,24,24.1-11.3,25.7-24.3,25.7ZM545,6.6c-9.6,0-15.8,8.6-15.8,20.3s7,19.8,16.3,19.8,15.8-8.6,15.8-20.3-7-19.8-16.3-19.8Z"/>
    <path class="st0" d="M613.6,7.3v43.8h-1.3c-1.2-2.1-3.5-5.3-6.7-9.5l-21.2-28.6v31.9c0,3,.9,4.4,3.1,5.5l-.2.6c-1.2,0-3.7-.1-5.1-.1s-3.5,0-4.8.1l-.2-.7c1.1-.7,2-1.9,2-3.9V8.2c0-2.4-1.1-4.4-2.6-5l.2-.6h10c.5,1.2,2.2,4,5.8,8.9l15.8,21.4V7.4c0-2.4-.8-3.5-2.2-4.1l.2-.6h9.3l.2.6c-1.6.9-2.3,2-2.3,4.3v-.3h0Z"/>
    <path class="st0" d="M657,9.2h-.6c-.4-1-1.1-2-5-2h-7.7v37.9c0,2.8.6,4.1,2.9,5v.8c-1.6-.1-4.8-.1-6.4-.1s-4.9,0-6.3.1v-.8c1.5-.8,2.2-2.1,2.2-4.6V7.2h-6c-5.2,0-6.9.8-8.5,2.1l-.5-.4,2-6.6h36l-2,6.8h-.1Z"/>
    <path class="st0" d="M703.8,51.2c-9.7,0-17.9-8.2-24.3-23h-5.1v17.1c0,2.8.8,4,2.7,4.9l-.3.8c-2-.2-4.6-.1-6.3-.1s-3.8,0-5.6.1l-.3-.6c1.5-.8,2.1-2.2,2.1-4.5V7.5c0-1.5-.5-3.3-2.3-4.4l.2-.6h20.6c8.7,0,15,4.4,15,12s-5,11.6-12.2,13.1c3.1,8.4,10.4,21.6,16,22.5l-.2,1h0ZM682.1,7.2h-7.8v16.1h6.7c6.4,0,11.1-2.6,11.1-8.5s-3.8-7.8-10-7.8h0v.2Z"/>
    <path class="st0" d="M731,51.6c-13.1,0-24-9.4-24-24.1s11.3-25.7,24.3-25.7,24,9.4,24,24.1-11.3,25.7-24.3,25.7ZM730.8,6.6c-9.6,0-15.8,8.6-15.8,20.3s7,19.8,16.3,19.8,15.8-8.6,15.8-20.3-7-19.8-16.3-19.8Z"/>
    <path class="st0" d="M796.8,41.9c-1.8,2.4-4,7.3-4.8,9.1h-28.7v-.5c.9-.8,1.8-2.6,1.8-4.6V7.5c0-2.7-.5-3.7-2.1-4.4l.3-.8h11.3l.2.8c-1.5.8-2.1,1.9-2.1,3.9v38.7h12.6c6.2,0,7.9-1.3,10.8-4.4l.6.6h.1Z"/>
  </g>
  <g>
    <path class="st0" d="M113.2,75.1v17.7c0,4.5-2.3,6.8-6.5,8.6l-.2-.5c2.1-1.4,3.1-2.9,3.1-7.4v-18.1c0-1.4-.4-1.9-1.3-2.3v-.3h6v.3c-.7.3-1,.9-1,2h0Z"/>
    <path class="st0" d="M129.3,96.3c-6.2,0-11.4-4.5-11.4-11.5s5.4-12.2,11.6-12.2,11.4,4.5,11.4,11.5-5.4,12.2-11.6,12.2h0ZM129.2,74.8c-4.6,0-7.5,4.1-7.5,9.7s3.4,9.5,7.8,9.5,7.5-4.1,7.5-9.7-3.4-9.5-7.8-9.5Z"/>
    <path class="st0" d="M160.7,75.3l-6.9,11.2v7.3c0,.9.4,1.3,1.3,1.7v.4h-6.3v-.4c.8-.3,1.3-.7,1.3-1.7v-7.1l-6.4-11.3c-.8-1.4-1.3-2.1-2.1-2.5v-.3h6.3v.3c-.3.2-.5.5-.5.8s.2.9.9,2.2l4.5,8.1,4.9-8.2c.7-1.2.9-1.8.9-2.1s-.2-.5-.6-.7v-.3h5v.3c-.8.3-1.5,1.1-2.2,2.2h0Z"/>
    <path class="st0" d="M184.9,96h-8.3v-.3c.5-.4.8-1,.8-2.2v-18.4c0-1.1-.3-1.7-1-2v-.3h8.6c6.9,0,12.1,4.4,12.1,11.4s-5.2,11.8-12.2,11.8h0ZM184.2,75.1h-3.1v18.4c1.4,0,2.3.1,3.6.1,5.3,0,8.6-3,8.6-9.5s-3.8-9.1-9.1-9.1h0Z"/>
    <path class="st0" d="M207,96h-6.1v-.3c.8-.4,1.2-.9,1.2-2v-18.3c0-1.3-.4-1.8-1.1-2.2v-.3h5.9v.3c-.6.3-1.1.9-1.1,2v18.5c0,1.2.4,1.7,1.3,2.1v.3h0Z"/>
    <path class="st0" d="M229.5,75.4l-8.8,21.1h-.8l-8.6-20.9c-.5-1.3-1-2.1-1.8-2.5v-.3h6.2v.3c-.4.2-.7.7-.7,1.1s.2,1.2.5,2l5.4,13.9,5.6-14.4c.3-.9.4-1.3.4-1.7s-.3-.8-.8-1v-.3h4.9v.3c-.6.4-1.1,1-1.6,2.3h.1Z"/>
    <path class="st0" d="M239.6,96h-6.1v-.3c.8-.4,1.2-.9,1.2-2v-18.3c0-1.3-.4-1.8-1.1-2.2v-.3h5.9v.3c-.6.3-1.1.9-1.1,2v18.5c0,1.2.4,1.7,1.3,2.1v.3h0Z"/>
    <path class="st0" d="M250.6,96.1c-3.1,0-5.2-.6-7.3-1.6l-.2-4.7h.5c1.3,2.5,3.6,4,7.4,4s5.2-1.4,5.2-3.9-1.2-3.4-5.2-4.5c-5.2-1.3-6.8-3-6.8-6.5s2.9-6.3,7.6-6.3,4.6.4,6.4,1.1l-.3,3.6h-.5c-1.2-1.4-3.1-2.4-6.3-2.4s-3.7,1.4-3.7,2.7.6,2.7,5.2,3.8c5.2,1.3,6.9,3.4,6.9,7.1s-4,7.5-9,7.5h0Z"/>
    <path class="st0" d="M269.4,96h-6.1v-.3c.8-.4,1.2-.9,1.2-2v-18.3c0-1.3-.4-1.8-1.1-2.2v-.3h5.9v.3c-.6.3-1.1.9-1.1,2v18.5c0,1.2.4,1.7,1.3,2.1v.3h0Z"/>
    <path class="st0" d="M284.7,96.3c-6.2,0-11.4-4.5-11.4-11.5s5.4-12.2,11.6-12.2,11.4,4.5,11.4,11.5-5.4,12.2-11.6,12.2ZM284.7,74.8c-4.6,0-7.5,4.1-7.5,9.7s3.4,9.5,7.8,9.5,7.5-4.1,7.5-9.7-3.4-9.5-7.8-9.5Z"/>
    <path class="st0" d="M317.4,75.1v20.9h-.6c-.6-1-1.7-2.5-3.2-4.6l-10.1-13.7v15.2c0,1.4.4,2.1,1.5,2.6v.3h-4.8v-.3c.4-.3.9-.9.9-1.9v-18.3c0-1.2-.5-2.1-1.3-2.4v-.3h4.8c.2.6,1.1,1.9,2.8,4.2l7.6,10.2v-12.2c0-1.1-.4-1.7-1-2v-.3h4.5v.3c-.7.4-1,1-1,2v.3Z"/>
    <path class="st0" d="M335,96.1h-2.3l10.7-23.4h2.3l-10.7,23.4Z"/>
    <path class="st0" d="M377.6,75.1v20.9h-.6c-.6-1-1.7-2.5-3.2-4.6l-10.1-13.7v15.2c0,1.4.4,2.1,1.5,2.6v.3h-4.8v-.3c.4-.3.9-.9.9-1.9v-18.3c0-1.2-.5-2.1-1.3-2.4v-.3h4.8c.2.6,1.1,1.9,2.8,4.2l7.6,10.2v-12.2c0-1.1-.4-1.7-1-2v-.3h4.5v.3c-.7.4-1,1-1,2v.3Z"/>
    <path class="st0" d="M396.7,96h-14.2v-.3c.6-.5.8-1.2.8-2.4v-18.2c0-1.1-.2-1.8-1-2.1v-.3c3,.2,4.1.1,7,.1s5.2,0,7.9-.2c-.3.6-1.1,2.4-1.3,3.1-.3-.4-1-.6-2.9-.6h-6.1v6.4h2.2c2.2,0,3.4,0,4.1-.5l.2.2c-.3.4-1.1,2.4-1.3,3.1-.5-.3-1.7-.4-3.3-.4h-1.9v9.6h5.3c3.9,0,5.1-.7,6.2-2l.3.2c-.8,1-1.8,3.3-2.2,4.2h.2Z"/>
    <path class="st0" d="M425.6,75.8l-7.5,20.7h-.8l-4.1-12-4.6,12h-.8l-6.6-21c-.5-1.4-.8-2-1.5-2.4v-.3h5.8v.3c-.4.3-.7.6-.7,1s0,.9.2,1.4l4,13.5,4.4-11.9h.8l4.2,12,4.7-13.3c.2-.6.4-1.3.4-1.8s-.2-.8-.8-1v-.3h4.5v.3c-.7.4-1.2,1.1-1.8,2.7h.2Z"/>
    <path class="st0" d="M452.3,96.3c-6.2,0-11.4-4.5-11.4-11.5s5.4-12.2,11.6-12.2,11.4,4.5,11.4,11.5-5.4,12.2-11.6,12.2ZM452.3,74.8c-4.6,0-7.5,4.1-7.5,9.7s3.4,9.5,7.8,9.5,7.5-4.1,7.5-9.7-3.4-9.5-7.8-9.5Z"/>
    <path class="st0" d="M486.4,96.1c-4.6,0-8.5-3.9-11.6-11h-2.4v8.2c0,1.4.4,1.9,1.3,2.3l-.2.4h-5.7v-.3c.6-.4.9-1.1.9-2.1v-18.4c0-.7-.2-1.6-1.1-2.1v-.3h9.9c4.1,0,7.2,2.1,7.2,5.7s-2.4,5.5-5.8,6.3c1.5,4,5,10.3,7.6,10.8v.5h-.1ZM476,75.1h-3.7v7.7h3.2c3.1,0,5.3-1.2,5.3-4.1s-1.8-3.7-4.8-3.7h0Z"/>
    <path class="st0" d="M497.1,96h-8.3v-.3c.5-.4.8-1,.8-2.2v-18.4c0-1.1-.3-1.7-1-2v-.3h8.6c6.9,0,12.1,4.4,12.1,11.4s-5.2,11.8-12.2,11.8h0ZM496.4,75.1h-3.1v18.4c1.4,0,2.3.1,3.6.1,5.3,0,8.6-3,8.6-9.5s-3.8-9.1-9.1-9.1h0Z"/>
    <path class="st0" d="M527.4,96h-14.2v-.3c.6-.5.8-1.2.8-2.4v-18.2c0-1.1-.2-1.8-1-2.1v-.3c3,.2,4.1.1,7,.1s5.2,0,7.9-.2c-.3.6-1.1,2.4-1.3,3.1-.3-.4-1-.6-2.9-.6h-6.1v6.4h2.2c2.2,0,3.4,0,4.1-.5l.2.2c-.3.4-1.1,2.4-1.3,3.1-.5-.3-1.7-.4-3.3-.4h-1.9v9.6h5.3c3.9,0,5.1-.7,6.2-2l.3.2c-.8,1-1.8,3.3-2.2,4.2h.2Z"/>
    <path class="st0" d="M550.6,96.1c-4.6,0-8.5-3.9-11.6-11h-2.4v8.2c0,1.4.4,1.9,1.3,2.3l-.2.4h-5.7v-.3c.6-.4.9-1.1.9-2.1v-18.4c0-.7-.2-1.6-1.1-2.1v-.3h9.9c4.1,0,7.2,2.1,7.2,5.7s-2.4,5.5-5.8,6.3c1.5,4,5,10.3,7.6,10.8v.5h-.1ZM540.3,75.1h-3.7v7.7h3.2c3.1,0,5.3-1.2,5.3-4.1s-1.8-3.7-4.8-3.7h0Z"/>
    <path class="st0" d="M580.1,76.1h-.3c-.2-.5-.5-1-2.4-1h-3.7v18.1c0,1.3.3,1.9,1.4,2.4v.4h-6.1v-.4c.7-.4,1-1,1-2.2v-18.3h-2.8c-2.5,0-3.3.4-4.1,1l-.2-.2,1-3.1h17.2l-1,3.3Z"/>
    <path class="st0" d="M602.5,96.1c-4.6,0-8.5-3.9-11.6-11h-2.4v8.2c0,1.4.4,1.9,1.3,2.3l-.2.4h-5.7v-.3c.6-.4.9-1.1.9-2.1v-18.4c0-.7-.2-1.6-1.1-2.1v-.3h9.9c4.1,0,7.2,2.1,7.2,5.7s-2.4,5.5-5.8,6.3c1.5,4,5,10.3,7.6,10.8v.5h-.1ZM592.2,75.1h-3.7v7.7h3.2c3.1,0,5.3-1.2,5.3-4.1s-1.8-3.7-4.8-3.7h0Z"/>
    <path class="st0" d="M610.8,96h-6.1v-.3c.8-.4,1.2-.9,1.2-2v-18.3c0-1.3-.4-1.8-1.1-2.2v-.3h5.9v.3c-.6.3-1.1.9-1.1,2v18.5c0,1.2.4,1.7,1.3,2.1v.3h-.1Z"/>
    <path class="st0" d="M623.2,96h-8.1v-.3c.7-.5.9-1.3.9-2v-18.8c0-.8-.4-1.4-1-1.7l.2-.4h7.2c4.3,0,7.6,1.7,7.6,5.2s-1.9,4.2-3.9,5h0c3.4.9,5.8,2.7,5.8,6.3s-4,6.7-8.5,6.7h-.2ZM621.6,74.9h-2.1v7.3h1.9c3.1,0,4.8-1.2,4.8-3.8s-1.8-3.5-4.6-3.5h0ZM622.2,84.4h-2.7v9.3c1,0,2.1.1,3.4.1,3.1,0,5.2-1.5,5.2-4.6s-2.2-4.9-5.8-4.9h-.1Z"/>
    <path class="st0" d="M652.7,75.1v12.2c0,5.7-3.5,8.8-8.5,8.8s-8.3-2.9-8.3-8.1v-11.9c0-1.6-.2-2.5-1-3v-.3h5.5v.3c-.6.6-.8,1.2-.8,2.7v12c0,3.9,1.9,6,5.1,6s5.5-2.4,5.5-6.3v-12.2c0-1.2-.3-1.8-1.1-2.2v-.3h4.6v.2c-.7.4-1,1.1-1,2.1Z"/>
    <path class="st0" d="M673.4,76.1h-.3c-.2-.5-.5-1-2.4-1h-3.7v18.1c0,1.3.3,1.9,1.4,2.4v.4h-6.1v-.4c.7-.4,1-1,1-2.2v-18.3h-2.8c-2.5,0-3.3.4-4.1,1l-.2-.2,1-3.1h17.2l-1,3.3Z"/>
    <path class="st0" d="M691.4,96h-14.2v-.3c.6-.5.8-1.2.8-2.4v-18.2c0-1.1-.2-1.8-1-2.1v-.3c3,.2,4.1.1,7,.1s5.2,0,7.9-.2c-.3.6-1.1,2.4-1.3,3.1-.3-.4-1-.6-2.9-.6h-6.1v6.4h2.2c2.2,0,3.4,0,4.1-.5l.2.2c-.3.4-1.1,2.4-1.3,3.1-.5-.3-1.7-.4-3.3-.4h-1.9v9.6h5.3c3.9,0,5.1-.7,6.2-2l.3.2c-.8,1-1.8,3.3-2.2,4.2h.2Z"/>
  </g>
</svg>