<?xml version="1.0" encoding="UTF-8"?>
<svg id="Layer_1" xmlns="http://www.w3.org/2000/svg" version="1.1" viewBox="0 0 1600 415">
  <!-- Generator: Adobe Illustrator 30.3.0, SVG Export Plug-In . SVG Version: 2.1.3 Build 182)  -->
  <defs>
    <style>
      .st0 {
        fill: #fff;
      }
    </style>
  </defs>
  <g>
    <path class="st0" d="M109.4,204.07c-5.5,7.33-12.37,22.45-14.81,27.94H6.33v-1.53c2.75-2.44,5.5-7.94,5.5-14.2v-118.03c0-8.25-1.53-11.45-6.41-13.59l.92-2.44h34.81l.61,2.44c-4.58,2.44-6.41,5.8-6.41,12.06v118.95h38.78c19.09,0,24.28-3.97,33.13-13.59l1.83,1.83h.31v.15Z"/>
    <path class="st0" d="M187.88,233.85c-40.31,0-73.75-28.86-73.75-74.06s34.81-78.94,74.67-78.94,73.75,28.86,73.75,74.06-34.81,78.94-74.67,78.94ZM187.27,95.51c-29.47,0-48.56,26.42-48.56,62.45s21.53,60.93,50.08,60.93,48.56-26.42,48.56-62.45-21.53-60.93-50.08-60.93Z"/>
    <path class="st0" d="M331.41,232.93c-20,0-33.13-3.66-46.72-10.38l-1.22-30.39,3.05-.61c8.25,16.64,23.36,26.42,47.95,26.42s33.13-8.86,33.13-25.19-7.63-22.14-33.44-28.55c-33.75-8.55-43.98-19.7-43.98-41.84s18.48-40.31,49.17-40.31,29.47,2.44,41.53,7.33l-1.83,23.36h-2.75c-7.63-9.16-20-15.73-40.62-15.73s-23.67,8.86-23.67,17.56,3.97,17.25,33.13,24.58c33.13,8.55,44.59,21.84,44.59,45.5s-25.5,48.56-57.87,48.56h-.61v-.31h.15Z"/>
    <path class="st0" d="M513.73,103.6h-1.83c-1.22-3.05-3.36-6.11-15.42-6.11h-23.67v116.51c0,8.55,1.83,12.67,8.86,15.42v2.44c-4.89-.31-14.81-.31-19.7-.31s-15.12,0-19.39.31v-2.44c4.58-2.44,6.72-6.41,6.72-14.2v-117.73h-18.48c-16.03,0-21.22,2.44-26.11,6.41l-1.53-1.22,6.11-20.31h110.7l-6.11,20.92h-.31v.31h.15Z"/>
    <path class="st0" d="M723.38,220.11c-12.37,7.63-27.94,12.98-45.5,12.98-37.26,0-69.17-25.19-69.17-73.45s33.44-77.72,70.7-77.72,31,4.89,41.84,12.06c0,5.8.92,20,1.53,25.5l-2.44.92c-10.38-15.42-26.42-23.67-42.45-23.67-26.72,0-44.59,24.89-44.59,60.93s20.31,60.62,46.72,60.62,31-6.72,42.45-24.58l2.44.92c-.92,5.5-1.53,19.7-1.53,25.5h0v.31-.31Z"/>
    <path class="st0" d="M819.43,233.85c-40.31,0-73.75-28.86-73.75-74.06s34.81-78.94,74.67-78.94,73.75,28.86,73.75,74.06-34.81,78.94-74.67,78.94ZM819.43,95.51c-29.47,0-48.56,26.42-48.56,62.45s21.53,60.93,50.08,60.93,48.56-26.42,48.56-62.45-21.53-60.93-50.08-60.93Z"/>
    <path class="st0" d="M1030.3,97.65v134.68h-3.97c-3.66-6.41-10.69-16.34-20.61-29.16l-65.2-87.95v98.03c0,9.16,2.75,13.59,9.47,16.95l-.61,1.83c-3.66,0-11.45-.31-15.73-.31s-10.69,0-14.81.31l-.61-2.14c3.36-2.14,6.11-5.8,6.11-12.06v-117.42c0-7.33-3.36-13.59-7.94-15.42l.61-1.83h30.69c1.53,3.66,6.72,12.37,17.87,27.33l48.56,65.81v-78.33c0-7.33-2.44-10.69-6.72-12.67l.61-1.83h28.55l.61,1.83c-4.89,2.75-7.02,6.11-7.02,13.28v-.92h.15Z"/>
    <path class="st0" d="M1163.75,103.6h-1.83c-1.22-3.05-3.36-6.11-15.42-6.11h-23.67v116.51c0,8.55,1.83,12.67,8.86,15.42v2.44c-4.89-.31-14.81-.31-19.7-.31s-15.12,0-19.39.31v-2.44c4.58-2.44,6.72-6.41,6.72-14.2v-117.73h-18.48c-16.03,0-21.22,2.44-26.11,6.41l-1.53-1.22,6.11-20.31h110.7l-6.11,20.92h-.31v.31h.15Z"/>
    <path class="st0" d="M1307.59,232.63c-29.78,0-54.97-25.19-74.67-70.7h-15.73v52.53c0,8.55,2.44,12.37,8.25,15.12l-.92,2.44c-6.11-.61-14.2-.31-19.39-.31s-11.76,0-17.25.31l-.92-1.83c4.58-2.44,6.41-6.72,6.41-13.9v-118.03c0-4.58-1.53-10.08-7.02-13.59l.61-1.83h63.37c26.72,0,46.11,13.59,46.11,36.95s-15.42,35.73-37.56,40.31c9.47,25.81,31.91,66.42,49.17,69.17l-.61,3.05h0v.31h.15ZM1240.86,97.34h-23.97v49.47h20.61c19.7,0,34.2-7.94,34.2-26.11s-11.76-23.97-30.69-23.97h0v.61h-.15Z"/>
    <path class="st0" d="M1391.27,233.85c-40.31,0-73.75-28.86-73.75-74.06s34.81-78.94,74.67-78.94,73.75,28.86,73.75,74.06-34.81,78.94-74.67,78.94ZM1390.66,95.51c-29.47,0-48.56,26.42-48.56,62.45s21.53,60.93,50.08,60.93,48.56-26.42,48.56-62.45-21.53-60.93-50.08-60.93Z"/>
    <path class="st0" d="M1593.59,204.07c-5.5,7.33-12.37,22.45-14.81,27.94h-88.26v-1.53c2.75-2.44,5.5-7.94,5.5-14.2v-118.03c0-8.25-1.53-11.45-6.41-13.59l.92-2.44h34.81l.61,2.44c-4.58,2.44-6.41,5.8-6.41,12.06v118.95h38.78c19.09,0,24.28-3.97,33.13-13.59l1.83,1.83h.31v.15Z"/>
  </g>
  <g>
    <path class="st0" d="M222.5,281.25v35.6c0,9.1-4.6,13.7-13.1,17.3l-.4-1c4.2-2.8,6.2-5.8,6.2-14.9v-36.4c0-2.8-.8-3.8-2.6-4.6v-.6h12.1v.6c-1.4.6-2,1.8-2,4h-.2Z"/>
    <path class="st0" d="M254.9,323.95c-12.5,0-23-9.1-23-23.2s10.9-24.6,23.4-24.6,23,9.1,23,23.2-10.9,24.6-23.4,24.6h0ZM254.7,280.65c-9.3,0-15.1,8.3-15.1,19.5s6.8,19.1,15.7,19.1,15.1-8.3,15.1-19.5-6.8-19.1-15.7-19.1Z"/>
    <path class="st0" d="M318.1,281.65l-13.9,22.6v14.7c0,1.8.8,2.6,2.6,3.4v.8h-12.7v-.8c1.6-.6,2.6-1.4,2.6-3.4v-14.3l-12.9-22.8c-1.6-2.8-2.6-4.2-4.2-5v-.6h12.7v.6c-.6.4-1,1-1,1.6s.4,1.8,1.8,4.4l9.1,16.3,9.9-16.5c1.4-2.4,1.8-3.6,1.8-4.2s-.4-1-1.2-1.4v-.6h10.1v.6c-1.6.6-3,2.2-4.4,4.4h0l-.2.2h-.1Z"/>
    <path class="st0" d="M366.9,323.35h-16.7v-.6c1-.8,1.6-2,1.6-4.4v-37.1c0-2.2-.6-3.4-2-4v-.6h17.3c13.9,0,24.4,8.9,24.4,23s-10.5,23.8-24.6,23.8h0v-.1ZM365.5,281.25h-6.2v37.1c2.8,0,4.6.2,7.2.2,10.7,0,17.3-6,17.3-19.1s-7.7-18.3-18.3-18.3h0v.2-.1Z"/>
    <path class="st0" d="M411.4,323.35h-12.3v-.6c1.6-.8,2.4-1.8,2.4-4v-36.8c0-2.6-.8-3.6-2.2-4.4v-.6h11.9v.6c-1.2.6-2.2,1.8-2.2,4v37.3c0,2.4.8,3.4,2.6,4.2v.6h0l-.2-.2v-.1Z"/>
    <path class="st0" d="M456.7,281.85l-17.7,42.5h-1.6l-17.3-42.1c-1-2.6-2-4.2-3.6-5v-.6h12.5v.6c-.8.4-1.4,1.4-1.4,2.2s.4,2.4,1,4l10.9,28,11.3-29c.6-1.8.8-2.6.8-3.4s-.6-1.6-1.6-2v-.6h9.9v.6c-1.2.8-2.2,2-3.2,4.6h.2v.2h-.2Z"/>
    <path class="st0" d="M477,323.35h-12.3v-.6c1.6-.8,2.4-1.8,2.4-4v-36.8c0-2.6-.8-3.6-2.2-4.4v-.6h11.9v.6c-1.2.6-2.2,1.8-2.2,4v37.3c0,2.4.8,3.4,2.6,4.2v.6h0l-.2-.2v-.1Z"/>
    <path class="st0" d="M499.2,323.55c-6.2,0-10.5-1.2-14.7-3.2l-.4-9.5h1c2.6,5,7.2,8.1,14.9,8.1s10.5-2.8,10.5-7.9-2.4-6.8-10.5-9.1c-10.5-2.6-13.7-6-13.7-13.1s5.8-12.7,15.3-12.7,9.3.8,12.9,2.2l-.6,7.2h-1c-2.4-2.8-6.2-4.8-12.7-4.8s-7.5,2.8-7.5,5.4,1.2,5.4,10.5,7.7c10.5,2.6,13.9,6.8,13.9,14.3s-8.1,15.1-18.1,15.1h0l.2.2v.1Z"/>
    <path class="st0" d="M537,323.35h-12.3v-.6c1.6-.8,2.4-1.8,2.4-4v-36.8c0-2.6-.8-3.6-2.2-4.4v-.6h11.9v.6c-1.2.6-2.2,1.8-2.2,4v37.3c0,2.4.8,3.4,2.6,4.2v.6h0l-.2-.2v-.1Z"/>
    <path class="st0" d="M567.8,323.95c-12.5,0-23-9.1-23-23.2s10.9-24.6,23.4-24.6,23,9.1,23,23.2-10.9,24.6-23.4,24.6ZM567.8,280.65c-9.3,0-15.1,8.3-15.1,19.5s6.8,19.1,15.7,19.1,15.1-8.3,15.1-19.5-6.8-19.1-15.7-19.1Z"/>
    <path class="st0" d="M633.7,281.25v42.1h-1.2c-1.2-2-3.4-5-6.4-9.3l-20.3-27.6v30.6c0,2.8.8,4.2,3,5.2v.6h-9.7v-.6c.8-.6,1.8-1.8,1.8-3.8v-36.8c0-2.4-1-4.2-2.6-4.8v-.6h9.7c.4,1.2,2.2,3.8,5.6,8.5l15.3,20.5v-24.6c0-2.2-.8-3.4-2-4v-.6h9.1v.6c-1.4.8-2,2-2,4v.6h-.3Z"/>
    <path class="st0" d="M669.1,323.55h-4.6l21.5-47.1h4.6l-21.5,47.1Z"/>
    <path class="st0" d="M754.9,281.25v42.1h-1.2c-1.2-2-3.4-5-6.4-9.3l-20.3-27.6v30.6c0,2.8.8,4.2,3,5.2v.6h-9.7v-.6c.8-.6,1.8-1.8,1.8-3.8v-36.8c0-2.4-1-4.2-2.6-4.8v-.6h9.7c.4,1.2,2.2,3.8,5.6,8.5l15.3,20.5v-24.6c0-2.2-.8-3.4-2-4v-.6h9.1v.6c-1.4.8-2,2-2,4v.6h-.3Z"/>
    <path class="st0" d="M793.4,323.35h-28.6v-.6c1.2-1,1.6-2.4,1.6-4.8v-36.6c0-2.2-.4-3.6-2-4.2v-.6c6,.4,8.3.2,14.1.2s10.5,0,15.9-.4c-.6,1.2-2.2,4.8-2.6,6.2-.6-.8-2-1.2-5.8-1.2h-12.3v12.9h4.4c4.4,0,6.8,0,8.3-1l.4.4c-.6.8-2.2,4.8-2.6,6.2-1-.6-3.4-.8-6.6-.8h-3.8v19.3h10.7c7.9,0,10.3-1.4,12.5-4l.6.4c-1.6,2-3.6,6.6-4.4,8.5h.4v.2l-.2-.1Z"/>
    <path class="st0" d="M851.5,282.65l-15.1,41.7h-1.6l-8.3-24.2-9.3,24.2h-1.6l-13.3-42.3c-1-2.8-1.6-4-3-4.8v-.6h11.7v.6c-.8.6-1.4,1.2-1.4,2s0,1.8.4,2.8l8.1,27.2,8.9-24h1.6l8.5,24.2,9.5-26.8c.4-1.2.8-2.6.8-3.6s-.4-1.6-1.6-2v-.6h9.1v.6c-1.4.8-2.4,2.2-3.6,5.4h.4v.2h-.2Z"/>
    <path class="st0" d="M905.3,323.95c-12.5,0-23-9.1-23-23.2s10.9-24.6,23.4-24.6,23,9.1,23,23.2-10.9,24.6-23.4,24.6ZM905.3,280.65c-9.3,0-15.1,8.3-15.1,19.5s6.8,19.1,15.7,19.1,15.1-8.3,15.1-19.5-6.8-19.1-15.7-19.1Z"/>
    <path class="st0" d="M974,323.55c-9.3,0-17.1-7.9-23.4-22.1h-4.8v16.5c0,2.8.8,3.8,2.6,4.6l-.4.8h-11.5v-.6c1.2-.8,1.8-2.2,1.8-4.2v-37.1c0-1.4-.4-3.2-2.2-4.2v-.6h19.9c8.3,0,14.5,4.2,14.5,11.5s-4.8,11.1-11.7,12.7c3,8.1,10.1,20.7,15.3,21.7v1h-.2.1ZM953,281.25h-7.5v15.5h6.4c6.2,0,10.7-2.4,10.7-8.3s-3.6-7.5-9.7-7.5h0v.2l.1.1Z"/>
    <path class="st0" d="M995.5,323.35h-16.7v-.6c1-.8,1.6-2,1.6-4.4v-37.1c0-2.2-.6-3.4-2-4v-.6h17.3c13.9,0,24.4,8.9,24.4,23s-10.5,23.8-24.6,23.8h0v-.1ZM994.1,281.25h-6.2v37.1c2.8,0,4.6.2,7.2.2,10.7,0,17.3-6,17.3-19.1s-7.7-18.3-18.3-18.3h0v.2-.1Z"/>
    <path class="st0" d="M1056.5,323.35h-28.6v-.6c1.2-1,1.6-2.4,1.6-4.8v-36.6c0-2.2-.4-3.6-2-4.2v-.6c6,.4,8.3.2,14.1.2s10.5,0,15.9-.4c-.6,1.2-2.2,4.8-2.6,6.2-.6-.8-2-1.2-5.8-1.2h-12.3v12.9h4.4c4.4,0,6.8,0,8.3-1l.4.4c-.6.8-2.2,4.8-2.6,6.2-1-.6-3.4-.8-6.6-.8h-3.8v19.3h10.7c7.9,0,10.3-1.4,12.5-4l.6.4c-1.6,2-3.6,6.6-4.4,8.5h.4v.2l-.2-.1Z"/>
    <path class="st0" d="M1103.2,323.55c-9.3,0-17.1-7.9-23.4-22.1h-4.8v16.5c0,2.8.8,3.8,2.6,4.6l-.4.8h-11.5v-.6c1.2-.8,1.8-2.2,1.8-4.2v-37.1c0-1.4-.4-3.2-2.2-4.2v-.6h19.9c8.3,0,14.5,4.2,14.5,11.5s-4.8,11.1-11.7,12.7c3,8.1,10.1,20.7,15.3,21.7v1h-.2.1ZM1082.5,281.25h-7.5v15.5h6.4c6.2,0,10.7-2.4,10.7-8.3s-3.6-7.5-9.7-7.5h0v.2l.1.1Z"/>
    <path class="st0" d="M1162.7,283.25h-.6c-.4-1-1-2-4.8-2h-7.5v36.4c0,2.6.6,3.8,2.8,4.8v.8h-12.3v-.8c1.4-.8,2-2,2-4.4v-36.8h-5.6c-5,0-6.6.8-8.3,2l-.4-.4,2-6.2h34.6l-2,6.6h.1Z"/>
    <path class="st0" d="M1207.8,323.55c-9.3,0-17.1-7.9-23.4-22.1h-4.8v16.5c0,2.8.8,3.8,2.6,4.6l-.4.8h-11.5v-.6c1.2-.8,1.8-2.2,1.8-4.2v-37.1c0-1.4-.4-3.2-2.2-4.2v-.6h19.9c8.3,0,14.5,4.2,14.5,11.5s-4.8,11.1-11.7,12.7c3,8.1,10.1,20.7,15.3,21.7v1h-.2.1ZM1187,281.25h-7.5v15.5h6.4c6.2,0,10.7-2.4,10.7-8.3s-3.6-7.5-9.7-7.5h0v.2l.1.1Z"/>
    <path class="st0" d="M1224.5,323.35h-12.3v-.6c1.6-.8,2.4-1.8,2.4-4v-36.8c0-2.6-.8-3.6-2.2-4.4v-.6h11.9v.6c-1.2.6-2.2,1.8-2.2,4v37.3c0,2.4.8,3.4,2.6,4.2v.6h-.2v-.3Z"/>
    <path class="st0" d="M1249.4,323.35h-16.3v-.6c1.4-1,1.8-2.6,1.8-4v-37.9c0-1.6-.8-2.8-2-3.4l.4-.8h14.5c8.7,0,15.3,3.4,15.3,10.5s-3.8,8.5-7.9,10.1h0c6.8,1.8,11.7,5.4,11.7,12.7s-8.1,13.5-17.1,13.5h-.4v-.1ZM1246.2,280.85h-4.2v14.7h3.8c6.2,0,9.7-2.4,9.7-7.7s-3.6-7-9.3-7h0ZM1247.4,299.95h-5.4v18.7c2,0,4.2.2,6.8.2,6.2,0,10.5-3,10.5-9.3s-4.4-9.9-11.7-9.9h-.2v.3Z"/>
    <path class="st0" d="M1308.8,281.25v24.6c0,11.5-7,17.7-17.1,17.7s-16.7-5.8-16.7-16.3v-24c0-3.2-.4-5-2-6v-.6h11.1v.6c-1.2,1.2-1.6,2.4-1.6,5.4v24.2c0,7.9,3.8,12.1,10.3,12.1s11.1-4.8,11.1-12.7v-24.6c0-2.4-.6-3.6-2.2-4.4v-.6h9.3v.4c-1.4.8-2,2.2-2,4.2h-.2Z"/>
    <path class="st0" d="M1350.5,283.25h-.6c-.4-1-1-2-4.8-2h-7.5v36.4c0,2.6.6,3.8,2.8,4.8v.8h-12.3v-.8c1.4-.8,2-2,2-4.4v-36.8h-5.6c-5,0-6.6.8-8.3,2l-.4-.4,2-6.2h34.6l-2,6.6h.1Z"/>
    <path class="st0" d="M1386.8,323.35h-28.6v-.6c1.2-1,1.6-2.4,1.6-4.8v-36.6c0-2.2-.4-3.6-2-4.2v-.6c6,.4,8.3.2,14.1.2s10.5,0,15.9-.4c-.6,1.2-2.2,4.8-2.6,6.2-.6-.8-2-1.2-5.8-1.2h-12.3v12.9h4.4c4.4,0,6.8,0,8.3-1l.4.4c-.6.8-2.2,4.8-2.6,6.2-1-.6-3.4-.8-6.6-.8h-3.8v19.3h10.7c7.9,0,10.3-1.4,12.5-4l.6.4c-1.6,2-3.6,6.6-4.4,8.5h.4v.2l-.2-.1Z"/>
  </g>
</svg>