<?xml version="1.0" encoding="UTF-8"?>
<svg id="Layer_1" xmlns="http://www.w3.org/2000/svg" version="1.1" viewBox="0 0 800 695">
  <!-- Generator: Adobe Illustrator 29.6.0, SVG Export Plug-In . SVG Version: 2.1.1 Build 207)  -->
  <defs>
    <style>
      .st0 {
        fill: #fff;
      }

      .st1 {
        fill: #2c3a40;
      }

      .st2 {
        fill: #ff410d;
      }
    </style>
  </defs>
  <path class="st1" d="M396.4,691.8c-46.4,0-91.4-9.1-133.9-27-41-17.3-77.7-42.1-109.3-73.7-31.6-31.6-56.4-68.3-73.7-109.3-17.9-42.4-27-87.5-27-133.9s9.1-91.4,27-133.9c17.3-41,42.1-77.7,73.7-109.3,31.6-31.6,68.3-56.4,109.3-73.7C305,13.1,350,4,396.4,4s91.4,9.1,133.9,27c41,17.3,77.7,42.1,109.3,73.7,31.6,31.6,56.4,68.3,73.7,109.3,17.9,42.4,27,87.5,27,133.9s-9.1,91.5-27,133.9c-17.3,41-42.1,77.7-73.7,109.3-31.6,31.6-68.3,56.4-109.3,73.7-42.4,17.9-87.5,27-133.9,27ZM396.4,90c-68.9,0-133.6,26.8-182.4,75.5-48.7,48.7-75.5,113.5-75.5,182.4s26.8,133.6,75.5,182.4c48.7,48.7,113.5,75.5,182.4,75.5s133.6-26.8,182.4-75.5c48.7-48.7,75.5-113.5,75.5-182.4s-26.8-133.6-75.5-182.4c-48.7-48.7-113.5-75.5-182.4-75.5Z"/>
  <path class="st1" d="M396.4,562.9c-29,0-57.2-5.7-83.7-16.9-25.6-10.8-48.6-26.3-68.3-46.1-19.7-19.7-35.2-42.7-46.1-68.3-11.2-26.5-16.9-54.7-16.9-83.7s5.7-57.2,16.9-83.7c10.8-25.6,26.3-48.6,46.1-68.3,19.7-19.7,42.7-35.2,68.3-46.1,26.5-11.2,54.7-16.9,83.7-16.9s57.2,5.7,83.7,16.9c25.6,10.8,48.6,26.3,68.3,46.1,19.7,19.7,35.2,42.7,46.1,68.3,11.2,26.5,16.9,54.7,16.9,83.7s-5.7,57.2-16.9,83.7c-10.8,25.6-26.3,48.6-46.1,68.3-19.7,19.7-42.7,35.2-68.3,46.1-26.5,11.2-54.7,16.9-83.7,16.9ZM396.4,186.6c-43.1,0-83.6,16.8-114,47.2-30.5,30.5-47.2,71-47.2,114s16.8,83.6,47.2,114c30.5,30.5,71,47.2,114,47.2s83.6-16.8,114-47.2c30.5-30.5,47.2-71,47.2-114s-16.8-83.6-47.2-114c-30.5-30.5-71-47.2-114-47.2Z"/>
  <g>
    <path class="st0" d="M155.9,243.3h77.2v5.4h-26.1v43.6h-25v-43.6h-26.1v-5.4Z"/>
    <path class="st0" d="M295.7,270h-30.7v22.4h-25v-49h25v21.2h30.7v-21.2h25v49h-25v-22.4Z"/>
    <path class="st0" d="M332.2,243.3h66.2v5.4h-41.2v15.7h36.3v5.4h-36.3v16.9h41.2v5.4h-66.2v-49Z"/>
    <path class="st0" d="M160.6,323h66.2v5.4h-41.2v15.7h36.3v5.4h-36.3v16.9h41.2v5.4h-66.2v-49Z"/>
    <path class="st0" d="M242,340.6v31.4h-6.4v-49h21l44,29.5v-29.5h6.4v49h-18l-47-31.4Z"/>
    <path class="st0" d="M316.5,347.6c0-17.3,14.5-25.2,44.7-25.2s20.9.8,30.2,2.1v4.8c-9.1-.7-19.1-1.3-28.2-1.3-14.9,0-20.9,4.4-20.9,19.3s6,19.3,20.9,19.3,5.2,0,7.9-.2v-16.9h-11.4v-5.4h34.9v26.3c-10.3,1.6-21.3,2.3-31.7,2.3-24.8,0-46.3-4.6-46.3-25.2Z"/>
    <path class="st0" d="M405.3,323h25v43.6h38.1v5.4h-63v-49Z"/>
    <path class="st0" d="M475.6,323h24.8v49h-24.8v-49Z"/>
    <path class="st0" d="M510.1,370.6v-4.8c9.6.7,20.6,1.3,30.2,1.3,16.9,0,20.4-1.5,20.4-5.3s-.6-2.5-2.3-3.2c-2.7-1.2-7.1-1.4-18-2-13.2-.7-18.7-1.8-22.9-4.2-4.3-2.4-7-5.8-7-12,0-14,12.2-18.1,37.9-18.1s20.9.9,29.9,2.1v4.8c-8.5-.7-18.1-1.3-26.6-1.3-15.9,0-18.7,1.5-18.7,5.2s.4,2.3,1.7,2.9c2.3,1.3,6,1.5,17.1,2.1,13.9.7,19.6,1.7,24.4,4.1,5,2.5,7,6.1,7,12,0,14-12.9,18.5-39.5,18.5s-23.4-1-33.5-2.2Z"/>
    <path class="st0" d="M648.5,349.6h-30.8v22.4h-25v-49h25v21.2h30.8v-21.2h25v49h-25v-22.4Z"/>
    <path class="st0" d="M158.4,427.3c0-19,17.3-25.2,45.6-25.2s17.5.9,25.3,2.2v4.8c-7.7-.8-15.6-1.3-23.3-1.3-15,0-21.9,4.1-21.9,19.4s6.8,19.5,21.9,19.6c7.7,0,15.6-.5,23.3-1.3v4.8c-7.8,1.4-15.9,2.2-25.3,2.2-28,0-45.6-6.2-45.6-25.2Z"/>
    <path class="st0" d="M294,429.3h-30.7v22.4h-25v-49h25v21.2h30.7v-21.2h25v49h-25v-22.4Z"/>
    <path class="st0" d="M356.2,402.7h21.3l32.3,49h-27.2l-7.6-11.6h-35.9l-7.2,11.6h-6.7l31.1-49ZM342.5,434.7h28.8l-14.7-22.3-14.1,22.3Z"/>
    <path class="st0" d="M422.3,420.3v31.4h-6.4v-49h21l44,29.5v-29.5h6.4v49h-18l-47-31.4Z"/>
    <path class="st0" d="M505.3,420.3v31.4h-6.4v-49h21l44,29.5v-29.5h6.4v49h-18l-47-31.4Z"/>
    <path class="st0" d="M581.8,402.7h66.2v5.4h-41.2v15.7h36.3v5.4h-36.3v16.9h41.2v5.4h-66.2v-49Z"/>
    <path class="st0" d="M656.9,402.7h25v43.6h38.1v5.4h-63v-49Z"/>
    <path class="st0" d="M724.5,450.3v-4.8c9.6.7,20.6,1.3,30.2,1.3,16.9,0,20.4-1.5,20.4-5.3s-.6-2.5-2.3-3.2c-2.7-1.2-7.1-1.4-18-2-13.2-.7-18.7-1.8-22.9-4.2-4.3-2.4-7-5.8-7-12,0-14,12.2-18.1,37.9-18.1s20.9.9,29.9,2.1v4.8c-8.5-.7-18.1-1.3-26.6-1.3-15.9,0-18.7,1.5-18.7,5.2s.4,2.3,1.7,2.9c2.3,1.3,6,1.5,17.1,2.1,13.9.7,19.6,1.7,24.4,4.1,5,2.5,7,6.1,7,12,0,14-12.9,18.5-39.5,18.5s-23.4-1-33.5-2.2Z"/>
  </g>
  <polygon class="st2" points="111.5 293.5 101.6 293.5 65.6 329.5 65.6 293.5 50.4 293.5 50.4 329.5 14.4 293.5 2.8 293.5 2.8 303.4 39.7 340.3 2.8 340.3 2.8 355.5 39.7 355.5 2.8 392.4 2.8 402.3 14.4 402.3 50.4 366.3 50.4 402.3 65.6 402.3 65.6 366.3 101.6 402.3 111.5 402.3 111.5 390.6 76.4 355.5 111.5 355.5 111.5 340.3 76.4 340.3 111.5 305.1 111.5 293.5"/>
</svg>